<?xml version="1.0" encoding="UTF-8" standalone="no"?>
<!-- Created with Inkscape (http://www.inkscape.org/) -->

<svg
   xmlns:dc="http://purl.org/dc/elements/1.1/"
   xmlns:cc="http://creativecommons.org/ns#"
   xmlns:rdf="http://www.w3.org/1999/02/22-rdf-syntax-ns#"
   xmlns:svg="http://www.w3.org/2000/svg"
   xmlns="http://www.w3.org/2000/svg"
   xmlns:sodipodi="http://sodipodi.sourceforge.net/DTD/sodipodi-0.dtd"
   xmlns:inkscape="http://www.inkscape.org/namespaces/inkscape"
   id="svg4692"
   version="1.1"
   inkscape:version="0.91 r13725"
   width="892.5"
   height="1280"
   viewBox="0 0 892.5 1280"
   sodipodi:docname="Girl1.svg">
  <metadata
     id="metadata4698">
    <rdf:RDF>
      <cc:Work
         rdf:about="">
        <dc:format>image/svg+xml</dc:format>
        <dc:type
           rdf:resource="http://purl.org/dc/dcmitype/StillImage" />
        <dc:title></dc:title>
      </cc:Work>
    </rdf:RDF>
  </metadata>
  <defs
     id="defs4696" />
  <sodipodi:namedview
     pagecolor="#ffffff"
     bordercolor="#666666"
     borderopacity="1"
     objecttolerance="10"
     gridtolerance="10"
     guidetolerance="10"
     inkscape:pageopacity="0"
     inkscape:pageshadow="2"
     inkscape:window-width="1366"
     inkscape:window-height="717"
     id="namedview4694"
     showgrid="false"
     inkscape:zoom="0.184375"
     inkscape:cx="446.25"
     inkscape:cy="640"
     inkscape:window-x="0"
     inkscape:window-y="0"
     inkscape:window-maximized="1"
     inkscape:current-layer="svg4692" />
  <path
     style="fill:#000000"
     d="m 237.15027,1240.6088 c -1.1294,-0.4876 -0.66718,-3.8372 0.78722,-5.7049 0.55007,-0.7064 0.25245,-1.5382 -0.8423,-2.3543 -1.15629,-0.8619 -1.72569,-2.6053 -1.79632,-5.4998 -0.40383,-16.5501 -1.07712,-27.1322 -2.22847,-35.0247 -1.44888,-9.9322 -0.74528,-16.3375 2.94931,-26.8492 2.19536,-6.2463 2.5181,-8.3774 1.80022,-11.8875 -0.54249,-2.6525 -0.8517,-2.8191 -5.73333,-3.0894 -6.78598,-0.3757 -8.06273,-0.6291 -13.63546,-2.7068 -7.20876,-2.6875 -7.37979,-2.9275 -6.70775,-9.4123 0.50201,-4.8441 1.49375,-8.3957 4.60852,-16.5038 0.50658,-1.3187 1.28596,-11.099 2.0262,-25.4267 1.39119,-26.9267 1.62515,-29.1732 3.75836,-36.0872 1.80726,-5.8576 2.11826,-8.4164 1.65073,-13.5815 -0.98509,-10.8829 -0.29842,-27.6038 1.36355,-33.2034 0.86312,-2.9082 1.72832,-10.0709 1.97293,-16.3335 0.41056,-10.51106 0.31619,-11.28114 -1.63733,-13.36057 -2.00287,-2.13195 -2.02331,-2.35246 -0.60424,-6.51722 0.80783,-2.37084 2.86967,-5.73528 4.58188,-7.47654 1.71219,-1.74126 4.97369,-5.20779 7.24777,-7.70341 l 4.13468,-4.53749 -5.27221,-1.4647 c -5.84623,-1.62417 -14.76877,-7.95986 -14.76877,-10.48696 0,-0.48567 -1.27133,-2.21337 -2.82519,-3.83933 -1.55385,-1.62595 -2.82518,-3.53968 -2.82518,-4.25272 0,-0.71304 -1.42641,-4.14635 -3.16978,-7.62959 -4.16241,-8.31644 -4.96229,-13.89413 -2.90561,-20.26097 4.38421,-13.57202 11.94232,-23.69407 21.68469,-29.04075 4.00244,-2.19657 5.25742,-2.56762 4.81885,-1.42475 -0.54306,1.41519 -0.30739,1.42598 2.79895,0.12806 1.86557,-0.77948 4.42866,-1.60523 5.69577,-1.83501 1.94079,-0.35193 2.12249,-0.19927 1.15308,0.9688 -1.81205,2.18339 -0.46276,2.53436 3.97245,1.03332 9.20606,-3.11569 11.99275,-3.58167 14.21129,-2.37636 1.16756,0.63432 3.81794,1.21888 5.88975,1.29903 16.63349,0.64349 16.15905,0.58455 13.41964,1.66702 -3.80038,1.50172 -3.1731,2.11702 1.88346,1.84749 l 4.47321,-0.23844 -5.17951,1.48695 c -5.00191,1.43595 -11.6839,1.21555 -26.68462,-0.88016 -3.21203,-0.44874 -10.04283,1.15354 -10.04283,2.35573 0,0.47164 0.86942,1.17915 1.93206,1.57225 1.78187,0.65915 1.63546,0.95306 -1.88345,3.78094 -2.09854,1.68643 -3.81552,3.48464 -3.81552,3.99602 0,0.56032 1.96466,0.72174 4.94408,0.40624 3.55896,-0.37688 4.37746,-0.27253 2.92155,0.37244 -3.36567,1.491 -3.55466,2.91143 -0.38738,2.91143 4.00548,0 3.59676,1.34569 -0.85494,2.81489 -3.84071,1.26754 -4.25987,3.07144 -0.64756,2.78685 1.11592,-0.088 3.64666,-0.11294 5.6239,-0.0555 3.09312,0.0897 3.515,0.35608 3.02231,1.90844 -0.31495,0.99232 -0.13162,2.07677 0.4074,2.40991 4.0289,2.49 -5.27793,3.32984 -10.89445,0.9831 -2.91518,-1.21803 -3.7488,-1.22342 -6.57511,-0.0426 -3.01468,1.25961 -5.00806,3.72035 -3.90629,4.82212 0.26307,0.26308 1.48081,0.59547 2.7061,0.73867 1.22528,0.14321 2.98946,0.5984 3.9204,1.01155 1.05195,0.46685 4.01533,-0.0113 7.82927,-1.26336 7.4558,-2.44757 10.43374,-1.6358 6.00656,1.63736 -3.58667,2.65174 -2.89811,3.89656 2.18457,3.94937 6.59843,0.0686 12.25697,1.54336 13.9517,3.63625 0.87875,1.08522 2.05952,1.97312 2.62393,1.97312 0.56442,0 1.02621,0.84755 1.02621,1.88345 0,2.38296 0.18392,2.36706 5.23372,-0.45221 2.30096,-1.28461 4.18358,-1.98596 4.18358,-1.55854 0,1.31544 -3.26417,3.81694 -6.41307,4.91464 -2.62267,0.91427 -2.91829,1.35445 -2.37963,3.54325 1.21226,4.92589 3.21121,6.95873 6.24589,6.3518 2.69209,-0.53842 2.73417,-0.49136 1.39769,1.5631 -0.75788,1.16502 -3.45798,3.4687 -6.00023,5.11926 -5.76764,3.74467 -8.42738,6.42759 -10.31445,10.4043 l -1.47456,3.10739 -6.49324,-0.47318 c -3.78759,-0.27601 -6.73218,-0.0865 -7.06666,0.45464 -0.31539,0.51029 0.0872,0.92781 0.89474,0.92781 1.79888,0 1.90149,1.29323 0.21376,2.69392 -0.92878,0.77082 -1.72262,0.69874 -3.05796,-0.27768 -1.27205,-0.93015 -2.15121,-1.03023 -2.98336,-0.3396 -2.9731,2.46746 0.46582,5.82397 9.30992,9.08681 7.10804,2.62235 8.30875,3.8231 9.78972,9.79003 0.54839,2.20956 0.35127,2.58976 -1.34279,2.58976 -1.09206,0 -1.98555,-0.38192 -1.98555,-0.84871 0,-0.78184 -3.83306,-3.51644 -9.09419,-6.488 -1.79303,-1.01273 -2.61464,-0.9762 -4.92601,0.21906 -3.68943,1.90788 -5.24463,6.83501 -6.172,19.55409 -0.25326,3.47338 -1.08303,8.34687 -1.84393,10.82987 -0.76091,2.4831 -1.63147,6.0457 -1.93457,7.9169 -0.3031,1.8712 -1.38153,4.1537 -2.39651,5.0723 -1.68449,1.5244 -1.89695,1.5357 -2.43666,0.1293 -0.32518,-0.8475 -0.91827,-1.5408 -1.31797,-1.5408 -1.40292,0 -3.13599,5.8636 -2.97683,10.0716 0.206,5.4462 5.87615,18.7269 10.10447,23.6667 1.76984,2.0677 3.21789,4.368 3.21789,5.1118 0,0.7438 0.80883,2.0843 1.7974,2.9789 0.98858,0.8947 2.3196,2.8874 2.95784,4.4282 1.25991,3.0417 6.04278,6.1715 7.01851,4.5927 0.31893,-0.5161 0.0252,-0.941 -0.65286,-0.9442 -1.64751,-0.01 -4.82271,-5.4704 -5.06007,-8.7051 -0.23462,-3.1972 0.2206,-3.2387 2.58299,-0.2354 2.19191,2.7865 3.59867,3.0277 3.59867,0.6168 0,-2.2126 -2.5509,-4.5219 -5.9254,-5.3641 -5.97871,-1.4922 -10.02519,-8.5325 -10.53263,-18.3251 -0.12078,-2.3308 -0.52108,-5.7251 -0.88955,-7.5429 -0.5347,-2.6378 0.0719,-5.2086 3.0046,-12.734 2.02101,-5.1859 3.96814,-11.2649 4.32697,-13.5089 0.43421,-2.7154 1.8685,-5.54321 4.28839,-8.45488 1.99978,-2.40619 3.91112,-5.29013 4.2474,-6.40874 1.27598,-4.24439 3.11077,-4.60586 7.10126,-1.39901 2.02719,1.6291 4.77011,2.96199 6.09535,2.96199 3.14791,0 3.04924,0.46491 -0.8865,4.17679 -4.22332,3.9831 -4.22332,6.39725 0,9.00745 4.21753,2.6066 4.16223,3.1973 -0.22233,2.3747 -3.42285,-0.6421 -3.47398,-0.611 -1.88346,1.1465 2.2088,2.4407 2.06118,3.0709 -0.7194,3.0709 -2.88543,0 -2.95116,1.57 -0.20157,4.8151 2.81479,3.3221 6.08781,5.2087 10.32516,5.9517 3.84203,0.6737 4.10922,1.1065 2.21974,3.5957 -1.60045,2.1083 -0.86251,6.0403 1.81137,9.6516 1.15051,1.5538 2.36752,4.3717 2.70445,6.2619 0.61051,3.4248 3.12743,9.3236 4.36001,10.2183 1.06379,0.7722 3.73667,6.3926 3.73667,7.8572 0,0.7473 0.63566,1.6025 1.41259,1.9007 0.77693,0.2982 1.41259,1.4279 1.41259,2.5106 0,1.0828 0.3606,1.7458 0.8013,1.4734 0.44072,-0.2723 1.3568,1.1879 2.03574,3.2451 0.67894,2.0573 1.40717,3.5677 1.61829,3.3566 0.58403,-0.584 -1.83152,-8.1011 -2.60322,-8.1011 -0.37122,0 -0.94232,-1.3369 -1.26912,-2.9708 -0.32679,-1.634 -1.0872,-3.565 -1.68978,-4.291 -0.60259,-0.7261 -1.23043,-2.5516 -1.3952,-4.0567 -0.16477,-1.5051 -0.41084,-3.2822 -0.54683,-3.9492 -0.13597,-0.6669 0.3821,-1.2125 1.15128,-1.2125 1.62202,0 5.12633,6.2758 6.63706,11.8862 0.94648,3.515 5.47744,13.5185 8.26568,18.2491 0.61056,1.0359 2.06065,4.4261 3.22241,7.5338 1.88717,5.0482 2.14689,5.3581 2.43694,2.9078 0.17855,-1.5085 -0.0907,-3.6274 -0.59836,-4.7087 -2.44346,-5.2045 -3.80023,-8.8428 -4.42052,-11.8541 -0.37342,-1.8128 -0.97881,-3.7199 -1.34532,-4.2378 -0.3665,-0.518 -0.71605,-1.909 -0.77676,-3.0912 -0.2307,-4.4922 -4.04335,-12.4615 -7.84302,-16.3937 -2.40442,-2.4882 -5.06461,-6.7883 -6.87589,-11.1145 -2.59725,-6.2036 -3.29391,-7.115 -5.76526,-7.5431 -1.64481,-0.2849 -2.81103,-1.0691 -2.81103,-1.8903 0,-1.0637 1.42446,-1.4712 5.88581,-1.6837 3.23719,-0.1542 5.8858,-0.626 5.8858,-1.0486 0,-0.4225 0.92321,-0.7201 2.05157,-0.6613 1.41,0.073 2.27307,0.9355 2.75985,2.7568 0.38955,1.4575 1.08849,3.1526 1.55319,3.7669 0.46469,0.6143 1.62811,3.2359 2.58537,5.8256 0.95727,2.5898 2.93723,6.7402 4.39994,9.2233 1.46272,2.4831 2.65948,5.1317 2.65948,5.8858 0,0.7541 0.33717,1.3712 0.74925,1.3712 0.41209,0 0.85202,1.5891 0.97761,3.5315 0.25726,3.9788 5.02488,17.5716 8.17177,23.2983 1.14136,2.077 2.37381,5.0143 2.73878,6.5273 0.36496,1.5129 1.47907,3.7875 2.4758,5.0547 0.99675,1.2671 1.59905,2.6489 1.33847,3.0705 -0.26058,0.4217 0.31362,1.3254 1.27601,2.0082 0.96239,0.6829 3.64607,3.5724 5.96373,6.4211 2.31766,2.8488 7.10092,7.9341 10.62946,11.3008 7.1006,6.7749 16.94072,19.2481 18.57328,23.5432 0.7803,2.0529 -0.79951,5.6504 -2.48129,5.6504 -0.79361,0 -1.44294,0.3203 -1.44294,0.7119 0,1.8399 -6.80378,3.5112 -12.24248,3.007 -0.77693,-0.072 -3.3196,0.1701 -5.65038,0.5382 -2.33078,0.368 -5.93289,0.7383 -8.0047,0.823 -2.0718,0.085 -4.21504,0.4341 -4.76274,0.7765 -1.20048,0.7505 -10.31221,2.0868 -13.60098,1.9946 -9.43846,-0.2644 -12.48949,-0.2423 -17.89286,0.1301 -3.36668,0.232 -6.9688,0.6176 -8.0047,0.8569 -1.0359,0.2392 -2.41318,0.4674 -3.06062,0.5071 -0.64743,0.04 -1.97764,0.8725 -2.95601,1.8509 -1.72232,1.7223 -2.2026,4.2628 -3.39073,17.9355 -0.24459,2.8147 -1.055,7.0525 -1.80092,9.4173 -0.74591,2.3648 -1.5922,10.0207 -1.88064,17.013 -0.28843,6.9924 -0.80336,15.951 -1.14425,19.9082 -0.66755,7.7488 -0.0475,12.1106 1.72166,12.1106 0.60924,0 2.26813,1.1118 3.68642,2.4706 1.41829,1.3588 3.87821,2.6218 5.46647,2.8068 3.28155,0.382 3.55341,-0.1557 1.32398,-2.6192 -2.22585,-2.4596 -1.43585,-2.6503 3.9181,-0.9461 4.77425,1.5196 6.97873,3.3212 7.03302,5.7476 0.0165,0.7362 0.65039,2.024 1.40869,2.862 1.26724,1.4002 -1.11279,1.5354 -29.42904,1.6712 -16.94428,0.081 -31.29252,-0.062 -31.88497,-0.3174 z m 73.35005,-143.7531 c -0.51798,-0.6474 -1.26652,-2.2365 -1.66341,-3.5314 -0.62457,-2.0377 -3.72761,-6.8745 -6.34372,-9.8882 -1.86232,-2.1453 4.07011,10.858 6.12237,13.4196 0.5187,0.6475 1.36686,1.1772 1.88481,1.1772 0.62779,0 0.62778,-0.3924 -5e-5,-1.1772 z m -9.00455,-16.8923 c -0.30063,-0.7511 -0.52378,-0.528 -0.56896,0.569 -0.0408,0.9927 0.18169,1.549 0.49461,1.2361 0.31293,-0.313 0.34638,-1.1252 0.0743,-1.8051 z m -2.06257,-8.2881 c 0.32993,-0.5339 -0.0481,-0.6917 -0.88615,-0.3702 -1.63147,0.6261 -1.92997,1.3011 -0.57536,1.3011 0.48738,0 1.14506,-0.4189 1.46151,-0.9309 z m -12.23582,-50.8642 c 0.32012,-0.518 0.76891,-0.9417 0.99731,-0.9417 0.22841,0 0.41529,0.4237 0.41529,0.9417 0,0.5179 -0.44879,0.9417 -0.99732,0.9417 -0.54851,0 -0.73539,-0.4238 -0.41528,-0.9417 z m 12.71335,-7.8164 c 0,-0.8805 -0.37436,-1.6009 -0.83189,-1.6009 -0.45755,0 -1.05354,-0.8476 -1.32444,-1.8835 -0.67073,-2.5649 0.38321,-2.319 2.49781,0.5828 1.28773,1.7671 1.4755,2.6856 0.70629,3.4548 -0.76921,0.7692 -1.04777,0.6222 -1.04777,-0.5532 z m -28.72275,-2.5426 c -0.32011,-0.518 -0.15824,-0.9418 0.35971,-0.9418 0.51796,0 1.20364,0.4238 1.52375,0.9418 0.32012,0.5179 0.15824,0.9417 -0.35971,0.9417 -0.51795,0 -1.20363,-0.4238 -1.52375,-0.9417 z m 25.87147,-11.30078 c -0.21562,-1.39161 -0.61744,-5.61985 -0.81474,-8.57348 -0.0555,-0.83078 -1.16034,-2.65368 -2.45522,-4.05087 -1.29488,-1.3972 -2.356,-3.04825 -2.35805,-3.669 -0.005,-1.41094 -7.48238,-10.12845 -13.41592,-15.64022 -5.47844,-5.08905 -5.69185,-7.05621 -0.94173,-8.6808 1.94232,-0.6643 3.81691,-1.13174 4.16574,-1.03877 0.34885,0.0929 3.52718,-0.91743 7.06297,-2.24531 3.5358,-1.32788 6.90517,-2.44714 7.4875,-2.48726 0.58234,-0.0402 4.99392,-2.97584 9.80352,-6.52381 6.85673,-5.05812 10.38955,-6.95455 16.3632,-8.7838 4.19017,-1.2831 10.1237,-3.84717 13.18562,-5.69793 3.06193,-1.85075 7.93538,-4.57166 10.82989,-6.04647 2.89452,-1.4748 7.16975,-4.66505 9.50053,-7.08944 2.33078,-2.42439 4.91708,-4.68543 5.74734,-5.02453 0.83025,-0.33911 3.77082,-3.34281 6.53458,-6.67489 5.38841,-6.49643 6.86946,-6.45566 3.86123,0.10628 -1.02501,2.23586 -1.7147,4.21416 -1.53266,4.39619 0.18205,0.18205 1.8463,-0.16911 3.69834,-0.78033 6.02934,-1.98987 5.65736,-0.50741 -1.67774,6.68633 -3.96759,3.89113 -7.21379,7.49728 -7.21379,8.01368 0,0.51638 1.27133,2.1569 2.82518,3.64559 3.66283,3.50922 3.76703,5.62454 0.23544,4.77914 -1.42437,-0.34096 -4.5251,-0.8606 -6.89053,-1.15476 -5.92143,-0.73636 -10.47862,1.73524 -27.2805,14.79566 -8.12621,6.31664 -16.09129,11.67461 -19.74298,13.28073 -20.27179,8.9162 -24.82274,13.53781 -20.54696,20.8661 4.68644,8.03216 5.61516,11.25429 4.54843,15.78059 -0.41789,1.77318 -0.85831,2.5883 -0.97868,1.81138 z M 283.6659,933.43435 c -3.3676,-0.42807 -3.29761,-1.65654 0.16314,-2.86297 2.24048,-0.78103 2.85975,-0.68121 3.32692,0.53622 0.76335,1.98925 -0.34295,2.7268 -3.49006,2.32675 z m -2.85974,-11.147 c -0.75301,-0.75301 2.08805,-3.10949 3.80147,-3.15308 0.64743,-0.0165 1.17716,0.60572 1.17716,1.38265 0,0.77692 -0.38912,1.41259 -0.8647,1.41259 -0.4756,0 -1.45123,0.22507 -2.16809,0.50016 -0.71686,0.27507 -1.59249,0.21103 -1.94584,-0.14232 z m -12.1036,-9.80647 c 1.22277,-1.01866 2.72681,-1.85212 3.34231,-1.85212 1.93861,0 3.65414,-6.20538 2.37584,-8.59388 -2.21715,-4.14279 -6.78979,-8.2376 -11.42606,-10.23206 -3.48246,-1.49812 -4.46795,-2.32087 -3.69988,-3.08893 0.76805,-0.76806 2.24056,-0.75199 5.52833,0.0603 2.46478,0.60898 6.4638,1.21978 8.8867,1.3573 4.02853,0.22865 4.28502,0.383 2.99913,1.80474 -1.2726,1.40702 -1.10961,1.65003 1.71596,2.55838 1.71716,0.55203 6.19279,1.12375 9.94583,1.27049 l 6.82372,0.2668 -2.58455,1.88346 c -8.82356,6.43005 -9.26193,8.50371 -1.19605,5.6579 2.46087,-0.86825 4.53865,-1.09376 5.43837,-0.59025 1.12168,0.62773 0.61289,1.07636 -2.21596,1.95397 -4.55571,1.41332 -11.67665,4.99308 -11.67665,5.86996 0,0.35877 0.42378,0.91424 0.94173,1.23435 0.51795,0.32011 0.94173,1.00934 0.94173,1.53163 0,1.20348 -3.70794,0.0745 -5.43829,-1.65587 -1.66131,-1.66132 -1.8211,-1.64093 -4.66376,0.5951 -1.31694,1.03591 -3.71456,1.86937 -5.32805,1.85213 l -2.93362,-0.0313 2.22322,-1.85213 z M 429.4233,872.05796 c -1.2509,-2.024 5.33934,-4.05007 11.5517,-3.5514 5.99256,0.48103 6.07794,0.45368 9.61028,-3.07866 3.04762,-3.04763 3.85174,-4.78963 5.54999,-12.02324 1.09229,-4.65258 1.98599,-9.47859 1.98599,-10.72446 0,-1.24587 1.58917,-5.43119 3.53149,-9.30072 2.92743,-5.8321 4.33688,-7.54094 8.24013,-9.99046 2.58976,-1.62523 5.80546,-3.95601 7.14602,-5.17951 4.74846,-4.33385 13.11958,-14.9295 15.99699,-20.24797 l 2.91712,-5.3919 -1.93608,-3.83088 c -1.06486,-2.10698 -3.04834,-5.10221 -4.40773,-6.65606 -1.35941,-1.55385 -3.11973,-4.09652 -3.91185,-5.65038 -0.79212,-1.55385 -2.79863,-4.73822 -4.45892,-7.07638 -3.7018,-5.21319 -7.75789,-13.16361 -9.60201,-18.82117 -0.75974,-2.33078 -1.59614,-4.87345 -1.85867,-5.65038 -0.26251,-0.77693 -0.44136,-1.52299 -0.39744,-1.6579 0.0438,-0.1349 -0.57483,-1.51133 -1.37501,-3.05871 -1.77496,-3.43242 -2.18861,-21.68978 -0.58262,-25.71547 0.58169,-1.45808 1.06289,-2.9413 1.06935,-3.29605 0.007,-0.35474 1.69644,-2.45891 3.75552,-4.67593 4.62637,-4.98122 10.81246,-7.74742 17.26429,-7.72 5.06992,0.0216 12.3631,2.69207 14.1954,5.19789 1.55134,2.12157 7.76913,2.04595 9.95333,-0.12106 2.98159,-2.95809 4.00962,-3.62503 9.75936,-6.3313 10.29688,-4.84654 20.51184,-3.23325 28.46597,4.49571 2.1802,2.11848 7.22816,9.6217 8.48447,12.6112 2.41511,5.74695 2.61942,15.60782 0.44384,21.42255 -1.06035,2.83404 -1.92791,5.77257 -1.92791,6.53007 0,0.7575 -0.66495,2.11888 -1.47768,3.0253 -0.81273,0.90641 -3.67324,5.01512 -6.35668,9.13047 -2.68343,4.11533 -7.59129,10.04823 -10.90633,13.18421 -3.31505,3.13597 -7.5583,7.18499 -9.42944,8.99782 -5.41935,5.25044 -10.34449,8.86142 -13.67858,10.02877 -4.61742,1.61666 -10.5311,5.59773 -12.46923,8.39423 -0.94322,1.36096 -2.4937,3.31879 -3.44552,4.35076 -0.95182,1.03195 -2.3713,3.42831 -3.1544,5.32523 -0.78311,1.89691 -1.97014,4.08461 -2.63784,4.86154 -0.66771,0.77692 -1.50673,2.78987 -1.8645,4.47321 -0.35778,1.68334 -1.04061,3.06062 -1.51741,3.06062 -0.47679,0 -0.8669,1.61036 -0.8669,3.57857 0,1.96822 -0.49704,4.07561 -1.10453,4.6831 -0.82476,0.82477 -0.83839,1.68864 -0.0538,3.41064 0.78431,1.72138 0.7659,2.91992 -0.0726,4.72685 -1.52017,3.27582 -2.82737,3.08086 -2.08248,-0.31057 0.35553,-1.61871 0.11346,-3.53009 -0.58968,-4.65596 -1.00555,-1.61017 -0.92214,-2.20903 0.53137,-3.81515 1.10341,-1.21926 1.52502,-2.66669 1.17104,-4.0203 -0.30422,-1.16332 -0.006,-2.76642 0.6642,-3.56245 1.84426,-2.19272 4.58441,-10.21326 3.87913,-11.35442 -0.34172,-0.55292 -0.10916,-1.62241 0.5168,-2.37663 0.91686,-1.10481 0.84109,-1.37135 -0.38984,-1.37135 -0.84035,0 -1.5279,0.44187 -1.5279,0.98194 0,1.50118 -7.01285,10.66096 -10.12467,13.22425 -1.51839,1.25075 -4.69151,3.612 -7.05138,5.24724 -2.35986,1.63525 -6.05988,5.31649 -8.22225,8.18054 -3.18673,4.22078 -4.16316,6.51221 -5.15376,12.0945 -2.5086,14.13673 -5.44386,21.85288 -10.23247,26.89888 -3.05987,3.22436 -5.18339,3.68086 -9.73743,2.09332 -2.092,-0.72928 -3.77789,-0.61341 -6.85103,0.47086 -4.82,1.70059 -4.52643,1.67046 -5.22722,0.53655 z"
     id="path5242"
     inkscape:connector-curvature="0" />
</svg>
