<?xml version="1.0" encoding="utf-8"?>
<!-- Generator: Adobe Illustrator 19.0.0, SVG Export Plug-In . SVG Version: 6.00 Build 0)  -->
<svg version="1.1" id="Layer_1" xmlns="http://www.w3.org/2000/svg" xmlns:xlink="http://www.w3.org/1999/xlink" x="0px" y="0px"
	 viewBox="0 0 3118.1 6519.7" style="enable-background:new 0 0 3118.1 6519.7;" xml:space="preserve">
<style type="text/css">
	.st0{fill-rule:evenodd;clip-rule:evenodd;}
	.st1{fill-rule:evenodd;clip-rule:evenodd;fill:#FFFFFF;}
	.st2{fill-rule:evenodd;clip-rule:evenodd;fill:none;stroke:#E52420;stroke-width:2.834646e-003;}
	.st3{fill-rule:evenodd;clip-rule:evenodd;fill:none;stroke:#E52420;stroke-width:2.834646e-003;stroke-miterlimit:10;}
	.st4{fill:none;stroke:#E52420;stroke-width:2.834646e-003;}
	.st5{fill:none;stroke:#E52420;stroke-width:2.834646e-003;stroke-miterlimit:10;}
	.st6{fill-rule:evenodd;clip-rule:evenodd;fill:none;}
	.st7{fill:#FFFFFF;}
	.st8{font-family:'CourierStd-Bold';}
	.st9{font-size:14.1732px;}
	.st10{letter-spacing:1;}
	.st11{fill:none;stroke:#FFFFFF;stroke-miterlimit:10;}
</style>
<g>
	<rect x="1495.8" y="3172.7" class="st0" width="134" height="144.7"/>
	<path class="st1" d="M1554.8,3266.7c-0.7,0-1.3,0-2,0c0-0.4,0-0.8-0.1-1.1c-0.1,0-0.1-0.1-0.1-0.1c-0.9,0.1-1.5-0.3-2-0.9
		c-0.6-0.7-1.2-1.3-1.9-1.9c-0.4-0.4-0.6-0.8-0.6-1.4c0-3,0-6,0-9c0-0.5-0.1-0.8-0.5-1c-0.5-0.3-0.9-0.7-1.3-1.1
		c-0.4-0.3-0.5-0.6-0.5-1.1c0-0.6,0-1.2,0-1.8c-4.4,0-8.8,0-13.2,0c0,0.3,0,0.5,0,0.8c0,4.8,0,9.6,0,14.4c0,0.9,0,1.7-0.8,2.2
		c0.2,0.5,0.4,0.9,0.5,1.4c0.2,0.7,0.2,1.3,0.1,2.1c-0.1,0.9,0,1.9-0.1,2.8c-0.1,1.4-0.2,2.9-0.4,4.3c0,0.2-0.1,0.5-0.3,0.6
		c-1,1.5-2.3,2.6-4,3.1c-2.8,0.8-5.5,0.5-7.7-2.3c-2-2.5-2.1-5.3-0.6-8.2c0.1-0.2,0.3-0.5,0.6-0.6c1.6-1.2,3.3-2.3,5-3.2
		c0.5-0.3,1-0.7,1.5-1c1.3-0.8,2.7-0.8,4,0c0.1,0.1,0.2,0.1,0.3,0.2c0.5-0.2,0.6-0.6,0.6-1.1c0-5.2,0-10.4,0-15.6
		c0-1.1,0-1.1,1.1-1.1c4.5,0,8.9,0,13.4,0c0.1,0,0.2,0,0.3,0c0.7,0,0.9,0.2,0.9,0.9c0,0.6,0,1.2,0,1.8c0,0.3,0.1,0.6,0.4,0.8
		c0.5,0.4,1,0.8,1.4,1.2c0.4,0.3,0.5,0.6,0.5,1.1c0,3,0.1,6.1,0.1,9.1c0,0.5,0.1,0.8,0.5,1.1c0.6,0.6,1.3,1.3,1.9,1.9
		c0.3,0.3,0.3,0.3,1,0.3c0-0.4,0-0.7,0.1-1.1c2.4,0,4.8,0,7.2,0c0,1.2,0,2.3,0,3.6c-1.3,0-2.6,0-4,0c0,0.9-0.1,1.7,0,2.5
		c0.1,1-0.2,1.7-1,2.4c-1.1,0.9-2.1,2-3.1,3c-0.2,0.2-0.4,0.4-0.4,0.7c0,1.9,0,3.8,0,5.8c0,0.1,0,0.1,0,0.3c1.1,0.7,2.2,1.3,3.3,2
		c0.2,0.1,0.4,0.1,0.6,0.1c1.3,0,2.5,0,3.8,0c0.2,0,0.4,0,0.6-0.1c0.9-0.5,1.9-1.1,2.8-1.6c0-0.3,0-0.5,0-0.8c0-2.9,0-5.8,0-8.7
		c0-0.5,0.2-0.9,0.6-1.1c0.7-0.3,0.9-0.7,0.8-1.5c0-2.9,0-5.9,0-8.9c0-0.2,0-0.3,0-0.5c0-0.5,0.2-0.6,0.6-0.6c0.2,0,0.4,0,0.6,0
		c5.6,0,11.1,0,16.7,0c0.6,0,0.9-0.2,1.3-0.6c0.7-0.8,1.5-1.5,2.2-2.2c0.5-0.5,0.5-1,0.2-1.6c-0.1-0.1-0.1-0.3-0.1-0.4
		c0-0.7,0-1.4,0-2.1c0.2-0.1,0.3-0.1,0.5-0.2c0-0.4,0-0.8,0-1.4c-0.3,0-0.5,0-0.8,0c-4.8,0-9.5,0-14.3,0c-1,0-1.5-0.5-2-1.1
		c-0.1-0.1-0.1-0.3-0.1-0.4c0-0.2,0-0.3,0-0.5c0-8.1,0-16.1,0-24.2c0-0.1,0-0.2,0-0.4c0-0.6,0.1-0.8,0.8-0.8c0.6,0,1.1,0,1.7,0
		c0.3,0,0.6,0.1,0.8-0.2c0.1-0.1,0.4-0.1,0.6-0.1c2.4,0,4.8,0,7.2,0c0.4,0,0.8-0.1,1.1-0.4c1-1.1,2.1-2.1,3.1-3.1
		c-0.1-0.5-0.2-6.5,0-7.4c1.2,0,2.3,0,3.5,0c0,2.4,0,4.7,0,7.2c-0.3,0-0.5,0-0.8,0c-0.5,0-0.8,0.1-1.1,0.5c-1.3,1.3-2.6,2.6-3.9,3.9
		c-0.4,0.4-0.9,0.6-1.5,0.6c-0.6,0-1.1,0-1.7,0c-0.1,0.2-0.1,0.3-0.2,0.5c-0.1,0-0.2,0-0.3,0c-1.8,0-3.6,0-5.4,0c-0.1,0-0.3,0-0.4,0
		c-0.6-0.5-1.3-0.1-2-0.3c0,0.3,0,0.5,0,0.7c0,7.7,0,15.4,0,23.1c0,0.8,0.3,1.1,1.1,1.1c4.8,0,9.6,0,14.5,0c0.2,0,0.4,0,0.6,0
		c0.7,0,1,0.3,1,1c0,0.3,0,0.5,0,0.8c0,0.3,0,0.5,0,0.8c0.2,0.1,0.4,0.1,0.6,0.2c0,0.8,0,1.7,0,2.5c-0.2,0.1-0.4,0.1-0.7,0.2
		c0,0.3,0,0.6,0,0.9c0,0.5-0.1,0.8-0.5,1.2c-1,1-2,2.1-3,3.1c-0.2,0.2-0.5,0.3-0.8,0.3c-0.4,0.1-0.8,0-1.2,0c-5.1,0-10.3,0-15.4,0
		c-0.3,0-0.6,0-0.9,0c0,0.3,0,0.6,0,0.9c0,2.9,0,5.7,0,8.6c0,0.7-0.2,1.2-0.8,1.5c-0.2,0.1-0.4,0.3-0.6,0.4c0,0.8,0,1.6,0,2.4
		c0,2.3,0,4.7,0,7c0,0.6-0.2,1-0.7,1.3c-0.9,0.5-1.8,1-2.7,1.5c-0.3,0.2-0.7,0.3-1.1,0.3c-1.4,0-2.8,0-4.2,0c-0.4,0-0.8-0.1-1.1-0.3
		c-1.1-0.6-2.2-1.3-3.3-2c-0.5-0.3-0.7-0.6-0.7-1.2c0-2.1,0-4.2,0-6.3c0-0.3,0.1-0.6,0.4-0.8c1.2-1.2,2.4-2.3,3.6-3.5
		c0.3-0.3,0.5-0.7,0.5-1.1C1554.8,3268.6,1554.8,3267.7,1554.8,3266.7z M1529.6,3271.9c0-2.2-1.8-3.9-3.9-3.9
		c-2.1,0-3.9,1.8-3.9,3.9c0,2.2,1.7,3.9,3.9,3.9C1527.9,3275.9,1529.7,3274.1,1529.6,3271.9z"/>
	<path class="st1" d="M1560.2,3251c0,0.5,0,0.9-0.1,1.3c-2.4,0-4.8,0-7.2,0c0-1.2,0-2.4,0-3.6c2.4,0,4.8,0,7.2,0c0,0.3,0,0.6,0.1,1
		c1.7,0,3.3,0,5,0c0-8.2,0-16.3,0-24.5c-0.5,0-1-0.2-1.4,0.2c-0.1,0.1-0.3,0.1-0.5,0.1c-1.7,0-3.5,0-5.2,0c-0.2,0-0.4-0.1-0.7-0.2
		c-0.2,0-0.5-0.1-0.7-0.1c-2.4,0-4.9,0-7.3,0c-0.7,0-1.2-0.2-1.7-0.7c-0.5-0.6-1.2-1.1-1.8-1.7c-0.3-0.3-0.4-0.5-0.4-0.9
		c0-4.5,0-9,0-13.5c0-0.4,0.1-0.7,0.4-0.9c1.7-1.5,3.4-2.9,5.1-4.4c0.2-0.2,0.5-0.2,0.8-0.2c1.9,0,3.8,0,5.7,0c2,0,4,0,6,0
		c0.8,0,1.2-0.4,1.2-1.2c0-0.7,0-1.3,0-2c0,0,0-0.1-0.1-0.2c-0.1,0-0.3-0.1-0.4-0.1c-1.4-0.4-2.3-1.3-2.8-2.7
		c-0.2-0.5-0.5-0.9-0.7-1.3c-1-1.6-1.8-3.4-2.4-5.2c-0.1-0.4-0.1-0.9-0.1-1.3c0.2-2,1.1-3.6,2.7-4.8c2.4-1.9,5.2-2.2,8-0.6
		c2.1,1.2,3.3,3.2,3.7,5.6c0.1,0.6,0,1.2-0.3,1.8c-1,1.7-1.9,3.5-2.8,5.3c-0.2,0.4-0.3,0.8-0.5,1.1c-0.6,1.2-1.5,2-2.9,2.3
		c0,0.2,0,0.4,0,0.6c0,0.6,0,1.2,0,1.9c0,1.4-0.8,2.2-2.2,2.2c-3.7,0-7.4,0-11.1,0c-0.6,0-1.1,0.2-1.6,0.6c-1.3,1.2-2.6,2.3-3.9,3.4
		c-0.3,0.2-0.4,0.4-0.4,0.8c0,4.2,0,8.4,0,12.7c0,0.4,0.1,0.6,0.4,0.9c0.5,0.5,1,1,1.5,1.4c0.1,0.1,0.4,0.2,0.6,0.2
		c2.6,0,5.2,0,7.8,0c0.2,0,0.3-0.1,0.5-0.2c0.2,0,0.3-0.1,0.5-0.1c1.8,0,3.6,0,5.4,0c0.2,0,0.4,0.1,0.6,0.2c0.4,0.2,1.6,0.1,1.9-0.3
		c1.2-1.2,2.4-2.4,3.6-3.6c0.3-0.3,0.4-0.6,0.4-1c0-1.8,0-3.7,0-5.5c0-0.3,0-0.5,0-0.8c1.2,0,2.4,0,3.6,0c0,2.4,0,4.7,0,7.2
		c-0.5,0-1,0-1.5,0c-0.4,0-0.7,0.1-1,0.4c-1.3,1.4-2.7,2.7-4.1,4.1c-0.3,0.3-0.4,0.5-0.4,0.9c0,8.3,0,16.6,0,24.8
		c0,0.4,0.1,0.6,0.4,0.9c0.6,0.5,1.1,1.1,1.7,1.7c0.3,0.3,0.6,0.4,0.9,0.4c0.8,0,1.6,0,2.4,0c0.2,0,0.5,0,0.8,0c0,0.7,0,1.4,0,2.1
		c2.6,0,5.1,0,7.7,0c0-0.5,0-1.1,0-1.6c0.8,0,1.6,0,2.4,0c0,1.5,0,3,0,4.6c-0.8,0-1.5,0-2.3,0c0-0.6,0-1.1,0-1.6
		c-0.2,0-0.4-0.1-0.5-0.1c-2.2,0-4.4,0-6.6,0c-0.2,0-0.5-0.1-0.6,0.2c0,0.1-0.2,0.1-0.3,0.1c-1.7,0-3.4,0-5.1,0
		c-0.1-0.2-0.1-0.4-0.1-0.6c-1.4,0-2.7,0-4.1,0c0,0.3,0,0.5,0,0.8c0,3.5,0,7,0,10.5c0,0.7-0.2,1.3-0.7,1.8c-1.1,1.1-2.2,2.2-3.3,3.2
		c-0.5,0.5-0.7,1-0.5,1.6c0.1,0,0.2,0.1,0.2,0.1c1.7,0.5,2.7,1.7,2.9,3.4c0.1,0.4,0.1,0.8,0,1.2c0,0.5-0.2,0.6-0.6,0.4
		c-0.1,0-0.2-0.1-0.3-0.1c-0.4,1.6-1.4,2.6-3.2,2.6c-1.4-0.1-2.2-1-2.7-2.6c-0.3,0.1-0.6,0.2-0.9,0.3c-0.4-2.4,0-4.3,3.2-5.4
		c0-0.3,0-0.6,0-0.8c-0.1-0.5,0.2-0.9,0.5-1.3c1.2-1.2,2.3-2.3,3.5-3.5c0.3-0.3,0.5-0.7,0.5-1.1c0-3.7,0-7.4,0-11.2
		c0-0.2,0-0.3,0-0.5c0-0.5,0.2-0.7,0.7-0.7c0.8,0,1.7,0,2.5,0c0.7,0,1.4,0,2.3,0c0-0.6,0-1.1,0-1.7c0-0.2-0.2-0.4-0.3-0.5
		c-0.5-0.5-1-1.1-1.6-1.7C1563.5,3251,1561.9,3251,1560.2,3251z M1569.2,3189.9c0-2.2-1.7-4-3.9-4c-2.2,0-4,1.7-4,3.9
		c0,2.2,1.7,4,3.9,4C1567.4,3193.7,1569.2,3192,1569.2,3189.9z M1557.6,3280c0.8,0,1.4-0.7,1.4-1.4c0-0.7-0.7-1.4-1.4-1.4
		c-0.8,0-1.4,0.6-1.4,1.4C1556.1,3279.4,1556.8,3280,1557.6,3280z"/>
	<path class="st1" d="M1577.1,3205.4c0.4-1.3,0.9-2.6,1.3-3.8c-0.3-0.5-0.7-1-0.9-1.4c-0.2-0.3-0.3-0.7-0.3-1c0-1.2-0.3-2.3-0.5-3.4
		c-0.2-1.5-0.4-3.1-0.3-4.6c0-0.4,0.1-0.8,0.3-1.2c1.1-2.1,2.7-3.5,5-4c2.7-0.6,5,0.2,6.8,2.3c1.3,1.5,1.8,3.3,1.8,5.3
		c0,0.7-0.2,1.5-0.5,2.2c-0.1,0.4-0.5,0.7-0.9,1c-1.4,1.3-2.9,2.6-4.3,3.9c-0.4,0.3-0.7,0.8-1.1,1.1c-1,0.7-2.1,1-3.3,0.6
		c-0.2-0.1-0.4-0.1-0.6-0.1c-0.1,0.1-0.2,0.3-0.2,0.4c-0.4,1.1-0.7,2.1-1,3.2c-0.3,0.9-0.3,0.9-1.2,0.9c-6,0-12,0-18.1,0
		c-1.3,0-2.6,0-3.9,0c-0.3,0-0.5,0-0.8,0c0,4.8,0,9.6,0,14.5c0.2,0,0.4,0,0.6,0c1.6,0,3.1,0,4.7,0c0.3,0,0.6,0,0.9-0.3
		c0.6-0.5,1.2-1,1.8-1.5c0.3-0.2,0.4-0.5,0.4-0.8c0-1.7,0-3.4,0-5.1c0-0.3,0-0.5,0-0.8c0.4,0,0.7-0.1,1.2-0.1c0-0.5,0-1,0-1.4
		c0-0.7,0.1-0.8,0.8-0.8c0.2,0,0.4,0,0.6,0c7.9,0,15.9,0,23.8,0c0.4,0,0.8-0.2,1.2,0.2c0.4,0.5,0.8,1,0.8,1.7c0,1.1,0,2.2,0,3.2
		c0,1.5,0,3,0,4.5c0,0.6-0.2,1-0.6,1.4c-2.8,2.4-5.5,4.7-8.3,7.1c-0.3,0.3-0.6,0.4-1,0.4c-0.4,0-0.8,0-1.2,0c-0.4,0-0.9-0.1-1.2,0.2
		c-0.1,0.1-0.2,0-0.4,0c-1.8,0-3.6,0-5.4,0c-0.1,0-0.2,0-0.4,0c0-0.6,0-1.1,0-1.7c0.1,0,0.2,0,0.4,0c1.8,0,3.6,0,5.5,0
		c0.2,0,0.4-0.1,0.5,0.2c0,0,0.1,0.1,0.1,0.1c0.9,0,1.9,0.4,2.7-0.3c2.6-2.2,5.2-4.4,7.7-6.6c0.3-0.2,0.4-0.5,0.4-0.9
		c0-2.4,0-4.8,0-7.3c0-0.8-0.1-0.9-0.9-0.9c-7.6,0-15.3,0-22.9,0c-0.2,0-0.4,0-0.7,0c0,0.4,0,0.7,0,1c0.4,0,0.7,0.1,1,0.1
		c0.1,0.5,0.2,6.3,0,7.2c-0.6,0-1.3,0-1.9,0c-0.5,0-0.9,0.1-1.2,0.5c-0.7,0.6-1.4,1.1-2,1.7c-0.3,0.3-0.7,0.4-1.1,0.4c-2,0-4,0-6,0
		c-0.7,0-1-0.2-1-1c0-5,0-10,0-15c0-0.8,0.1-0.9,0.9-0.9c7.4,0,14.9,0,22.3,0C1576.5,3205.4,1576.8,3205.4,1577.1,3205.4z
		 M1582.9,3189.3c-2.1,0-3.9,1.8-3.9,4c0,2.2,1.8,3.9,3.9,3.9c2.1,0,3.9-1.8,3.9-3.9C1586.9,3191.1,1585.1,3189.3,1582.9,3189.3z"/>
	<path class="st1" d="M1572.3,3232.5c0-0.6,0-1.1,0-1.7c0.3,0,0.5,0,0.7,0c1.4,0,2.9,0,4.3,0c0.5,0,1,0,1.5,0.2
		c0.7,0.2,1.4,0.1,2.1,0c0.2,0,0.3-0.2,0.5-0.3c3.4-2.9,6.8-5.8,10.2-8.7c0.3-0.2,0.4-0.4,0.4-0.8c0-3.9,0-7.8-0.1-11.7
		c0-0.1,0-0.2,0-0.4c-11.3,0-22.7,0-34.1,0c0,1.1,0,2.2,0,3.4c0.4,0,0.8,0.1,1.2,0.1c0,2.4,0,4.8,0,7.2c-1.2,0-2.3,0-3.6,0
		c0-2.4,0-4.8,0-7.2c0.4,0,0.7-0.1,1.1-0.1c0-0.3,0-0.5,0-0.7c0-1.1,0-2.1,0-3.2c0-0.6,0.2-0.7,0.7-0.7c0.2,0,0.4,0,0.6,0
		c11,0,22.1,0,33.1,0c0.3,0,0.6,0,0.9,0c0-0.7,0.7-1,1-1.5c-0.7-0.9-0.9-1.9-0.8-3c0.1-1,0.1-2,0.1-2.9c0-1.6,0.2-3.2,0.5-4.7
		c0.1-0.5,0.4-0.9,0.7-1.3c1.4-1.7,3.2-2.7,5.5-2.8c0.6,0,1.3,0,1.9,0.1c3.5,0.8,5.9,4.3,5.4,8.1c-0.1,0.4-0.2,0.8-0.3,1.2
		c-0.3,1.1-0.9,1.9-1.9,2.5c-1.5,1-3,1.9-4.6,2.8c-0.2,0.1-0.4,0.2-0.6,0.4c-1.1,1-3.1,1.4-4.6,0.6c-0.1,0-0.2-0.1-0.2-0.1
		c-0.6,0.3-0.8,0.8-0.8,1.5c0,3.5,0,7.1,0,10.6c0,0.7,0,1.3,0.1,2c0,0.6-0.2,1-0.6,1.4c-3.3,2.8-6.6,5.6-9.9,8.5
		c-0.8,0.7-1.6,1.1-2.6,1c-0.3,0-0.6,0-0.9,0c-0.2,0-0.5-0.1-0.7,0.3c0,0.1-0.3,0.1-0.4,0.1c-1.9,0-3.8,0-5.7,0
		C1572.4,3232.6,1572.4,3232.6,1572.3,3232.5z M1598.8,3203c2.1,0,3.9-1.8,3.9-3.9c0-2.2-1.9-3.9-3.9-3.9c-2,0-3.9,1.7-4,3.9
		C1594.9,3201.2,1596.7,3203,1598.8,3203z"/>
	<path class="st1" d="M1524.8,3253.2c1.1-1.1,2.3-2.3,3.4-3.5c0.2-0.2,0.2-0.5,0.2-0.7c0-1.5,0-3,0-4.5c0-0.8,0.1-0.9,0.9-1
		c0.2,0,0.4,0,0.6,0c6.8,0,13.6,0,20.4,0c0.2,0,0.3,0,0.5,0c0.5,0,0.6,0.1,0.7,0.6c0.1,0.4,0.1,0.8,0.2,1.3c0.1,0,0.3,0,0.5,0
		c1.4,0,2.8,0,4.2,0c0.4,0,0.8,0.1,1.1-0.2c0-0.1,0.2,0,0.3,0c2,0,3.9,0,6,0c0,0.6,0,1.2,0,1.8c-0.2,0-0.4,0-0.6,0c-1.7,0-3.4,0-5,0
		c-0.2,0-0.5-0.1-0.7-0.2c-0.1,0-0.3-0.1-0.4-0.1c-1.7,0-3.4,0-5.1,0c0,0.2-0.1,0.3-0.1,0.5c0,2.1,0,4.2,0,6.3
		c0,0.3,0.1,0.6,0.3,0.8c0.4,0.4,0.8,0.8,1.2,1.1c0.3,0.3,0.5,0.3,0.9,0.3c1.7,0,3.5,0,5.2,0c0.2,0,0.4,0,0.7,0c0,1.2,0,2.4,0,3.5
		c-0.5,0.2-6.5,0.2-7.2,0c0-0.7,0-1.5,0-2.2c0-0.3-0.1-0.6-0.4-0.8c-0.6-0.5-1.1-1.1-1.7-1.6c-0.2-0.2-0.2-0.5-0.2-0.8
		c0-2.7,0-5.4,0-8.1c0-0.2,0-0.3,0-0.5c0-0.5-0.1-0.5-0.6-0.6c-0.1,0-0.2,0-0.4,0c-6.4,0-12.7,0-19.1,0c-0.2,0-0.5,0-0.8,0
		c0,0.3,0,0.5,0,0.7c0,1.3,0,2.5,0,3.8c0,0.5-0.2,1-0.6,1.3c-1.2,1.2-2.4,2.4-3.6,3.6c-0.3,0.2-0.4,0.5-0.4,0.9c0,1-0.5,1.8-1.1,2.6
		c-0.3,0.4-0.6,0.9-0.9,1.4c-0.9,1.7-2,3.2-3.2,4.7c-0.1,0.1-0.2,0.2-0.3,0.2c-1.2,0.6-2.5,1-3.8,1c-2.8-0.1-5.5-1.9-6.4-4.4
		c-1-2.6-0.7-5.1,1.2-7.3c0.5-0.6,1-1.1,1.7-1.6c0.6-0.4,1.2-0.4,1.9-0.4c1.7-0.1,3.4-0.1,5.1-0.2c0.7,0,1.3-0.1,2-0.1
		c1.5,0,2.6,0.7,3.4,1.9C1524.6,3253,1524.7,3253.1,1524.8,3253.2C1524.8,3253.2,1524.8,3253.2,1524.8,3253.2z M1512.5,3257.8
		c0,2.2,1.8,3.9,3.9,3.9c2.1,0,3.9-1.8,3.9-3.9c0-2.2-1.7-4-3.9-4C1514.2,3253.8,1512.5,3255.6,1512.5,3257.8z"/>
	<path class="st1" d="M1572.3,3243.3c0-0.6,0-1.1,0-1.7c0.2,0,0.4,0,0.7,0c1.5,0,3,0,4.5,0c0.5,0,1-0.2,1.3,0.3
		c0.8-0.1,1.7,0.3,2.5-0.5c1.2-1.1,2.6-2.2,3.8-3.2c0.3-0.3,0.6-0.4,1-0.4c3.7,0,7.4,0,11.2,0c0.4,0,0.7,0.1,1,0.4
		c1.1,1.2,2.3,2.3,3.5,3.5c0.4,0.5,0.7,1,0.7,1.7c-0.1,3.4-0.1,6.8-0.2,10.2c0,1.2-0.1,2.5-0.1,3.7c0,0.4-0.1,0.8-0.5,1.1
		c-1.3,1.2-2.6,2.5-3.9,3.8c-2.3,2.2-4.5,4.4-6.8,6.6c-1.4,1.4-2.9,2.8-4.3,4.2c-0.8,0.7-1.5,1.5-2.3,2.2c-0.5,0.5-1.2,0.8-1.9,0.8
		c-1,0-1.9,0-2.9,0c0,0.3,0,0.5,0,0.8c0,1.7,0,3.4,0,5.1c0,0.6-0.2,1-0.6,1.5c-2.6,2.6-5.2,5.1-7.7,7.7c-0.4,0.4-0.8,0.6-1.3,0.6
		c-2.1,0-4.2,0-6.3,0.1c-3.1,0-6.3,0.1-9.4,0.1c-0.4,0-0.8-0.1-1.2-0.3c-3.4-1.8-6.9-3.6-10.3-5.4c-2.5-1.3-5-2.7-7.6-4
		c-0.7-0.3-0.9-0.8-0.9-1.5c0-3.2,0-6.4,0-9.6c0-4.2,0-8.3,0-12.5c0-0.2,0-0.3,0-0.5c0-0.7,0.2-0.8,0.8-0.9c0.6,0,1.2,0,1.8,0
		c0.2,0,0.5,0,0.8,0c0-0.4,0.1-0.8,0.1-1.2c2.4,0,4.8,0,7.2,0c0,1.2,0,2.4,0,3.5c-0.5,0.1-6,0.2-7.2,0.1c0-0.3,0-0.7-0.1-1.1
		c-0.7,0-1.4,0-2.2,0c0,7.5,0.1,15,0.1,22.5c0.8,0.4,1.6,0.9,2.4,1.3c4.2,2.2,8.5,4.4,12.7,6.6c0.9,0.5,1.8,1,2.7,1.4
		c0.3,0.2,0.7,0.3,1.1,0.3c2.5,0,4.9,0,7.4-0.1c1.1,0,2.3,0,3.4-0.1c1.5,0,3.1-0.1,4.6-0.1c0.3,0,0.5-0.1,0.7-0.3
		c2.5-2.5,5-5.1,7.6-7.6c0.3-0.3,0.3-0.5,0.3-0.9c0-2,0-3.9,0-5.9c0-0.8,0.1-0.9,0.9-0.9c1,0,2,0,3,0c0.6,0,1.2-0.2,1.6-0.7
		c2-1.9,3.9-3.8,5.9-5.7c2.3-2.2,4.5-4.4,6.8-6.6c1.3-1.3,2.6-2.5,3.9-3.7c0.5-0.5,0.7-1,0.7-1.6c0-1.9,0-3.8,0-5.7
		c0-2.4,0.1-4.7,0.1-7.1c0-0.5-0.1-0.9-0.5-1.2c-1-1-2-1.9-3-3c-0.3-0.3-0.6-0.4-1-0.4c-3.4,0-6.7,0-10.1,0c-0.4,0-0.7,0.1-1,0.4
		c-1.3,1.1-2.6,2.2-3.9,3.3c-0.4,0.4-0.8,0.5-1.4,0.5c-0.4,0-0.7,0-1.1,0c-0.2,0-0.4,0.1-0.7,0.2c-0.1,0-0.3,0.1-0.4,0.1
		c-1.9,0-3.7,0-5.6,0C1572.5,3243.4,1572.4,3243.3,1572.3,3243.3z"/>
	<path class="st1" d="M1572.3,3246.9c0-0.6,0-1.1,0-1.7c0.1,0,0.3,0,0.4,0c1.8,0,3.6,0,5.5,0c0.2,0,0.3,0.1,0.5,0.2
		c0.1,0,0.3,0.1,0.4,0.1c1.3,0,2.6,0,4,0c0-0.7,0-1.4,0-2.2c0.5,0,0.9,0,1.4,0c0.3,0,0.5-0.1,0.8-0.3c0.7-0.7,1.5-1.5,2.2-2.2
		c0.3-0.3,0.6-0.5,1.1-0.4c2.5,0,5.1,0,7.6,0c0.4,0,0.7,0.1,1,0.4c0.6,0.6,1.2,1.3,1.9,1.9c0.5,0.4,0.6,0.9,0.6,1.5
		c0,1.4,0,2.7,0,4.1c0,2.6,0,5.2,0,7.8c0,0.6-0.2,1.1-0.6,1.5c-1.6,1.4-3.1,2.8-4.7,4.3c-1.3,1.2-2.6,2.4-3.9,3.6
		c-1.6,1.4-3.1,2.9-4.7,4.3c-1,0.9-2,1.8-3,2.7c-0.5,0.5-1,0.7-1.6,0.6c-1.2,0-2.3,0-3.5,0c-0.2,0-0.5,0-0.8,0c0,0.3,0,0.6,0,0.8
		c0,2.2,0,4.4,0,6.6c0,0.7-0.2,1.2-0.7,1.7c-1.9,1.8-3.7,3.6-5.5,5.4c-0.5,0.5-1.1,0.8-1.8,0.8c-4.2,0-8.5,0-12.7,0.1
		c-1,0-1.9-0.2-2.7-0.8c-2.3-1.6-4.7-3.1-7.1-4.6c-0.4-0.3-0.5-0.6-0.5-1.1c0-9.2,0-18.4,0-27.6c0-0.4,0.1-0.8-0.2-1.1
		c-0.5-0.4-0.9-1-1.8-0.9c-1.9,0.1-3.7,0-5.6,0c-0.3,0-0.5,0-0.8,0c0-1.2,0-2.4,0-3.6c0.5-0.1,6.3-0.2,7.2,0c0,0.5,0,1,0,1.5
		c0,0.3,0.1,0.6,0.4,0.8c0.6,0.5,1.1,1,1.7,1.5c0.3,0.2,0.4,0.5,0.4,0.9c0,0.2,0,0.4,0,0.6c0,9.1,0,18.1,0,27.2
		c0,0.5,0.2,0.9,0.6,1.2c2.3,1.5,4.6,3,6.9,4.5c0.3,0.2,0.6,0.3,0.9,0.3c2.1,0,4.1,0,6.2,0c2.4,0,4.8-0.1,7.2-0.1
		c0.4,0,0.7-0.1,1-0.4c1.8-1.8,3.7-3.7,5.5-5.5c0.3-0.3,0.4-0.5,0.4-0.9c0-2.4,0-4.8,0-7.3c0-0.2,0-0.3,0-0.5c0-0.6,0.2-0.7,0.7-0.7
		c1.5,0,3,0,4.5,0c0.4,0,0.8-0.1,1.1-0.4c2.4-2.2,4.8-4.4,7.3-6.6c1.9-1.7,3.7-3.4,5.5-5.1c1-0.9,1.9-1.7,2.9-2.6
		c0.4-0.4,0.6-0.8,0.6-1.4c0-3.8,0-7.5,0-11.3c0-0.5-0.1-0.8-0.5-1.1c-0.5-0.4-1-0.9-1.4-1.4c-0.2-0.2-0.4-0.3-0.7-0.3
		c-2.3,0-4.7,0-7,0c-0.2,0-0.5,0.1-0.6,0.2c-0.4,0.4-1,0.8-1.2,1.3c-0.2,0.5-0.1,1.2-0.1,1.8c0,1.1,0,2.1,0,3.2c0,0.2,0,0.5,0,0.8
		c-1.2,0-2.4,0-3.7,0c0-0.7,0-1.4,0-2.1c-0.5,0-0.9,0-1.3,0c-0.8,0-1.5,0-2.3,0c-0.3,0-0.7-0.1-1,0.2c-0.1,0.1-0.2,0.1-0.3,0.1
		c-1.9,0-3.8,0-5.7,0C1572.4,3247,1572.4,3247,1572.3,3246.9z"/>
	<path class="st1" d="M1548.3,3199.9c-0.6-0.4-1.2-0.7-1.8-1c-1.6-0.9-3.1-2-4.5-3.1c-0.1-0.1-0.2-0.2-0.3-0.3c-0.5-1-1-2.1-1-3.3
		c-0.1-1.5,0.2-2.8,0.9-4.1c1.3-2.2,3.1-3.4,5.7-3.5c1.4,0,2.8,0.2,4,0.9c1.2,0.6,2.1,1.6,2.8,2.8c0.1,0.2,0.2,0.5,0.2,0.7
		c0.2,2.2,0.4,4.3,0.3,6.5c0,0.6,0.1,1.3,0.1,1.9c-0.2,1.7-2.3,3.8-4.6,3.3c-0.4-0.1-0.7,0-1,0.3c-1.7,1.7-3.4,3.4-5.1,5.1
		c-0.3,0.3-0.4,0.6-0.4,1c0,5.1,0,10.3,0,15.4c0,0.4,0.1,0.7,0.4,0.9c1.2,1.2,2.5,2.4,3.7,3.7c0.3,0.3,0.5,0.4,0.9,0.4
		c2.8,0,5.6,0,8.3,0c0.2,0,0.5,0.1,0.6-0.2c0.1-0.1,0.3-0.1,0.4-0.1c1.9,0,3.8,0,5.7,0c0.1,0,0.1,0,0.2,0.1c0,0.5,0,1.1,0,1.7
		c-0.2,0-0.4,0.1-0.6,0.1c-1.7,0-3.4,0-5.1,0c-0.3,0-0.5,0-0.7-0.2c-0.1-0.1-0.5-0.1-0.7-0.1c-2.8,0-5.5,0-8.3,0
		c-0.7,0-1.2-0.2-1.6-0.7c-1.2-1.3-2.5-2.6-3.9-3.9c-0.4-0.4-0.6-0.8-0.6-1.4c0-5.3,0-10.7,0-16c0-0.5,0.2-0.9,0.5-1.3
		c1.7-1.6,3.3-3.3,4.9-4.9C1547.9,3200.4,1548.1,3200.2,1548.3,3199.9z M1548,3195.9c2.1,0,4-1.8,3.9-3.9c0-2.2-1.9-3.9-3.9-3.9
		c-2,0-3.9,1.7-4,3.9C1544,3194.1,1545.8,3195.9,1548,3195.9z"/>
	<path class="st1" d="M1526.8,3218.7c-0.3,0.1-0.5,0.3-0.8,0.4c-0.7,0.3-1.5,0.4-2.3,0.2c-1.7-0.4-3.3-0.7-5-1.1
		c-1-0.2-1.9-0.5-2.9-0.9c-0.4-0.2-0.8-0.5-1.1-0.9c-1.8-2.1-2.4-4.5-1.6-7.1c0.6-2,1.9-3.4,3.8-4.2c2.8-1.1,5.4-0.8,7.7,1.1
		c0.2,0.1,0.3,0.4,0.4,0.6c0.9,1.8,1.7,3.7,2.3,5.6c0.1,0.3,0.2,0.6,0.4,0.9c0.9,1.3,0.8,2.6,0.1,4c-0.1,0.1-0.1,0.3-0.2,0.5
		c0.2,0.2,0.3,0.3,0.5,0.5c5.2,5.2,10.4,10.4,15.6,15.6c0.4,0.4,0.7,0.5,1.2,0.5c6,0,11.9,0,17.9,0c0.3,0,0.6,0,0.9,0
		c0,0.6,0,1.2,0,1.8c-2.1,0-4.2,0-6.3,0c-0.1-0.2-0.1-0.4-0.2-0.6c-0.2,0-0.3,0-0.5,0c-4,0-7.9,0-11.9,0c-0.8,0-1.4-0.2-2-0.8
		c-5.2-5.2-10.3-10.4-15.5-15.5c-0.2-0.2-0.3-0.5-0.5-0.7C1526.9,3218.6,1526.9,3218.7,1526.8,3218.7z M1524.2,3211.8
		c0-2.2-1.8-3.9-3.9-3.9c-2.1,0-3.9,1.8-3.9,4c0,2.1,1.8,3.9,3.9,3.9C1522.4,3215.7,1524.2,3214,1524.2,3211.8z"/>
	<path class="st1" d="M1563.9,3230.9c0,0.5,0,1.1,0,1.6c-0.2,0-0.4,0.1-0.6,0.1c-1.7,0-3.4,0.2-5.1,0c-1.9-0.2-3.8-0.1-5.6-0.2
		c-1.9,0-3.7,0-5.6,0c-0.5,0-0.9-0.2-1.2-0.5c-2.5-2.5-4.9-4.9-7.4-7.4c-0.4-0.3-0.5-0.7-0.5-1.2c0-4.6,0-9.2,0-13.7
		c0-0.7-0.1-1.3-0.7-1.7c-0.1-0.1-0.2-0.2-0.3-0.3c-0.3,0.1-0.5,0.3-0.8,0.3c-1.5,0.4-2.8,0.2-4-0.8c-0.5-0.4-1-0.6-1.5-0.9
		c-1.6-0.9-3.1-2-4.6-3.2c-0.1-0.1-0.2-0.2-0.3-0.3c-0.5-0.9-0.9-1.8-1-2.8c-0.1-1.6,0.1-3.1,0.9-4.4c1.3-2.2,3.1-3.4,5.7-3.5
		c1.6-0.1,3,0.3,4.4,1.1c1.1,0.6,1.9,1.6,2.5,2.7c0.1,0.2,0.1,0.4,0.1,0.6c0.2,2.2,0.4,4.3,0.3,6.5c0,0.5,0.1,1,0.1,1.4
		c-0.1,1.2-0.2,1.3-0.9,2.5c0.1,0.1,0.1,0.1,0.2,0.2c1.4,1.4,1.1,0.7,1.1,2.7c0,4.4,0,8.7,0,13.1c0,0.5,0.1,0.8,0.5,1.1
		c2.3,2.3,4.6,4.5,6.8,6.8c0.3,0.3,0.6,0.5,1.1,0.5c3.1,0,6.2,0,9.3,0c0.3,0,0.6,0.2,0.8-0.3c0-0.1,0.2-0.1,0.3-0.1c2,0,3.9,0,5.9,0
		C1563.7,3230.8,1563.8,3230.8,1563.9,3230.9z M1531.8,3203.1c2.2,0,4-1.7,4-3.9c0-2.2-1.9-4-3.9-4c-2,0-3.9,1.7-4,3.9
		C1527.9,3201.3,1529.7,3203.1,1531.8,3203.1z"/>
	<path class="st1" d="M1563.8,3241.6c0,0.6,0,1.2,0,1.8c-0.3,0-0.5,0-0.8,0c-1.6,0-3.1,0-4.7,0c-0.3,0-0.8,0.2-1-0.3
		c0-0.1-0.3,0-0.5-0.1c-0.8,0-1.6,0-2.4,0c-0.5,0-1-0.1-1.3-0.5c-0.5-0.7-1.2-0.9-2.1-0.9c-7.7,0-15.3,0-23,0
		c-0.6,0-1.1,0.1-1.5,0.6c-0.4,0.5-1,0.7-1.6,0.7c-0.9,0-1.8,0-2.6,0c-0.3,0.7-0.6,1.4-0.9,1.9c-0.4,0.6-1,1-1.6,1.4
		c-0.7,0.3-1.4,0.7-2.1,1.1c-1.6,0.8-3.2,1.6-4.8,2.3c-0.4,0.2-0.9,0.1-1.3,0.1c-2.7-0.4-4.6-1.8-5.8-4.2c-0.8-1.7-0.8-3.4-0.3-5.1
		c1-3,3.8-5,7-5c0.3,0,0.5,0.1,0.8,0.2c1.9,0.8,3.7,1.8,5.5,2.9c0.2,0.1,0.5,0.3,0.7,0.3c1.3,0.4,2.2,1.3,2.6,2.6
		c0,0.1,0.1,0.2,0.1,0.3c1,0,2,0,3,0c0.2,0,0.4-0.1,0.5-0.3c0.6-0.9,1.5-1,2.5-1c7.9,0,15.9,0,23.8,0c0.6,0,1,0.2,1.5,0.6
		c1,1,0.5,0.8,1.9,0.8c0.4,0,0.7,0,1.1,0c0.4,0,0.8,0.1,1.1-0.2c0.1-0.1,0.2,0,0.3,0C1559.8,3241.6,1561.8,3241.6,1563.8,3241.6z
		 M1516.5,3242.6c0-2.2-1.8-3.9-3.9-3.9c-2.2,0-3.9,1.8-3.9,4c0,2.1,1.8,3.9,3.9,3.9C1514.8,3246.6,1516.5,3244.8,1516.5,3242.6z"/>
	<path class="st1" d="M1563.8,3238.1c0,0.6,0,1.1,0,1.7c-0.2,0-0.4,0.1-0.6,0.1c-1.7,0-3.4,0-5.1,0c-0.3,0-0.6,0.1-0.7-0.3
		c0-0.1-0.2-0.1-0.4-0.1c-0.4,0-0.8,0-1.2,0c-0.5,0-1-0.1-1.3-0.5c-0.5-0.8-1.3-0.9-2.1-0.9c-4.5,0-9,0-13.5,0
		c-0.7,0-1.2-0.2-1.7-0.7c-1.4-1.4-2.8-2.8-4.2-4.2c-2-1.9-3.9-3.9-5.9-5.8c-0.3-0.3-0.5-0.4-0.9-0.4c-0.8,0-1.6,0-2.5,0
		c-0.2,0.7-0.5,1.5-1,2c-0.3,0.3-0.7,0.6-1.1,0.9c-0.7,0.4-1.5,0.8-2.2,1.2c-1.5,0.7-3,1.4-4.4,2.2c-0.5,0.3-1.1,0.3-1.7,0.3
		c-1.8-0.2-3.4-1-4.7-2.4c-0.9-1-1.6-2.2-1.8-3.5c-0.2-0.9-0.2-1.9,0.1-2.8c0.5-1.7,1.4-3.1,2.8-4.1c1.3-0.9,2.8-1.5,4.5-1.4
		c0.2,0,0.5,0.1,0.7,0.2c1.9,0.8,3.7,1.8,5.5,2.9c0.2,0.1,0.4,0.2,0.6,0.3c1.5,0.6,2.4,1.6,2.8,3.2c0.5,0,1,0,1.5,0
		c0.6,0,1.4-0.1,1.9,0.1c0.6,0.2,1,0.8,1.4,1.3c3.1,3.1,6.2,6.2,9.3,9.3c0.3,0.3,0.6,0.4,1.1,0.4c4.8,0,9.5,0,14.3,0
		c0.6,0,1.1,0.1,1.5,0.6c0.7,1,1.6,0.8,2.6,0.7c0.2,0,0.3-0.1,0.5-0.1c1.9,0,3.8,0,5.7,0C1563.6,3238,1563.7,3238,1563.8,3238.1z
		 M1514.2,3230.2c2.2,0,4-1.7,4-3.9c0-2.2-1.9-4-3.9-4c-2,0-3.9,1.6-4,3.9C1510.3,3228.4,1512.1,3230.2,1514.2,3230.2z"/>
	<path class="st1" d="M1597.6,3220.6c-0.1-0.1-0.1-0.2-0.2-0.3c-0.6-1.3-0.4-2.6,0.2-3.9c0.3-0.6,0.5-1.3,0.8-1.9
		c0.6-1.7,1.3-3.2,2.2-4.7c0.2-0.3,0.4-0.5,0.6-0.7c2.2-1.5,4.6-1.9,7-0.9c2.4,0.9,3.8,2.8,4.3,5.3c0.4,2.4-0.3,4.5-1.9,6.4
		c-0.4,0.5-1,0.9-1.7,1.1c-1.9,0.4-3.7,0.9-5.6,1.1c-0.2,0-0.4,0.1-0.6,0.2c-1.4,0.7-2.7,0.4-4-0.4c-0.1-0.1-0.2-0.1-0.4-0.2
		c-1,0.8-1.9,1.6-2.9,2.4c-4.5,3.8-9.1,7.5-13.6,11.3c-0.5,0.4-1.1,0.7-1.8,0.6c-0.4,0-0.9-0.1-1.2,0c-1.1,0.5-2.2,0.2-3.2,0.2
		c-1.1,0.1-2.2,0-3.4,0c0-0.6,0-1.2,0-1.8c0.2,0,0.5,0,0.7,0c1.5,0,2.9,0,4.4,0c0.5,0,1-0.2,1.4,0.3c0.9,0,1.7,0.2,2.6-0.5
		c4.8-4.1,9.7-8.1,14.6-12.2C1596.5,3221.5,1597,3221.1,1597.6,3220.6z M1609.3,3215.1c0-2.2-1.7-3.9-3.9-3.9
		c-2.1,0-3.9,1.7-3.9,3.9c0,2.2,1.7,4,3.9,4C1607.5,3219,1609.3,3217.3,1609.3,3215.1z"/>
	<path class="st1" d="M1596.6,3231.8c0.5-1.4,1.4-2.2,2.8-2.7c0.6-0.2,1.1-0.6,1.6-0.9c1.5-0.9,3.1-1.6,4.7-2.3
		c0.4-0.2,1-0.2,1.4-0.1c3.3,0.4,5.9,2.8,6.5,6.2c0.2,1.6-0.2,3-0.9,4.4c-1.2,2.1-3.1,3.3-5.5,3.7c-0.7,0.1-1.4,0-2-0.3
		c-1.7-0.9-3.4-1.8-5.1-2.7c-0.3-0.1-0.5-0.3-0.8-0.4c-1.6-0.6-2.5-1.8-2.6-3.6c-0.2,0-0.4-0.1-0.7-0.1c-2.1,0-4.2,0-6.3,0
		c-0.5,0-0.8,0.2-1.2,0.4c-2.2,1.9-4.5,3.8-6.7,5.7c-0.3,0.3-0.6,0.4-1,0.4c-0.4,0-0.9,0-1.3,0c-0.3,0-0.7-0.1-0.9,0.2
		c-0.1,0.1-0.2,0.1-0.3,0.1c-1.9,0-3.8,0-5.7,0c0,0-0.1,0-0.2-0.1c0-0.5,0-1.1,0-1.7c0.2,0,0.5,0,0.7,0c1.5,0,2.9,0,4.4,0
		c0.5,0,1-0.2,1.4,0.3c0.7,0,1.4,0,2.1,0c0.2,0,0.3-0.2,0.5-0.3c2.2-1.9,4.4-3.7,6.6-5.6c0.4-0.4,0.8-0.5,1.4-0.5c2.2,0,4.4,0,6.5,0
		C1596.1,3231.8,1596.3,3231.8,1596.6,3231.8z M1610,3233c0-2.2-1.8-3.9-4-3.9c-2.1,0-3.9,1.8-3.9,4c0,2.1,1.8,3.9,3.9,3.9
		C1608.2,3236.9,1610,3235.1,1610,3233z"/>
	<path class="st1" d="M1580.2,3264.9c-2.6,0-5.1,0-7.6,0c0,0.4,0,0.7-0.1,1.2c-0.7,0-1.4,0-2.1,0c0,2.7,0,5.3,0,7.9
		c0.6,0.3,1.1,0.5,1.6,0.8c0.8,0.5,1.3,1.3,1.5,2.3c0.1,0.5,0.2,0.9,0.2,1.4c0,0.8-0.2,0.9-1,0.5c-0.4,1.5-1.3,2.6-3,2.6
		c-1.6,0-2.5-1.1-2.9-2.6c-0.3,0.1-0.6,0.2-0.9,0.3c-0.4-2.1,0.1-4.4,3.2-5.3c0-2.6,0-5.2,0-7.9c-0.7,0-1.4,0-2.1,0
		c0-1.2,0-2.4,0-3.5c0.5-0.2,4.6-0.2,5.5,0c0,0.3,0,0.7,0.1,1.1c2.5,0,5,0,7.5,0c0.2-0.4,0.2-0.4,0.7-0.4c0.4,0,0.8,0,1.2,0
		c0.4,0,0.7,0.1,0.7,0.4c0.1,0,0.1,0,0.1,0c0.7,0,1.4,0.2,2.1-0.1c0.5-0.2,0.9-0.8,1.4-1.3c0.6-0.6,1.2-1.2,1.8-1.8
		c0.3-0.3,0.5-0.7,0.5-1.1c0-0.3,0-0.5,0-0.9c0.4,0,0.8,0,1.2,0c0.4,0,0.7,0,1.2,0c0.1,0.9,0,1.7,0,2.7c-0.3,0-0.6,0-0.8,0
		c-0.6-0.1-1.1,0.2-1.5,0.6c-0.8,0.8-1.6,1.6-2.4,2.4c-0.5,0.5-1.1,0.8-1.8,0.7c-0.5,0-1.1,0-1.8,0c0,1,0,1.9,0,2.9
		c-0.8,0-1.6,0-2.4,0C1580.2,3266.8,1580.2,3265.9,1580.2,3264.9z M1571.1,3278.6c0-0.8-0.6-1.4-1.4-1.4c-0.8,0-1.4,0.6-1.4,1.4
		c0,0.8,0.6,1.4,1.4,1.4C1570.5,3280,1571.1,3279.4,1571.1,3278.6z"/>
	<path class="st1" d="M1596.1,3248.8c-0.4,0-0.7,0.1-1.1,0.1c0,0.2,0,0.4-0.1,0.6c0,1.2,0,2.4,0,3.7c0,1.2,0,1.2-1.2,1.5
		c0,0.2-0.1,0.4-0.1,0.6c-0.7,0-1.5,0-2.3,0c-0.1-0.8,0-1.7,0-2.6c0.8,0,1.6,0,2.3,0c0,0.1,0.1,0.2,0.1,0.3c0-1.3,0-2.7,0-4.1
		c-0.4,0-0.8-0.1-1.2-0.1c0-1.8,0-3.6,0-5.4c1.2,0,2.4,0,3.6,0C1596.1,3245.2,1596.1,3246.9,1596.1,3248.8z"/>
	<path class="st1" d="M1537.4,3263.1c2.4,0,4.7,0,7.1,0c0,1.2,0,2.4,0,3.6c-2.4,0-4.7,0-7.1,0
		C1537.4,3265.5,1537.4,3264.3,1537.4,3263.1z"/>
	<path class="st1" d="M1551.8,3212.6c0,2.4,0,4.8,0,7.2c-1.2,0-2.4,0-3.6,0c0-2.4,0-4.7,0-7.2
		C1549.4,3212.6,1550.6,3212.6,1551.8,3212.6z"/>
	<path class="st1" d="M1580.6,3219.8c-1.2,0-2.4,0-3.6,0c0-2.4,0-4.8,0-7.2c1.2,0,2.4,0,3.6,0
		C1580.6,3215,1580.6,3217.4,1580.6,3219.8z"/>
	<path class="st2" d="M1529.6,3271.9c0,2.2-1.8,3.9-3.9,3.9c-2.2,0-3.9-1.8-3.9-3.9c0-2.1,1.7-3.9,3.9-3.9
		C1527.9,3268,1529.6,3269.8,1529.6,3271.9z"/>
	<path class="st3" d="M1569.2,3189.9c0,2.1-1.8,3.9-3.9,3.9c-2.1,0-3.9-1.8-3.9-4c0-2.2,1.8-3.9,4-3.9
		C1567.5,3185.9,1569.3,3187.7,1569.2,3189.9z"/>
	<path class="st2" d="M1557.6,3280c-0.8,0-1.4-0.7-1.4-1.4c0-0.8,0.7-1.4,1.4-1.4c0.7,0,1.4,0.6,1.4,1.4
		C1559,3279.3,1558.3,3280,1557.6,3280z"/>
	<path class="st3" d="M1582.9,3189.3c2.1,0,4,1.8,4,3.9c0,2.2-1.8,3.9-3.9,3.9c-2.1,0-3.9-1.7-3.9-3.9
		C1579,3191.2,1580.8,3189.3,1582.9,3189.3z"/>
	<path class="st2" d="M1598.8,3203c-2.1,0-4-1.8-3.9-3.9c0-2.2,1.9-3.9,4-3.9c2,0,3.9,1.7,3.9,3.9
		C1602.8,3201.2,1601,3203,1598.8,3203z"/>
	<path class="st2" d="M1512.5,3257.8c0-2.2,1.8-3.9,3.9-3.9c2.1,0,3.9,1.8,3.9,4c0,2.1-1.8,3.9-3.9,3.9
		C1514.2,3261.7,1512.5,3259.9,1512.5,3257.8z"/>
	<path class="st3" d="M1548,3195.9c-2.1,0-4-1.8-3.9-3.9c0-2.2,1.9-3.9,4-3.9c2,0,3.9,1.7,3.9,3.9
		C1551.9,3194.1,1550.1,3195.9,1548,3195.9z"/>
	<path class="st3" d="M1524.2,3211.8c0,2.2-1.8,3.9-3.9,4c-2.1,0-3.9-1.8-3.9-3.9c0-2.2,1.7-4,3.9-4
		C1522.4,3207.9,1524.2,3209.6,1524.2,3211.8z"/>
	<path class="st3" d="M1531.8,3203.1c-2.1,0-3.9-1.8-3.9-3.9c0-2.2,1.9-3.9,4-3.9c2,0,3.9,1.8,3.9,4
		C1535.8,3201.4,1533.9,3203.2,1531.8,3203.1z"/>
	<path class="st3" d="M1516.5,3242.6c0,2.2-1.8,3.9-3.9,3.9c-2.1,0-3.9-1.8-3.9-3.9c0-2.2,1.7-4,3.9-4
		C1514.8,3238.7,1516.5,3240.5,1516.5,3242.6z"/>
	<path class="st3" d="M1514.2,3230.2c-2.1,0-3.9-1.9-3.9-4c0.1-2.2,2-3.9,4-3.9c2,0,3.9,1.7,3.9,4
		C1518.2,3228.5,1516.4,3230.2,1514.2,3230.2z"/>
	<path class="st2" d="M1609.3,3215.1c0,2.2-1.8,3.9-4,3.9c-2.1,0-3.9-1.8-3.9-4c0-2.1,1.8-3.9,3.9-3.9
		C1607.5,3211.1,1609.3,3212.9,1609.3,3215.1z"/>
	<path class="st2" d="M1610,3233c0,2.2-1.8,4-3.9,4c-2.1,0-3.9-1.8-3.9-3.9c0-2.2,1.7-4,3.9-4C1608.2,3229,1610,3230.8,1610,3233z"
		/>
	<path class="st2" d="M1571.1,3278.6c0,0.8-0.6,1.4-1.4,1.4c-0.7,0-1.4-0.6-1.4-1.4c0-0.8,0.6-1.4,1.4-1.4
		C1570.5,3277.3,1571.1,3277.9,1571.1,3278.6z"/>
	<g>
		<path class="st4" d="M1503.6,3233.6c-3-1.6-5-4.8-5-8.4c0-5.3,4.9-10.2,10.3-10.2"/>
		<path class="st4" d="M1508.9,3215c-1.7-1.7-2.8-4.1-2.8-6.8c0-5.3,4.3-9.6,9.6-9.6c1.9,0,3.7,0.6,5.2,1.5"/>
		<path class="st4" d="M1520.8,3200.1c-1.1-1.6-1.8-3.5-1.8-5.6c0-5.3,4.3-9.6,9.6-9.6c3.3,0,5.6,0.9,7.1,2.3"/>
		<path class="st4" d="M1535.7,3187.2c0-5.3,5.2-10.4,10.5-10.4c4.1,0,7.6,2.6,9,6.1"/>
		<path class="st4" d="M1555.2,3183c0-5.3,4.9-9.1,10.2-9.1c5.3,0,9.6,4.3,9.6,9.6"/>
		<path class="st4" d="M1575,3183.4c1.6-3,5.9-5.3,9.6-5.3c5.3,0,10.8,4.3,10.8,9.6"/>
		<path class="st4" d="M1595.4,3187.7c1.7-1.8,4.1-2.8,6.8-2.8c5.3,0,9.6,4.3,9.6,9.6c0,2.7-0.4,6-2.2,7.7"/>
		<path class="st4" d="M1609.6,3202.2c5.3,0,9.7,4.8,9.7,10.1c0,4.7-3.4,8.6-7.8,9.4"/>
		<path class="st4" d="M1506.1,3252.5c-5.3,0-9.6-4.3-9.6-9.6c0-4.5,3-8.2,7.2-9.3"/>
		<path class="st4" d="M1513.8,3269.6c0,0,0,0-1.9,0c-5.3,0-9.6-4.3-9.6-9.6c0-3.1,1.4-5.8,3.7-7.6"/>
		<path class="st4" d="M1522.7,3285.8c-5.3,0-11.8-4.3-11.8-9.6c0-3.1,0.6-4.9,2.9-6.6"/>
		<line class="st4" x1="1522.7" y1="3285.8" x2="1527.4" y2="3285.8"/>
		<line class="st4" x1="1527.4" y1="3285.8" x2="1525" y2="3309"/>
		<line class="st4" x1="1525" y1="3309" x2="1525" y2="3309"/>
		<path class="st4" d="M1525,3309c0,4,15,7.2,33.5,7.2"/>
		<path class="st4" d="M1558.6,3316.2c0,0,6.3,0,14.1,0"/>
		<path class="st4" d="M1572.6,3316.2c0,0,5.4,0,12,0"/>
		<path class="st4" d="M1593.2,3312.6c0,2-3.8,3.6-8.6,3.6"/>
		<line class="st4" x1="1593.2" y1="3312.6" x2="1588.9" y2="3288.1"/>
		<path class="st4" d="M1614.5,3283.4c0,2.6-11.5,4.7-25.6,4.7"/>
		<path class="st4" d="M1614.5,3283.4c0-5.6,0-10.1,0-10.1"/>
		<path class="st4" d="M1628.9,3268.5c0-11.7-3.9-24.2-6.5-29.2"/>
		<path class="st4" d="M1613.4,3221.3c4.9,0,8.9,4.7,8.9,9.6"/>
		<path class="st5" d="M1623.1,3246.4"/>
		<path class="st5" d="M1622.3,3230.9c0,3.3,0.1,6.4,0.1,8.9"/>
		<path class="st4" d="M1622.3,3230.9c0,3.3,0.1,6.4,0.1,8.9"/>
		<line class="st4" x1="1614.5" y1="3273.3" x2="1614.5" y2="3268.5"/>
		<line class="st4" x1="1614.5" y1="3268.5" x2="1628.9" y2="3268.5"/>
	</g>
	<rect x="1529.4" y="3298.8" class="st6" width="58.3" height="15"/>
	<text transform="matrix(1 0 0 1 1529.4082 3307.6348)" class="st7 st8 st9 st10">Braino</text>
	<line class="st11" x1="1529.6" y1="3310.3" x2="1576.3" y2="3310.3"/>
</g>
</svg>
