0
SECTION
2
HEADER
9
$INSUNITS
70
4
9
$ACADVER
1
AC1014
9
$HANDSEED
5
FFFF
0
ENDSEC
0
SECTION
2
TABLES
0
TABLE
2
VPORT
5
8
100
AcDbSymbolTable
0
ENDTAB
0
TABLE
2
LTYPE
5
5
100
AcDbSymbolTable
0
LTYPE
5
14
100
AcDbSymbolTableRecord
100
AcDbLinetypeTableRecord
2
BYBLOCK
70
0
0
LTYPE
5
15
100
AcDbSymbolTableRecord
100
AcDbLinetypeTableRecord
2
BYLAYER
70
0
0
ENDTAB
0
TABLE
2
LAYER
5
2
100
AcDbSymbolTable
70
2
0
LAYER
5
50
100
AcDbSymbolTableRecord
100
AcDbLayerTableRecord
2
0
70
0
6
CONTINUOUS
0
ENDTAB
0
TABLE
2
STYLE
5
3
100
AcDbSymbolTable
70
1
0
STYLE
5
11
100
AcDbSymbolTableRecord
100
AcDbTextStyleTableRecord
2
STANDARD
70
0
0
ENDTAB
0
TABLE
2
VIEW
5
6
100
AcDbSymbolTable
70
0
0
ENDTAB
0
TABLE
2
UCS
5
7
100
AcDbSymbolTable
70
0
0
ENDTAB
0
TABLE
2
APPID
5
9
100
AcDbSymbolTable
70
2
0
APPID
5
12
100
AcDbSymbolTableRecord
100
AcDbRegAppTableRecord
2
ACAD
70
0
0
ENDTAB
0
TABLE
2
DIMSTYLE
5
A
100
AcDbSymbolTable
70
1
0
ENDTAB
0
TABLE
2
BLOCK_RECORD
5
1
100
AcDbSymbolTable
70
1
0
BLOCK_RECORD
5
1F
100
AcDbSymbolTableRecord
100
AcDbBlockTableRecord
2
*MODEL_SPACE
0
BLOCK_RECORD
5
1B
100
AcDbSymbolTableRecord
100
AcDbBlockTableRecord
2
*PAPER_SPACE
0
ENDTAB
0
ENDSEC
0
SECTION
2
BLOCKS
0
BLOCK
5
20
100
AcDbEntity
100
AcDbBlockBegin
2
*MODEL_SPACE
0
ENDBLK
5
21
100
AcDbEntity
100
AcDbBlockEnd
0
BLOCK
5
1C
100
AcDbEntity
100
AcDbBlockBegin
2
*PAPER_SPACE
0
ENDBLK
5
1D
100
AcDbEntity
100
AcDbBlockEnd
0
ENDSEC
0
SECTION
2
ENTITIES
0
LINE
5
100
100
AcDbEntity
8
0
100
AcDbLine
10
-1224.9346496980577
20
702.20824964557528
30
0
11
-1224.9346496980577
21
2.2082496455762026
31
0
0
LINE
5
101
100
AcDbEntity
8
0
100
AcDbLine
10
-624.93464969805859
20
2.2082496455762159
30
0
11
-624.93464969805859
21
702.20824964557528
31
0
0
LINE
5
102
100
AcDbEntity
8
0
100
AcDbLine
10
-624.93464969805859
20
702.20824964557528
30
0
11
-824.93464969805825
21
702.20824964557528
31
0
0
LINE
5
103
100
AcDbEntity
8
0
100
AcDbLine
10
-824.93464969805825
20
702.20824964557528
30
0
11
-824.93464969805825
21
720.20824964557517
31
0
0
LINE
5
104
100
AcDbEntity
8
0
100
AcDbLine
10
-824.93464969805825
20
720.20824964557517
30
0
11
-1024.9346496980579
21
720.20824964557517
31
0
0
LINE
5
105
100
AcDbEntity
8
0
100
AcDbLine
10
-1024.9346496980579
20
720.20824964557517
30
0
11
-1024.9346496980579
21
702.20824964557528
31
0
0
LINE
5
106
100
AcDbEntity
8
0
100
AcDbLine
10
-1024.9346496980579
20
702.20824964557528
30
0
11
-1224.9346496980577
21
702.20824964557528
31
0
0
LINE
5
107
100
AcDbEntity
8
0
100
AcDbLine
10
-1224.9346496980577
20
2.2082496455762026
30
0
11
-1024.9346496980579
21
2.2082496455762071
31
0
0
LINE
5
108
100
AcDbEntity
8
0
100
AcDbLine
10
-824.93464969805825
20
2.2082496455762115
30
0
11
-624.93464969805859
21
2.2082496455762159
31
0
0
LINE
5
109
100
AcDbEntity
8
0
100
AcDbLine
10
-1024.9346496980579
20
2.2082496455762071
30
0
11
-1024.9346496980579
21
202.20784698544657
31
0
0
LINE
5
110
100
AcDbEntity
8
0
100
AcDbLine
10
-824.93464969805825
20
2.2082496455762115
30
0
11
-824.9839871263481
21
202.25716018315222
31
0
0
LINE
5
111
100
AcDbEntity
8
0
100
AcDbLine
10
-1024.9346496980579
20
202.20784698544657
30
0
11
-824.9839871263481
21
202.25716018315222
31
0
0
LWPOLYLINE
5
112
100
AcDbEntity
8
0
100
AcDbPolyline
90
4
70
1
43
0.0
10
-1024.9346496980579
20
420.20824964557619
10
-1024.9346496980579
20
402.20824964557619
10
-824.93464969805825
20
402.20824964557619
10
-824.93464969805825
20
420.20824964557619
0
CIRCLE
5
113
100
AcDbEntity
8
0
100
AcDbCircle
10
-824.93464969805825
20
418.57637399626992
30
0
40
1.5875000000000228
0
CIRCLE
5
114
100
AcDbEntity
8
0
100
AcDbCircle
10
-824.98338391689356
20
403.80990568875336
30
0
40
1.5875000000000228
0
CIRCLE
5
115
100
AcDbEntity
8
0
100
AcDbCircle
10
-1024.9346496980579
20
418.59178848189845
30
0
40
1.5875000000000563
0
CIRCLE
5
116
100
AcDbEntity
8
0
100
AcDbCircle
10
-1024.9346496980579
20
403.82066468575346
30
0
40
1.5875000000000354
0
CIRCLE
5
117
100
AcDbEntity
8
0
100
AcDbCircle
10
-1023.3019800791546
20
202.20824964557622
30
0
40
1.5875000000000039
0
CIRCLE
5
118
100
AcDbEntity
8
0
100
AcDbCircle
10
-826.60507862233908
20
202.2567603784984
30
0
40
1.5875000000000088
0
CIRCLE
5
119
100
AcDbEntity
8
0
100
AcDbCircle
10
-197.58426334404794
20
400.91866550178139
30
0
40
1.5875000000000228
0
LINE
5
120
100
AcDbEntity
8
0
100
AcDbLine
10
-397.53552912521224
20
699.31700945860314
30
0
11
-597.53552912521184
21
699.31700945860314
31
0
0
LINE
5
121
100
AcDbEntity
8
0
100
AcDbLine
10
-197.53552912521263
20
699.31700945860314
30
0
11
-197.53552912521263
21
717.31700945860314
31
0
0
CIRCLE
5
122
100
AcDbEntity
8
0
100
AcDbCircle
10
-397.53552912521224
20
415.70054829492648
30
0
40
1.5875000000000563
0
CIRCLE
5
123
100
AcDbEntity
8
0
100
AcDbCircle
10
-397.53552912521224
20
400.92942449878149
30
0
40
1.5875000000000354
0
LWPOLYLINE
5
124
100
AcDbEntity
8
0
100
AcDbPolyline
90
4
70
1
43
0.0
10
-197.53552912521263
20
417.31700945860428
10
-397.53552912521224
20
417.31700945860428
10
-397.53552912521224
20
399.31700945860428
10
-197.53552912521263
20
399.31700945860428
0
LINE
5
125
100
AcDbEntity
8
0
100
AcDbLine
10
-197.53552912521263
20
717.31700945860314
30
0
11
-397.53552912521224
21
717.31700945860314
31
0
0
CIRCLE
5
126
100
AcDbEntity
8
0
100
AcDbCircle
10
-395.90285950630891
20
199.31700945860442
30
0
40
1.5875000000000039
0
CIRCLE
5
127
100
AcDbEntity
8
0
100
AcDbCircle
10
-199.20595804949352
20
199.3655201915266
30
0
40
1.5875000000000088
0
CIRCLE
5
128
100
AcDbEntity
8
0
100
AcDbCircle
10
-197.53552912521263
20
415.68513380929801
30
0
40
1.5875000000000228
0
LINE
5
129
100
AcDbEntity
8
0
100
AcDbLine
10
-397.53552912521224
20
717.31700945860314
30
0
11
-397.53552912521224
21
699.31700945860314
31
0
0
LINE
5
130
100
AcDbEntity
8
0
100
AcDbLine
10
-397.53552912521224
20
-0.68299054139547155
30
0
11
-397.53552912521224
21
199.31660679847477
31
0
0
LINE
5
131
100
AcDbEntity
8
0
100
AcDbLine
10
-197.53552912521263
20
-0.68299054139546622
30
0
11
2.4644708747869259
21
-0.68299054139546089
31
0
0
LINE
5
132
100
AcDbEntity
8
0
100
AcDbLine
10
-597.53552912521184
20
-0.6829905413954771
30
0
11
-397.53552912521224
21
-0.68299054139547155
31
0
0
LINE
5
133
100
AcDbEntity
8
0
100
AcDbLine
10
-597.53552912521184
20
699.31700945860314
30
0
11
-597.53552912521184
21
-0.6829905413954771
31
0
0
LINE
5
134
100
AcDbEntity
8
0
100
AcDbLine
10
-397.53552912521224
20
199.31660679847477
30
0
11
-197.58486655350248
21
199.36591999618042
31
0
0
LINE
5
135
100
AcDbEntity
8
0
100
AcDbLine
10
2.4644708747869259
20
-0.68299054139546089
30
0
11
2.4644708747869259
21
699.31700945860314
31
0
0
LINE
5
136
100
AcDbEntity
8
0
100
AcDbLine
10
2.4644708747869259
20
699.31700945860314
30
0
11
-197.53552912521263
21
699.31700945860314
31
0
0
LINE
5
137
100
AcDbEntity
8
0
100
AcDbLine
10
-197.53552912521263
20
-0.68299054139546622
30
0
11
-197.58486655350248
21
199.36591999618042
31
0
0
ENDSEC
0
SECTION
2
OBJECTS
0
DICTIONARY
5
C
100
AcDbDictionary
3
ACAD_GROUP
350
D
3
ACAD_MLINESTYLE
350
17
0
DICTIONARY
5
D
100
AcDbDictionary
0
DICTIONARY
5
1A
330
C
100
AcDbDictionary
0
DICTIONARY
5
17
100
AcDbDictionary
0
ENDSEC
0
EOF
