0
SECTION
2
HEADER
9
$INSUNITS
70
4
9
$ACADVER
1
AC1014
9
$HANDSEED
5
FFFF
0
ENDSEC
0
SECTION
2
TABLES
0
TABLE
2
VPORT
5
8
100
AcDbSymbolTable
0
ENDTAB
0
TABLE
2
LTYPE
5
5
100
AcDbSymbolTable
0
LTYPE
5
14
100
AcDbSymbolTableRecord
100
AcDbLinetypeTableRecord
2
BYBLOCK
70
0
0
LTYPE
5
15
100
AcDbSymbolTableRecord
100
AcDbLinetypeTableRecord
2
BYLAYER
70
0
0
ENDTAB
0
TABLE
2
LAYER
5
2
100
AcDbSymbolTable
70
2
0
LAYER
5
50
100
AcDbSymbolTableRecord
100
AcDbLayerTableRecord
2
0
70
0
6
CONTINUOUS
0
ENDTAB
0
TABLE
2
STYLE
5
3
100
AcDbSymbolTable
70
1
0
STYLE
5
11
100
AcDbSymbolTableRecord
100
AcDbTextStyleTableRecord
2
STANDARD
70
0
0
ENDTAB
0
TABLE
2
VIEW
5
6
100
AcDbSymbolTable
70
0
0
ENDTAB
0
TABLE
2
UCS
5
7
100
AcDbSymbolTable
70
0
0
ENDTAB
0
TABLE
2
APPID
5
9
100
AcDbSymbolTable
70
2
0
APPID
5
12
100
AcDbSymbolTableRecord
100
AcDbRegAppTableRecord
2
ACAD
70
0
0
ENDTAB
0
TABLE
2
DIMSTYLE
5
A
100
AcDbSymbolTable
70
1
0
ENDTAB
0
TABLE
2
BLOCK_RECORD
5
1
100
AcDbSymbolTable
70
1
0
BLOCK_RECORD
5
1F
100
AcDbSymbolTableRecord
100
AcDbBlockTableRecord
2
*MODEL_SPACE
0
BLOCK_RECORD
5
1B
100
AcDbSymbolTableRecord
100
AcDbBlockTableRecord
2
*PAPER_SPACE
0
ENDTAB
0
ENDSEC
0
SECTION
2
BLOCKS
0
BLOCK
5
20
100
AcDbEntity
100
AcDbBlockBegin
2
*MODEL_SPACE
0
ENDBLK
5
21
100
AcDbEntity
100
AcDbBlockEnd
0
BLOCK
5
1C
100
AcDbEntity
100
AcDbBlockBegin
2
*PAPER_SPACE
0
ENDBLK
5
1D
100
AcDbEntity
100
AcDbBlockEnd
0
ENDSEC
0
SECTION
2
ENTITIES
0
CIRCLE
5
100
100
AcDbEntity
8
0
100
AcDbCircle
10
0
20
0
30
0
40
500
0
LWPOLYLINE
5
101
100
AcDbEntity
8
0
100
AcDbPolyline
90
5
70
1
43
0.0
10
-175
20
99.985027881849049
10
-175
20
0
10
-175
20
-100
10
-193
20
-99.999999999999986
10
-193
20
99.984919676737874
0
LWPOLYLINE
5
102
100
AcDbEntity
8
0
100
AcDbPolyline
90
5
70
1
43
0.0
10
-99.981348112014686
20
175
10
0
20
175
10
99.999993429433815
20
175
10
100.00000067273645
20
193
10
-100.00178024322666
20
193
0
LWPOLYLINE
5
103
100
AcDbEntity
8
0
100
AcDbPolyline
90
5
70
1
43
0.0
10
174.99999999999997
20
99.992891680866038
10
174.99999999999997
20
0
10
174.99999999999997
20
-100
10
192.99999999999997
20
-100
10
192.99999999999997
20
99.992891680866038
0
LWPOLYLINE
5
104
100
AcDbEntity
8
0
100
AcDbPolyline
90
5
70
1
43
0.0
10
-100
20
-175
10
0
20
-175
10
100
20
-175
10
100
20
-193
10
-100
20
-193
0
CIRCLE
5
105
100
AcDbEntity
8
0
100
AcDbCircle
10
176.59155683448927
20
99.992891680866038
30
0
40
1.5875000000000128
0
CIRCLE
5
106
100
AcDbEntity
8
0
100
AcDbCircle
10
191.40159885165167
20
99.992891680866038
30
0
40
1.5874999999999932
0
CIRCLE
5
107
100
AcDbEntity
8
0
100
AcDbCircle
10
176.58722067394277
20
-100
30
0
40
1.5875000000000079
0
CIRCLE
5
108
100
AcDbEntity
8
0
100
AcDbCircle
10
191.40722295611187
20
-100
30
0
40
1.5874999999999941
0
CIRCLE
5
109
100
AcDbEntity
8
0
100
AcDbCircle
10
100
20
-176.59582077973059
30
0
40
1.5875000000000052
0
CIRCLE
5
110
100
AcDbEntity
8
0
100
AcDbCircle
10
100
20
-191.40116367336702
30
0
40
1.5874999999999981
0
CIRCLE
5
111
100
AcDbEntity
8
0
100
AcDbCircle
10
-100
20
-176.60537509654125
30
0
40
1.5875000000000064
0
CIRCLE
5
112
100
AcDbEntity
8
0
100
AcDbCircle
10
-100
20
-191.40638048269125
30
0
40
1.5875000000000066
0
CIRCLE
5
113
100
AcDbEntity
8
0
100
AcDbCircle
10
-191.42024585890252
20
-100
30
0
40
1.587499999999999
0
CIRCLE
5
114
100
AcDbEntity
8
0
100
AcDbCircle
10
-176.59789274730764
20
-100
30
0
40
1.587499999999995
0
CIRCLE
5
115
100
AcDbEntity
8
0
100
AcDbCircle
10
-191.39427758402846
20
99.984929601152061
30
0
40
1.5875000000000066
0
CIRCLE
5
116
100
AcDbEntity
8
0
100
AcDbCircle
10
-176.60223722784838
20
99.985020608529908
30
0
40
1.5875000000000006
0
CIRCLE
5
117
100
AcDbEntity
8
0
100
AcDbCircle
10
-100
20
191.4316673700186
30
0
40
1.5874999999999924
0
CIRCLE
5
118
100
AcDbEntity
8
0
100
AcDbCircle
10
-99.98315904442164
20
176.59536873501185
30
0
40
1.5875000000000075
0
CIRCLE
5
119
100
AcDbEntity
8
0
100
AcDbCircle
10
99.999999999999915
20
191.40166844841337
30
0
40
1.5875000000000072
0
CIRCLE
5
120
100
AcDbEntity
8
0
100
AcDbCircle
10
99.999994103019873
20
176.63717028832068
30
0
40
1.587500000000007
0
CIRCLE
5
121
100
AcDbEntity
8
0
100
AcDbCircle
10
99.764465353748349
20
116.63763257169931
30
0
40
5
0
CIRCLE
5
122
100
AcDbEntity
8
0
100
AcDbCircle
10
116.59201942590653
20
99.757284473669642
30
0
40
5
0
CIRCLE
5
123
100
AcDbEntity
8
0
100
AcDbCircle
10
-99.994036679582649
20
115.00000134166456
30
0
40
5
0
CIRCLE
5
124
100
AcDbEntity
8
0
100
AcDbCircle
10
-115.00000000004569
20
99.984953835973513
30
0
40
5.0000000000000053
0
CIRCLE
5
125
100
AcDbEntity
8
0
100
AcDbCircle
10
-116.59835527188407
20
-99.76440981504652
30
0
40
5
0
CIRCLE
5
126
100
AcDbEntity
8
0
100
AcDbCircle
10
-99.760920806867631
20
-115.00047632572893
30
0
40
5
0
CIRCLE
5
127
100
AcDbEntity
8
0
100
AcDbCircle
10
116.58768328979407
20
-99.764386570528842
30
0
40
5
0
CIRCLE
5
128
100
AcDbEntity
8
0
100
AcDbCircle
10
99.764405302221633
20
-116.59628332202699
30
0
40
5
0
ENDSEC
0
SECTION
2
OBJECTS
0
DICTIONARY
5
C
100
AcDbDictionary
3
ACAD_GROUP
350
D
3
ACAD_MLINESTYLE
350
17
0
DICTIONARY
5
D
100
AcDbDictionary
0
DICTIONARY
5
1A
330
C
100
AcDbDictionary
0
DICTIONARY
5
17
100
AcDbDictionary
0
ENDSEC
0
EOF
