<?xml version="1.0" encoding="UTF-8" standalone="no"?>
<!-- Created with Inkscape (http://www.inkscape.org/) -->

<svg
   xmlns:dc="http://purl.org/dc/elements/1.1/"
   xmlns:cc="http://creativecommons.org/ns#"
   xmlns:rdf="http://www.w3.org/1999/02/22-rdf-syntax-ns#"
   xmlns:svg="http://www.w3.org/2000/svg"
   xmlns="http://www.w3.org/2000/svg"
   xmlns:sodipodi="http://sodipodi.sourceforge.net/DTD/sodipodi-0.dtd"
   xmlns:inkscape="http://www.inkscape.org/namespaces/inkscape"
   width="67.825012mm"
   height="92.616798mm"
   viewBox="0 0 240.32485 328.16976"
   id="svg2"
   version="1.1"
   inkscape:version="0.91 r13725"
   inkscape:export-filename="/home/ale/back_to_top.png"
   inkscape:export-xdpi="50"
   inkscape:export-ydpi="50"
   sodipodi:docname="back_to_top.svg">
  <defs
     id="defs4" />
  <sodipodi:namedview
     id="base"
     pagecolor="#ffffff"
     bordercolor="#666666"
     borderopacity="1.0"
     inkscape:pageopacity="0"
     inkscape:pageshadow="2"
     inkscape:zoom="0.98994949"
     inkscape:cx="39.600402"
     inkscape:cy="147.82094"
     inkscape:document-units="px"
     inkscape:current-layer="layer1"
     showgrid="false"
     inkscape:window-width="1366"
     inkscape:window-height="717"
     inkscape:window-x="0"
     inkscape:window-y="0"
     inkscape:window-maximized="1"
     fit-margin-top="3"
     fit-margin-left="3"
     fit-margin-right="3"
     fit-margin-bottom="3"
     inkscape:object-paths="true"
     inkscape:snap-intersection-paths="true"
     inkscape:object-nodes="true"
     inkscape:snap-smooth-nodes="true"
     inkscape:snap-nodes="false" />
  <metadata
     id="metadata7">
    <rdf:RDF>
      <cc:Work
         rdf:about="">
        <dc:format>image/svg+xml</dc:format>
        <dc:type
           rdf:resource="http://purl.org/dc/dcmitype/StillImage" />
        <dc:title></dc:title>
      </cc:Work>
    </rdf:RDF>
  </metadata>
  <g
     inkscape:label="Layer 1"
     inkscape:groupmode="layer"
     id="layer1"
     transform="translate(-251.88483,-228.26204)">
    <g
       id="g4185">
      <g
         id="g4175">
        <g
           id="g4325"
           transform="translate(1.0098004e-5,-36.657145)">
          <circle
             r="109"
             cy="385.0816"
             cx="372.04724"
             id="path4310"
             style="opacity:1;fill:#ffffff;fill-opacity:1;fill-rule:nonzero;stroke:none;stroke-width:7.08699989;stroke-linejoin:miter;stroke-miterlimit:4;stroke-dasharray:none;stroke-dashoffset:0;stroke-opacity:1" />
          <path
             inkscape:connector-curvature="0"
             id="path4201"
             d="m 355.76737,493.49403 c -43.08608,-7.73698 -74.88776,-35.0175 -88.55213,-75.96298 -6.41576,-19.22489 -6.24562,-47.665 0.39869,-66.64271 2.8241,-8.0663 7.20912,-17.10971 8.2806,-17.07746 0.53138,0.016 2.54427,1.11818 4.4731,2.44929 l 3.50697,2.42019 0.43837,47.31982 c 0.35113,37.90258 0.67353,47.60259 1.62,48.74069 1.18306,1.4226 15.63308,10.53954 20.91255,13.19433 4.73468,2.38087 4.83286,2.21613 4.50705,-7.5628 -0.2958,-8.87767 -0.34275,-9.04873 -4.38652,-15.97765 -9.50401,-16.28493 -10.93199,-33.96301 -3.50058,-43.33662 6.16294,-7.77364 17.38647,-9.18211 28.02958,-3.5175 15.73819,8.37637 27.29919,29.19956 26.2564,47.29187 -0.4633,8.03798 -2.62774,12.62837 -8.11352,17.20737 l -3.95308,3.29963 0.0246,12.72805 0.0246,12.72804 10.94551,6.12842 c 11.73402,6.5699 12.11308,7.01413 11.63896,13.64028 -0.25844,3.61206 -0.45184,3.8801 -2.9071,4.02935 -1.44662,0.0879 -5.78649,-0.40689 -9.64415,-1.09961 z m 20.12054,0.26411 c -0.2714,-0.70624 -0.3724,-3.34409 -0.22447,-5.86189 l 0.26898,-4.57781 39.45336,-22.72606 c 21.69934,-12.49934 40.34104,-23.30394 41.42602,-24.01023 1.92448,-1.2528 1.97266,-1.66731 1.97266,-16.97109 0,-8.62781 -0.31585,-15.88185 -0.70189,-16.1201 -1.4077,-0.86876 -11.6071,5.72654 -13.76903,8.90354 -1.20294,1.76775 -2.18716,3.58204 -2.18716,4.03174 0,2.23467 -8.55157,14.07579 -13.51134,18.70876 -12.5576,11.73023 -24.97064,13.78474 -34.01077,5.6292 -5.92844,-5.34832 -7.21252,-8.83651 -7.15395,-19.43365 0.0396,-7.16812 0.47197,-10.34762 1.96323,-14.43712 4.60495,-12.62832 14.92987,-25.26906 24.449,-29.93275 3.89162,-1.90661 6.58114,-2.53603 11.88223,-2.78074 6.4166,-0.29622 7.13158,-0.14279 11.25078,2.41419 l 4.39876,2.73051 8.69507,-4.87322 8.69507,-4.87321 0,-15.25403 0,-15.25403 4.6029,-2.63596 c 2.53158,-1.44977 4.84037,-2.63966 5.13065,-2.64417 0.88194,-0.0137 5.76726,11.36997 8.1128,18.90433 2.72256,8.74537 4.94892,23.27775 4.94892,32.30347 0,3.72855 -0.61587,10.96643 -1.36861,16.08416 -6.54153,44.47485 -40.15514,80.78685 -83.92573,90.66304 -13.15759,2.96881 -19.77909,3.62231 -20.39748,2.01312 z M 355.56095,356.94581 c -6.74896,-1.81498 -13.04895,-5.272 -17.94999,-9.84981 -5.66954,-5.2956 -6.20688,-6.41615 -6.78297,-14.14504 l -0.48611,-6.52151 -7.89067,-4.55938 -7.89067,-4.55938 -2.63023,1.58799 c -10.41793,6.28975 -22.61626,13.13215 -23.41145,13.13215 -1.78074,0 -8.58645,-4.80867 -8.58803,-6.06799 -0.003,-2.02775 9.17803,-13.40497 16.16356,-20.03105 15.50911,-14.71107 33.55364,-24.13 55.05415,-28.7373 10.17325,-2.18 31.71475,-2.19671 41.88033,-0.0325 26.21107,5.58027 48.71898,19.44039 64.94023,39.98948 3.10059,3.92784 5.93383,7.66652 6.2961,8.3082 0.45467,0.80537 -0.70334,2.00353 -3.73933,3.86892 -2.41888,1.48622 -4.75853,2.70223 -5.19921,2.70223 -0.44069,0 -12.96119,-7.03304 -27.82337,-15.62898 -44.88644,-25.9613 -54.93703,-31.64805 -55.90528,-31.63193 -1.59995,0.0266 -26.35452,15.2611 -26.29278,16.1811 0.0324,0.48152 2.00499,2.17632 4.38371,3.76622 l 4.32495,2.89072 9.64416,-0.55777 c 19.38138,-1.12091 35.46627,5.3091 42.26652,16.89626 7.36412,12.54796 -3.39416,27.90529 -23.14769,33.04306 -6.30229,1.63919 -21.04615,1.61552 -27.21593,-0.0437 z"
             style="fill:#000000" />
        </g>
        <g
           id="text4203"
           style="font-style:normal;font-variant:normal;font-weight:500;font-stretch:normal;font-size:43.75px;line-height:125%;font-family:'Samyak Devanagari';-inkscape-font-specification:'Samyak Devanagari Medium';text-align:center;letter-spacing:0px;word-spacing:0px;text-anchor:middle;fill:#ffffff;fill-opacity:1;stroke:#000000;stroke-width:0.82816297px;stroke-linecap:butt;stroke-linejoin:miter;stroke-opacity:1"
           transform="matrix(1.2066564,0,0,1.2083277,-77.23765,-95.974607)">
          <path
             inkscape:connector-curvature="0"
             id="path4221"
             style="fill:#ffffff;fill-opacity:1;stroke:#000000;stroke-width:0.82816297px;stroke-opacity:1"
             d="m 318.84442,478.51315 0,11.68518 6.92139,0 q 3.48205,0 5.14831,-1.43127 1.68763,-1.45264 1.68763,-4.422 0,-2.99072 -1.68763,-4.40063 -1.66626,-1.43128 -5.14831,-1.43128 l -6.92139,0 z m 0,-13.11645 0,9.61304 6.38733,0 q 3.16162,0 4.69971,-1.17493 1.55945,-1.19629 1.55945,-3.63159 0,-2.41394 -1.55945,-3.61023 -1.53809,-1.19629 -4.69971,-1.19629 l -6.38733,0 z m -4.31518,-3.54614 11.02295,0 q 4.93469,0 7.60498,2.05078 2.67028,2.05078 2.67028,5.83191 0,2.92663 -1.36718,4.65698 -1.36719,1.73034 -4.01612,2.15759 3.18299,0.68359 4.9347,2.86255 1.77307,2.15759 1.77307,5.40466 0,4.27246 -2.90528,6.60096 -2.90527,2.32849 -8.26721,2.32849 l -11.45019,0 0,-31.89392 z" />
          <path
             inkscape:connector-curvature="0"
             id="path4223"
             style="fill:#ffffff;fill-opacity:1;stroke:#000000;stroke-width:0.82816297px;stroke-opacity:1"
             d="m 355.1817,466.10165 -5.85327,15.8722 11.72791,0 -5.87464,-15.8722 z m -2.4353,-4.25109 4.89197,0 12.15515,31.89392 -4.48609,0 -2.90527,-8.18177 -14.37683,0 -2.90527,8.18177 -4.55017,0 12.17651,-31.89392 z" />
          <path
             inkscape:connector-curvature="0"
             id="path4225"
             style="fill:#ffffff;fill-opacity:1;stroke:#000000;stroke-width:0.82816297px;stroke-opacity:1"
             d="m 397.54315,464.30722 0,4.55017 q -2.17895,-2.02942 -4.65698,-3.03345 -2.45667,-1.00402 -5.23377,-1.00402 -5.46875,0 -8.37402,3.35388 -2.90527,3.33252 -2.90527,9.65576 0,6.30188 2.90527,9.65576 2.90527,3.33252 8.37402,3.33252 2.7771,0 5.23377,-1.00403 2.47803,-1.00403 4.65698,-3.03345 l 0,4.50745 q -2.2644,1.53809 -4.80652,2.30713 -2.52075,0.76904 -5.34057,0.76904 -7.24182,0 -11.40747,-4.42199 -4.16565,-4.44336 -4.16565,-12.11243 0,-7.69043 4.16565,-12.11243 4.16565,-4.44336 11.40747,-4.44336 2.86255,0 5.3833,0.76905 2.54211,0.74768 4.76379,2.2644 z" />
          <path
             inkscape:connector-curvature="0"
             id="path4227"
             style="fill:#ffffff;fill-opacity:1;stroke:#000000;stroke-width:0.82816297px;stroke-opacity:1"
             d="m 404.25092,461.85056 4.31518,0 0,13.47961 14.31275,-13.47961 5.55419,0 -15.82946,14.86816 16.96167,17.02576 -5.68238,0 -15.31677,-15.3595 0,15.3595 -4.31518,0 0,-31.89392 z" />
        </g>
      </g>
      <g
         transform="matrix(1.2066564,0,0,1.2083277,-76.88594,-101.27886)"
         style="font-style:normal;font-weight:normal;font-size:43.75px;line-height:125%;font-family:sans-serif;letter-spacing:0px;word-spacing:0px;fill:#ffffff;fill-opacity:1;stroke:#000000;stroke-width:0.82816297px;stroke-linecap:butt;stroke-linejoin:miter;stroke-opacity:1"
         id="text4209">
        <path
           d="m 291.39386,502.59009 26.98059,0 0,3.63159 -11.32202,0 0,28.26233 -4.33655,0 0,-28.26233 -11.32202,0 0,-3.63159 z"
           style="fill:#ffffff;fill-opacity:1;stroke:#000000;stroke-width:0.82816297px;stroke-opacity:1"
           id="path4230"
           inkscape:connector-curvature="0" />
        <path
           d="m 335.50702,505.51672 q -4.69971,0 -7.47681,3.50342 -2.75573,3.50342 -2.75573,9.54895 0,6.02417 2.75573,9.52759 2.7771,3.50342 7.47681,3.50342 4.69971,0 7.43408,-3.50342 2.75574,-3.50342 2.75574,-9.52759 0,-6.04553 -2.75574,-9.54895 -2.73437,-3.50342 -7.43408,-3.50342 z m 0,-3.50341 q 6.70776,0 10.72388,4.50744 4.01611,4.48609 4.01611,12.04834 0,7.5409 -4.01611,12.04834 -4.01612,4.48609 -10.72388,4.48609 -6.72913,0 -10.7666,-4.48609 -4.01612,-4.48608 -4.01612,-12.04834 0,-7.56225 4.01612,-12.04834 4.03747,-4.50744 10.7666,-4.50744 z"
           style="fill:#ffffff;fill-opacity:1;stroke:#000000;stroke-width:0.82816297px;stroke-opacity:1"
           id="path4232"
           inkscape:connector-curvature="0" />
        <path
           d="m 366.50372,502.59009 26.98059,0 0,3.63159 -11.32202,0 0,28.26233 -4.33655,0 0,-28.26233 -11.32202,0 0,-3.63159 z"
           style="fill:#ffffff;fill-opacity:1;stroke:#000000;stroke-width:0.82816297px;stroke-opacity:1"
           id="path4234"
           inkscape:connector-curvature="0" />
        <path
           d="m 410.61688,505.51672 q -4.6997,0 -7.4768,3.50342 -2.75574,3.50342 -2.75574,9.54895 0,6.02417 2.75574,9.52759 2.7771,3.50342 7.4768,3.50342 4.69971,0 7.43408,-3.50342 2.75574,-3.50342 2.75574,-9.52759 0,-6.04553 -2.75574,-9.54895 -2.73437,-3.50342 -7.43408,-3.50342 z m 0,-3.50341 q 6.70777,0 10.72388,4.50744 4.01611,4.48609 4.01611,12.04834 0,7.5409 -4.01611,12.04834 -4.01611,4.48609 -10.72388,4.48609 -6.72912,0 -10.7666,-4.48609 -4.01611,-4.48608 -4.01611,-12.04834 0,-7.56225 4.01611,-12.04834 4.03748,-4.50744 10.7666,-4.50744 z"
           style="fill:#ffffff;fill-opacity:1;stroke:#000000;stroke-width:0.82816297px;stroke-opacity:1"
           id="path4236"
           inkscape:connector-curvature="0" />
        <path
           d="m 436.42255,506.13623 0,11.98425 5.42602,0 q 3.01209,0 4.65698,-1.55944 1.6449,-1.55945 1.6449,-4.44336 0,-2.86255 -1.6449,-4.422 -1.64489,-1.55945 -4.65698,-1.55945 l -5.42602,0 z m -4.31519,-3.54614 9.74121,0 q 5.36194,0 8.09632,2.4353 2.75573,2.41394 2.75573,7.09229 0,4.72107 -2.75573,7.13501 -2.73438,2.41394 -8.09632,2.41394 l -5.42602,0 0,12.81738 -4.31519,0 0,-31.89392 z"
           style="fill:#ffffff;fill-opacity:1;stroke:#000000;stroke-width:0.82816297px;stroke-opacity:1"
           id="path4238"
           inkscape:connector-curvature="0" />
      </g>
    </g>
  </g>
</svg>
