<?xml version="1.0" encoding="UTF-8" standalone="no"?>
<!-- Created with Inkscape (http://www.inkscape.org/) -->

<svg
   xmlns:dc="http://purl.org/dc/elements/1.1/"
   xmlns:cc="http://creativecommons.org/ns#"
   xmlns:rdf="http://www.w3.org/1999/02/22-rdf-syntax-ns#"
   xmlns:svg="http://www.w3.org/2000/svg"
   xmlns="http://www.w3.org/2000/svg"
   xmlns:sodipodi="http://sodipodi.sourceforge.net/DTD/sodipodi-0.dtd"
   xmlns:inkscape="http://www.inkscape.org/namespaces/inkscape"
   width="47.00061mm"
   height="49.959511mm"
   viewBox="0 0 166.5376 177.02189"
   id="svg2"
   version="1.1"
   inkscape:version="0.91 r13725"
   sodipodi:docname="diamond3.svg">
  <defs
     id="defs4" />
  <sodipodi:namedview
     id="base"
     pagecolor="#ffffff"
     bordercolor="#666666"
     borderopacity="1.0"
     inkscape:pageopacity="0.0"
     inkscape:pageshadow="2"
     inkscape:zoom="2"
     inkscape:cx="1.9444364"
     inkscape:cy="130.54711"
     inkscape:document-units="mm"
     inkscape:current-layer="layer1"
     showgrid="false"
     inkscape:snap-nodes="false"
     inkscape:window-width="1366"
     inkscape:window-height="717"
     inkscape:window-x="0"
     inkscape:window-y="0"
     inkscape:window-maximized="1"
     fit-margin-top="1"
     fit-margin-right="1"
     fit-margin-left="1"
     fit-margin-bottom="1" />
  <metadata
     id="metadata7">
    <rdf:RDF>
      <cc:Work
         rdf:about="">
        <dc:format>image/svg+xml</dc:format>
        <dc:type
           rdf:resource="http://purl.org/dc/dcmitype/StillImage" />
        <dc:title />
      </cc:Work>
    </rdf:RDF>
  </metadata>
  <g
     inkscape:label="Layer 1"
     inkscape:groupmode="layer"
     id="layer1"
     transform="translate(-288.77865,-437.67016)">
    <g
       id="g4328"
       transform="matrix(0.90001462,0,0,1.4329805,37.199491,-246.63503)" />
    <path
       style="opacity:1;fill:none;fill-opacity:1;fill-rule:evenodd;stroke:#ff0000;stroke-width:0.7086615;stroke-linejoin:round;stroke-miterlimit:4;stroke-dasharray:none;stroke-opacity:1"
       d="m 372.04626,441.21537 c -7.82812,-3.3e-4 -14.17415,6.3457 -14.17382,14.17382 0.005,4.43354 2.08413,8.60935 5.61914,11.28516 -11.16625,-0.0176 -49.32823,-0.0729 -49.52344,0.0273 -0.22517,0.1155 -6.23242,8.79883 -6.23242,8.79883 -8.88046,12.53997 -12.37756,18.04852 -14.01953,22.08203 -2.96871,7.29261 -1.84496,10.22155 9.77148,25.44532 4.94154,6.47607 15.60362,20.60078 23.69336,31.39062 17.65185,23.54351 27.25803,36.0419 36.79883,47.87891 3.92265,4.86673 7.26724,8.84961 7.43359,8.84961 1.04787,0 36.41708,-45.24129 50.25195,-64.2793 2.74229,-3.77363 10.32529,-13.92856 16.85352,-22.5625 12.17252,-16.09883 13.77081,-18.8896 13.13086,-22.94922 -0.331,-2.09974 -12.06435,-20.31189 -18.98047,-29.46094 0,0 -3.69505,-5.09028 -3.95312,-5.22656 -0.21756,-0.11488 -35.66375,-0.0346 -48.11329,-0.004 3.53081,-2.67454 5.60822,-6.84597 5.61524,-11.27539 3.3e-4,-7.82736 -6.34451,-14.17308 -14.17188,-14.17382 z m 0,7.08789 c 3.9133,3.7e-4 7.08557,3.17263 7.08594,7.08593 -3.7e-4,3.91331 -3.17263,7.08557 -7.08594,7.08594 -3.91406,7.1e-4 -7.08751,-3.17187 -7.08789,-7.08594 3.8e-4,-3.91406 3.17383,-7.08664 7.08789,-7.08593 z"
       id="path4140"
       inkscape:connector-curvature="0"
       sodipodi:nodetypes="cccccsssssssscscccccccc" />
    <path
       id="path4149"
       d="m 372.04833,441.21529 a 14.173228,14.173228 0 0 0 -14.17383,14.17383 14.173228,14.173228 0 0 0 5.61915,11.28515 c -11.16625,-0.0176 -49.32823,-0.0729 -49.52344,0.0274 -0.22517,0.1155 -6.23242,8.79883 -6.23242,8.79883 -8.88047,12.53997 -12.37756,18.04852 -14.01954,22.08203 -2.9687,7.29261 -1.84495,10.22154 9.77149,25.44531 4.94154,6.47607 15.60362,20.60078 23.69336,31.39062 17.65185,23.54351 27.25803,36.0419 36.79883,47.87891 3.92265,4.86673 7.26724,8.84961 7.43359,8.84961 1.04787,0 36.41708,-45.24129 50.25195,-64.2793 2.74229,-3.77362 10.32529,-13.92856 16.85352,-22.5625 12.17252,-16.09883 13.77081,-18.8896 13.13086,-22.94922 -0.331,-2.09974 -12.06435,-20.31188 -18.98047,-29.46093 0,0 -3.69505,-5.09029 -3.95312,-5.22657 -0.21756,-0.11488 -35.66375,-0.0346 -48.11329,-0.004 a 14.173228,14.173228 0 0 0 5.61524,-11.27539 14.173228,14.173228 0 0 0 -14.17188,-14.17383 z m 0,7.08789 a 7.0866141,7.0866141 0 0 1 7.08594,7.08594 7.0866141,7.0866141 0 0 1 -7.08594,7.08593 7.0866141,7.0866141 0 0 1 -7.08789,-7.08593 7.0866141,7.0866141 0 0 1 7.08789,-7.08594 z m 19.23438,20.47461 c 2.66416,0.01 5.40145,0.0746 7.94726,0.20703 l 8.97461,0.4668 -6.23242,4.9375 c -3.42785,2.71515 -6.79295,5.12986 -7.47851,5.36523 -1.47361,0.5059 -16.79461,-7.82845 -18.09571,-9.84375 -0.44466,-0.68915 6.8923,-1.16266 14.88477,-1.13281 z m 28.64062,0.22461 c 3.50248,0.10776 8.71007,0.94427 9.97071,1.97461 1.88509,1.54072 4.48828,5.11258 4.48828,6.1582 0,0.93247 -0.13443,0.8855 -9.97266,-3.42383 -3.97631,-1.7417 -7.45429,-3.54046 -7.72851,-3.99804 -0.34703,-0.57901 1.14069,-0.77564 3.24218,-0.71094 z m -98.40039,0.041 c 2.60391,-0.0795 4.75949,0.16765 4.35938,0.80469 -0.27628,0.43987 -3.26489,2.06699 -6.64258,3.61524 -6.84071,3.13562 -10.50391,4.38225 -10.50391,3.57617 0,-1.49864 3.63676,-5.8348 5.73828,-6.8418 1.39277,-0.66737 4.44493,-1.07477 7.04883,-1.1543 z m 29.31836,0.0449 c 9.56663,-0.0234 16.2309,0.25447 15.95508,0.66406 -0.26051,0.38687 -4.23212,2.88524 -8.82617,5.55469 -4.59406,2.66944 -8.52163,4.84596 -8.72656,4.83593 -0.72779,-0.0368 -5.92143,-3.72495 -10.34375,-7.34375 l -4.48829,-3.67187 16.42969,-0.0391 z m 20.64649,0.53125 4.89648,2.61132 c 6.66642,3.55298 14.68088,8.94764 14.73047,9.91602 0.0223,0.43662 -4.19939,4.26737 -9.38281,8.51172 -5.18343,4.24433 -9.76249,7.7168 -10.17383,7.7168 -1.10452,0 -19.59297,-15.2994 -19.61133,-16.22852 -0.0196,-0.99145 8.30102,-6.64769 14.71484,-10.00195 l 4.82618,-2.52539 z m -41.60743,1.01757 c 3.53393,0 16,8.60943 16,11.05079 0,1.07913 -5.57576,4.60648 -18.36914,11.61328 -4.34481,2.3796 -7.93742,4.32617 -7.98242,4.32617 -0.23414,0 -5.31897,-4.47111 -6.98633,-6.14258 -2.18548,-2.19088 -6.30078,-8.04094 -6.30078,-8.95703 0,-0.92866 3.18088,-2.75963 13.06055,-7.52734 4.97198,-2.39936 9.73241,-4.36329 10.57812,-4.36329 z m 82.95313,0.28516 c 2.26805,0.086 5.00511,1.25943 9.93359,3.58984 9.82341,4.64497 14.10742,7.07366 14.10742,7.9961 0,1.81914 -8.18762,11.52717 -11.68164,13.85156 -1.04648,0.69617 -1.93178,1.26706 -1.96679,1.26563 -0.0351,-10e-4 -3.31666,-1.77704 -7.29297,-3.94336 -10.47718,-5.70804 -18.51189,-10.70482 -18.61133,-11.57422 -0.13687,-1.19661 4.22855,-5.48737 8.38477,-8.24219 3.05883,-2.02745 4.85891,-3.02938 7.12695,-2.94336 z m -62.76367,12.8125 7.1289,5.7793 c 7.97869,6.46968 10.53728,9.30133 9.42383,10.42578 -0.38335,0.38713 -2.35547,1.09805 -4.38281,1.57812 -2.02735,0.48008 -6.3446,0.8711 -9.59375,0.8711 -5.01064,0 -6.08009,-0.2237 -7.04883,-1.47266 l -1.14258,-1.47265 1.76367,-5.86915 c 0.96952,-3.2288 2.23204,-6.76392 2.80665,-7.85546 l 1.04492,-1.98438 z m -45.83008,0.39649 c 0.25459,0 2.70422,2.68586 5.44141,5.96875 4.93963,5.92438 6.29418,8.65499 4.96484,9.99609 -0.951,0.95939 -11.4583,0.82972 -12.51953,-0.1543 -0.97209,-0.90133 -0.92568,-1.62813 0.67773,-10.45312 0.53547,-2.94716 1.18095,-5.35742 1.43555,-5.35742 z m 89.04492,0.26367 c 0.0477,-0.002 0.0822,0.006 0.10352,0.0273 1.04277,1.0261 4.5957,12.40309 4.5957,14.7168 0,2.07589 -0.24137,2.49033 -1.87109,3.21094 -2.61149,1.15471 -6.91175,0.92179 -14.86329,-0.79883 -5.11538,-1.10692 -5.74069,-1.66336 -4.4414,-3.94922 1.2173,-2.14162 14.99708,-13.1317 16.47656,-13.20703 z m 45.49219,0.55078 c 0.74984,0.11664 1.09807,1.77157 1.78515,5.48047 1.04476,5.63965 1.03767,9.26697 -0.0215,9.91406 -1.1085,0.67728 -7.59743,1.22873 -9.15039,0.77734 -3.13991,-0.91265 -3.49023,-1.18528 -3.49023,-2.69531 0,-1.6012 2.85992,-5.57668 8.05273,-11.19531 1.41513,-1.53117 2.24101,-2.37194 2.82422,-2.28125 z m -92.50781,0.1582 c 0.0935,10e-4 0.15405,0.0265 0.18164,0.0703 1.04863,1.6696 -2.17899,12.02576 -4.50391,14.45118 -1.98878,2.07474 -17.22344,2.2872 -18.49805,0.25781 -0.46462,-0.73976 1.7864,-2.73774 7.33594,-6.51172 5.58723,-3.79962 14.08109,-8.299 15.48438,-8.26758 z m 50.58398,0.27149 c 3.24889,0.22871 22.79823,12.3485 22.42578,14.13671 -0.10227,0.49103 -1.17696,1.13458 -2.38867,1.42969 -2.6966,0.65668 -11.62242,0.62759 -13.67187,-0.0449 -2.17765,-0.71466 -2.94973,-1.66269 -4.60352,-5.65039 -1.82484,-4.40018 -2.80211,-8.76912 -2.18359,-9.75391 0.0609,-0.097 0.20528,-0.13252 0.42187,-0.11718 z m 44.58398,1.51367 c 0.9397,0.1969 7.90235,11.31303 7.90235,12.69726 0,0.56676 -0.50408,1.24652 -1.12109,1.50977 -1.3712,0.58507 -1.37221,0.58328 -2.67774,-0.42383 -1.74973,-1.34978 -5.20637,-12.7496 -4.17383,-13.76562 0.0173,-0.0171 0.04,-0.0239 0.0703,-0.0176 z m -139.88671,0.46094 c 0.0548,0.0129 0.0904,0.0645 0.10156,0.15234 0.28535,2.23966 -1.95245,10.06569 -3.45313,12.07617 -1.58175,2.11911 -2.69336,2.47743 -3.90039,1.26172 -0.63205,-0.6369 -0.6331,-1.00077 -0.006,-2.86719 1.00241,-2.98217 6.4351,-10.81359 7.25782,-10.62304 z m 141.76367,18.20117 c 2.28855,-0.0387 4.55399,0.2312 4.79101,0.84179 0.60466,1.55771 -2.22494,6.14384 -9.84375,15.95118 -4.19117,5.39508 -10.087,13.21975 -13.10351,17.38671 -5.87183,8.11128 -18.65715,25.03581 -21.93945,29.04493 -5.21818,6.37363 -4.31656,4.32168 2.99218,-6.8125 15.58282,-23.73897 26.4349,-41.70296 29.09766,-48.16993 1.41374,-3.43352 2.80276,-6.68861 3.08594,-7.23437 0.3217,-0.62002 2.63137,-0.96914 4.91992,-1.00781 z m -131.27149,0.0137 c 4.51611,0 4.81195,0.10614 6.10157,2.18359 0.74532,1.2007 2.43139,5.36978 3.74804,9.26367 2.51867,7.44868 3.83776,10.72038 12.33399,30.62696 2.88842,6.76755 5.75737,13.64394 6.375,15.28125 0.61763,1.63731 0.92987,2.97851 0.69531,2.97851 -0.50213,0 -23.96054,-37.44224 -28.76758,-45.91601 -3.62182,-6.38449 -6.04472,-12.32212 -5.54883,-13.59961 0.18175,-0.46823 2.34475,-0.81836 5.0625,-0.81836 z m 20.14649,0 c 9.952,0 11.75599,1.13767 14.26758,8.99414 1.01992,3.19043 6.9967,27.41799 12.32226,49.94922 0.69659,2.94715 1.18977,5.35937 1.0957,5.35937 -0.0941,0 -3.16971,-4.40688 -6.83398,-9.79492 -7.06673,-10.39104 -23.87775,-38.07252 -27.26367,-44.89258 -4.29407,-8.64928 -3.65209,-9.61523 6.41211,-9.61523 z m 98.98828,0 c 2.30327,0 4.28248,0.36365 4.45898,0.81836 0.88814,2.28798 -4.02544,11.76376 -19.54687,37.69336 -9.56742,15.98302 -14.61524,23.57441 -14.61524,21.97656 0,-0.41041 4.23427,-10.92075 9.40821,-23.35352 5.17394,-12.43276 10.33262,-25.13265 11.46679,-28.2246 2.96652,-8.08719 3.7806,-8.91016 8.82813,-8.91016 z m -20.32227,0.0176 c 7.74151,-0.0176 9.56641,0.53887 9.56641,2.91601 0,2.58986 -4.15134,9.87163 -19.24414,33.75391 -13.79912,21.83518 -18.15039,28.4066 -18.15039,27.41406 0,-2.80682 13.29431,-55.23454 14.81641,-58.42969 2.25047,-4.72415 4.34057,-5.63452 13.01171,-5.65429 z m -109.09765,0.0215 c 0.96839,0.0175 1.78386,0.10714 2.24023,0.29102 0.58552,0.23594 1.44786,1.97288 2.08789,4.20508 1.80824,6.30647 13.76618,26.35005 32.95117,55.23046 2.81781,4.24186 4.90577,7.71094 4.63868,7.71094 -0.71827,0 -8.63737,-10.17566 -28.62696,-36.79492 -19.21119,-25.5827 -20.91454,-28.01396 -20.6289,-29.38867 0.1463,-0.70415 4.43268,-1.30641 7.33789,-1.25391 z m 85.97265,0.0176 c 3.4703,0.01 4.84827,0.30738 5.99805,1.07227 1.84182,1.22525 1.8851,1.34669 1.65039,4.6621 -0.23524,3.32287 -7.40517,32.93677 -12.10156,49.97852 -1.29348,4.69363 -2.52154,8.5332 -2.72852,8.5332 -0.20697,0 -0.62612,-1.87573 -0.93164,-4.16797 -4.01581,-30.1301 -6.55499,-50.82343 -6.55859,-53.46093 -0.008,-5.76081 0.7451,-6.23328 10.43555,-6.53907 1.69085,-0.0533 3.07955,-0.0817 4.23632,-0.0781 z m -29.89648,0.0391 c 14.17356,0.16659 13.5319,-1.53839 9.96875,26.49805 -1.49821,11.78864 -3.19803,24.8287 -3.7793,28.97656 -0.58126,4.14785 -1.22025,8.02212 -1.41992,8.61133 -0.4605,1.35892 -8.39406,-28.33116 -13.28906,-49.73438 -3.16444,-13.83637 -2.77779,-14.4844 8.51953,-14.35156 z m -34.20703,9.43164 c 0.21018,0 2.27573,3.29142 4.58789,7.31641 2.31215,4.02498 10.2697,17.1591 17.68359,29.18359 7.4139,12.0245 14.43059,23.86569 15.5918,26.31445 1.16121,2.44877 2.98391,7.70792 4.05273,11.68946 1.06882,3.98155 2.63517,9.27292 3.48047,11.75781 0.84531,2.48487 1.53711,4.81278 1.53711,5.17187 0,1.93632 -2.30654,-0.69213 -8.55273,-9.73633 -2.28748,-3.31216 -6.29132,-8.71015 -8.89649,-11.99804 -2.60517,-3.2879 -5.09976,-6.65415 -5.54297,-7.47656 -0.44319,-0.82242 -2.88542,-7.02932 -5.42773,-13.79688 -2.54232,-6.76755 -7.58326,-19.2875 -11.20117,-27.82031 -6.03934,-14.2437 -8.29837,-20.60547 -7.3125,-20.60547 z m 95.62304,0 c 1.02204,0 -0.84743,5.52126 -5.99023,17.6836 -3.39032,8.01782 -8.58151,20.9841 -11.53711,28.8125 -2.95561,7.8284 -5.73651,14.90436 -6.17773,15.7246 -0.44123,0.82021 -2.48431,3.54802 -4.54102,6.0625 -2.05672,2.51448 -6.67741,8.65931 -10.26758,13.65625 -8.25828,11.49428 -9.69268,12.55261 -6.96093,5.12891 0.67125,-1.82421 2.22508,-6.9982 3.45117,-11.4961 1.22609,-4.49788 3.17873,-10.21514 4.33984,-12.70312 1.16112,-2.48797 7.2931,-12.75159 13.62695,-22.81054 6.33385,-10.05895 14.29962,-23.18713 17.70118,-29.17383 3.40155,-5.98669 6.2606,-10.88477 6.35546,-10.88477 z m -47.63281,1.42774 c 0.16973,0.30618 2.04348,13.89223 4.16406,30.19336 l 3.85547,29.63866 -1.63086,6.87891 c -0.89622,3.78323 -2.70176,10.5403 -4.01367,15.01563 -1.3119,4.47531 -2.4825,8.13672 -2.60156,8.13672 -0.23714,0 -6.30562,-22.42884 -7.34375,-27.14258 -0.59526,-2.70288 -0.34024,-5.26522 3.30664,-33.10352 2.17412,-16.59609 4.09395,-29.92335 4.26367,-29.61718 z"
       style="opacity:1;fill:#000000;fill-opacity:1;fill-rule:evenodd;stroke:none;stroke-width:0.99921268;stroke-linejoin:round;stroke-miterlimit:4;stroke-dasharray:none;stroke-opacity:1"
       inkscape:connector-curvature="0" />
  </g>
</svg>
