<?xml version="1.0" encoding="UTF-8" standalone="no"?>
<!-- Created with Inkscape (http://www.inkscape.org/) -->

<svg
   xmlns:dc="http://purl.org/dc/elements/1.1/"
   xmlns:cc="http://creativecommons.org/ns#"
   xmlns:rdf="http://www.w3.org/1999/02/22-rdf-syntax-ns#"
   xmlns:svg="http://www.w3.org/2000/svg"
   xmlns="http://www.w3.org/2000/svg"
   xmlns:sodipodi="http://sodipodi.sourceforge.net/DTD/sodipodi-0.dtd"
   xmlns:inkscape="http://www.inkscape.org/namespaces/inkscape"
   width="202.21407mm"
   height="125.8228mm"
   viewBox="0 0 716.50653 445.82882"
   id="svg2"
   version="1.1"
   inkscape:version="0.91 r13725"
   sodipodi:docname="elefante.svg">
  <defs
     id="defs4" />
  <sodipodi:namedview
     id="base"
     pagecolor="#ffffff"
     bordercolor="#666666"
     borderopacity="1.0"
     inkscape:pageopacity="0.0"
     inkscape:pageshadow="2"
     inkscape:zoom="0.35"
     inkscape:cx="-309.68072"
     inkscape:cy="242.08767"
     inkscape:document-units="px"
     inkscape:current-layer="layer1"
     showgrid="false"
     inkscape:window-width="1366"
     inkscape:window-height="717"
     inkscape:window-x="0"
     inkscape:window-y="0"
     inkscape:window-maximized="1"
     fit-margin-top="1"
     fit-margin-left="1"
     fit-margin-right="1"
     fit-margin-bottom="1" />
  <metadata
     id="metadata7">
    <rdf:RDF>
      <cc:Work
         rdf:about="">
        <dc:format>image/svg+xml</dc:format>
        <dc:type
           rdf:resource="http://purl.org/dc/dcmitype/StillImage" />
        <dc:title></dc:title>
      </cc:Work>
    </rdf:RDF>
  </metadata>
  <g
     inkscape:label="Layer 1"
     inkscape:groupmode="layer"
     id="layer1"
     transform="translate(-13.793975,-279.52997)">
    <path
       style="fill:#000000"
       d="m 193.53869,720.0323 c -2.57959,-1.12488 -7.85775,-8.5977 -12.19209,-17.26149 -9.63386,-19.257 -9.9183,-28.50212 -1.36574,-44.39318 3.45205,-6.41411 6.31433,-12.22955 6.3606,-12.92317 0.0462,-0.69365 -5.40095,0.59056 -12.10495,2.85381 -27.65057,9.33477 -59.13905,6.49614 -89.536868,-8.07163 -26.539056,-12.71849 -45.710729,-36.76787 -60.381033,-75.74327 -4.143212,-11.0075 -5.383951,-19.38612 -6.53582,-44.1357 -1.976395,-42.46581 2.255132,-63.13983 20.140474,-98.40059 7.098388,-13.99439 14.842902,-32.53943 17.210021,-41.21119 13.677105,-50.10508 54.886766,-84.95044 100.466126,-84.95044 9.05162,0 42.96702,10.40874 64.83494,19.89804 2.29065,0.99399 5.21588,-1.35368 9.81274,-7.8753 11.32071,-16.06084 26.51371,-24.74491 43.29177,-24.74491 12.01594,0 16.96666,2.62033 34.0552,18.02481 11.17565,10.07432 16.79671,13.77182 19.83569,13.04781 2.3324,-0.55567 14.08976,-3.94203 26.12747,-7.52525 37.01706,-11.01874 66.30635,-15.91609 95.79343,-16.01727 25.36551,-0.087 27.48975,0.25524 49.42953,7.96474 30.48658,10.71279 49.08219,19.35996 74.61174,34.69532 11.66198,7.00525 27.88276,16.33103 36.04618,20.72393 33.88544,18.23452 54.11819,37.49177 61.52493,58.55862 1.9662,5.5924 7.92022,14.14314 14.67358,21.07309 7.73093,7.93314 13.51039,16.61868 18.07518,27.16396 l 6.71043,15.50196 -0.5867,49.21299 -0.58672,49.21296 8.93473,17.79389 c 9.75574,19.42898 10.50125,25.02642 5.66688,42.54879 -1.76963,6.4141 -3.28246,17.38697 -3.36185,24.38418 l -0.1444,12.72218 -2.88687,-8.02013 c -1.58777,-4.41108 -6.74274,-13.51707 -11.45549,-20.23559 -4.71277,-6.71847 -8.57071,-13.12813 -8.57319,-14.24366 -0.002,-1.11554 -2.94525,-7.60713 -6.53941,-14.42574 -7.42545,-14.08707 -7.08951,-20.14274 1.62589,-29.3074 3.48018,-3.65955 4.76804,-6.65096 3.64544,-8.46739 -0.95474,-1.54479 -2.29407,-23.80664 -2.97627,-49.47076 -1.28475,-48.33073 -3.13278,-58.50184 -10.90127,-59.9979 -3.03181,-0.58389 -3.56436,3.05546 -4.34001,29.65915 -0.77833,26.69451 -1.53682,31.84767 -6.33622,43.04688 -2.99864,6.9972 -10.71526,25.28135 -17.14803,40.63145 -6.4328,15.35011 -14.90031,32.3779 -18.81668,37.83953 -14.24759,19.86917 -15.53149,22.77524 -15.53149,35.15519 0,9.64282 1.51574,14.77651 8.04002,27.23098 9.13127,17.43106 9.2956,23.26646 0.76992,27.34026 -13.77617,6.58261 -80.73303,10.23377 -93.05775,5.07444 -6.63155,-2.77606 -19.60098,-28.37522 -23.44418,-46.2742 -2.08873,-9.72795 -1.84081,-11.75394 2.4444,-19.97529 2.62289,-5.03211 8.0073,-13.10137 11.96537,-17.93169 l 7.19648,-8.78234 -14.24227,4.73546 c -18.22923,6.06114 -43.96579,8.81645 -96.93645,10.37785 -53.44818,1.57549 -75.08417,-1.26164 -97.88752,-12.83602 l -15.47336,-7.85387 -14.35174,11.43372 c -7.89345,6.28855 -18.89816,14.75926 -24.45488,18.82376 -9.44983,6.91215 -10.02333,7.86993 -8.86841,14.81131 0.67914,4.08169 4.48455,15.00045 8.4565,24.26387 3.97193,9.26345 7.00854,16.96959 6.74802,17.1248 -0.26054,0.15521 -3.81326,2.26909 -7.89497,4.69756 -18.51149,11.01363 -63.008,18.93089 -75.58108,13.44808 z m 20.45162,-9.41981 c 0,-7.81779 -15.70127,-18.52915 -21.71387,-14.81316 -2.25787,1.39543 4.01711,12.82887 8.46157,15.41753 5.37995,3.13353 13.2523,2.77451 13.2523,-0.60437 z m 20.88589,-2.56354 c 2.08103,-1.74021 -2.70204,-5.14369 -7.22867,-5.14369 -3.77846,0 -5.17576,1.15577 -5.17576,4.28112 0,3.59586 0.93334,4.05721 5.83101,2.88228 3.20704,-0.7694 6.16508,-1.67825 6.57342,-2.01971 z m 23.08531,-6.78111 4.74448,-3.6635 -5.43032,-13.42918 c -2.98665,-7.38606 -6.18894,-18.22826 -7.11615,-24.09379 l -1.68584,-10.66455 17.04815,-13.01261 c 41.2629,-31.49534 56.01259,-50.25429 58.28234,-74.12455 l 1.24571,-13.10076 2.61261,8.48145 c 3.58137,11.62631 1.5108,21.33189 -6.90212,32.35342 -8.18806,10.72692 -8.97194,17.73652 -2.6864,24.02206 10.58418,10.58419 15.61364,11.25656 80.38795,10.7468 69.54989,-0.54735 100.49228,-2.86299 115.72495,-8.6605 27.07556,-10.30487 60.16647,-34.44373 75.88818,-55.35824 13.2228,-17.59022 16.75259,-30.47716 15.84158,-57.83607 -0.6662,-20.00674 -1.17132,-22.19149 -6.84595,-29.60963 -7.15718,-9.3562 -6.0684,-12.86022 1.61009,-5.18172 7.87272,7.87271 10.83746,20.88977 10.73121,47.11662 -0.0763,18.83743 -0.98412,25.56727 -4.71932,34.98599 -6.00648,15.14608 -20.91545,33.93429 -35.82551,45.14711 -21.33244,16.04266 -28.79152,23.53875 -39.11861,39.31257 -11.54866,17.63974 -13.95665,26.39822 -10.30216,37.47147 2.75498,8.34767 7.34646,11.51116 11.16504,7.69257 3.15341,-3.1534 12.75218,-3.07754 15.95582,0.12617 1.39043,1.39042 7.88151,2.61025 14.42461,2.71073 10.81722,0.16602 12.52341,0.8667 18.80564,7.72182 3.80002,4.14652 7.31891,8.76855 7.8198,10.27119 1.19136,3.57415 31.50837,0.89913 31.43245,-2.77342 -0.0277,-1.33939 -2.48966,-8.16024 -5.47107,-15.15744 -11.69132,-27.43877 -10.80941,-37.50804 5.47857,-62.55072 10.48409,-16.11925 34.18892,-65.7007 41.58018,-86.96984 3.49827,-10.06673 4.04119,-17.88723 4.04549,-58.27507 l 0.004,-46.648 -6.32255,-12.72218 c -9.90562,-19.93358 -29.6479,-38.12096 -56.22742,-51.7997 -12.24511,-6.30175 -27.87543,-15.23591 -34.73404,-19.85372 -23.79001,-16.01746 -76.61773,-37.72654 -101.4641,-41.69576 -16.25351,-2.59651 -43.83318,-0.28243 -75.40044,6.32649 -22.68731,4.74983 -55.10972,13.62256 -57.11813,15.63097 -0.70547,0.70547 2.1823,10.10723 6.41728,20.89281 19.22459,48.96102 26.29201,78.08585 24.08113,99.23834 -0.7031,6.72709 -4.20529,21.36825 -7.78262,32.53596 -6.06104,18.92125 -7.45592,21.25656 -20.47037,34.27102 -20.01547,20.01546 -24.45873,21.04946 -58.49687,13.61274 -27.02854,-5.90525 -78.70515,-31.98469 -84.37671,-42.58211 -1.32961,-2.48436 -1.60914,-4.12213 -0.62128,-3.63953 30.9506,15.12064 45.33353,20.96171 58.18301,23.62879 8.63805,1.79294 22.57091,6.18746 30.96196,9.76559 24.79953,10.57513 35.19087,8.19095 54.17706,-12.43031 9.48754,-10.30458 11.7433,-14.4375 15.20447,-27.85721 6.46087,-25.05009 6.57176,-33.84557 0.64622,-51.25574 -2.88095,-8.46477 -6.45678,-20.63839 -7.94625,-27.05249 -1.48948,-6.4141 -3.9457,-13.57033 -5.45827,-15.90272 -1.51257,-2.3324 -6.2067,-14.25945 -10.4314,-26.50455 -8.98962,-26.056 -15.34428,-36.69425 -24.85765,-41.61379 -3.7922,-1.96103 -11.66813,-6.85291 -17.50204,-10.87084 -9.15834,-6.30752 -11.87103,-7.16369 -19.86088,-6.26841 -12.56479,1.40791 -18.46611,6.38819 -28.21324,23.80987 -10.27766,18.3699 -30.81071,39.1839 -38.65496,39.1839 -8.28758,0 -6.53872,-2.5949 5.71614,-8.48145 6.56851,-3.15516 12.32313,-7.70807 14.21619,-11.24757 3.05913,-5.71962 2.92598,-6.17635 -3.48757,-11.96289 -5.13137,-4.62975 -10.26224,-6.59195 -22.26381,-8.51439 -8.57764,-1.37399 -20.20074,-3.96339 -25.82912,-5.75423 -14.02723,-4.46318 -29.65085,-2.19502 -47.95413,6.96174 -29.674173,14.84538 -40.741773,29.19224 -56.25625,72.92461 -4.344059,12.24509 -10.188933,26.43919 -12.988606,31.54242 -6.146063,11.20303 -6.190918,11.60307 -0.988981,8.81908 5.87581,-3.14463 15.61553,-2.70645 20.407672,0.91816 4.870203,3.68363 3.350345,4.06119 -4.434159,1.10152 -3.842936,-1.46107 -8.283248,-1.43619 -13.906235,0.0779 -9.057116,2.43882 -13.055523,8.05862 -15.55753,21.86625 -1.379976,7.61555 -1.184957,8.04391 3.050192,6.69972 5.498439,-1.74513 14.820177,0.33219 14.820177,3.30264 0,1.38968 -1.573778,1.3123 -4.433104,-0.21796 -7.689156,-4.11512 -21.011257,3.92825 -21.011257,12.68575 0,1.24287 3.101036,2.37264 6.891181,2.51061 l 6.89118,0.2509 -6.36109,1.35576 -6.36109,1.35579 -0.610295,20.94096 -0.610295,20.941 11.212112,-1.44406 c 6.166658,-0.79422 16.937093,-4.10537 23.934292,-7.35806 13.199022,-6.13565 37.106366,-26.136 37.106366,-31.04231 0,-7.43511 25.40552,-28.57483 34.34095,-28.57483 7.01828,0 3.94157,3.36129 -6.52016,7.12328 -5.69017,2.04616 -12.57593,6.09417 -15.30168,8.99561 -6.24579,6.64834 -4.27577,10.43184 9.3184,17.89638 5.3992,2.96469 12.05913,7.49697 14.79983,10.07173 5.5084,5.17487 10.22601,5.8501 16.69275,2.38921 5.73001,-3.06662 7.85904,-0.56559 2.7184,3.19335 -4.75294,3.47542 -19.91625,8.54754 -23.6022,7.89489 -1.39685,-0.24732 -3.52623,1.39366 -4.73198,3.64662 -2.66118,4.97243 -0.4861,6.06554 15.9017,7.99162 9.95004,1.16942 12.20927,2.34942 17.24835,9.00887 18.69845,24.71101 31.46869,34.1677 46.13981,34.1677 6.41094,0 7.91517,-0.98751 10.49697,-6.89118 2.95779,-6.76347 3.01685,-6.59442 3.18663,9.12372 0.15563,14.41834 -0.63869,17.69473 -7.96859,32.86563 -4.47784,9.2679 -9.84296,22.09865 -11.92248,28.51274 -2.0795,6.41411 -7.0512,19.6608 -11.04823,29.43714 -5.18393,12.67942 -6.88455,19.5178 -5.93215,23.85409 1.22103,5.55927 2.12634,6.07895 10.59009,6.07895 6.71511,0 10.88037,1.39815 15.17796,5.09479 5.43304,4.6733 6.39823,4.84906 11.66687,2.12455 5.28403,-2.7325 6.21965,-2.55164 11.6882,2.25947 7.01388,6.17067 16.64389,6.83126 23.41101,1.60595 z m 20.1698,-205.41114 c -3.79015,-1.86842 -6.89119,-4.18772 -6.89119,-5.15401 0,-0.96632 2.62396,-0.44619 5.831,1.15578 3.20706,1.60199 8.21641,3.87843 11.13191,5.05879 4.49246,1.81879 4.65417,2.16061 1.06018,2.24131 -2.3324,0.0525 -7.34176,-1.43348 -11.1319,-3.30187 z m 23.85408,-2.53174 c 8.62484,-5.27323 11.56955,-9.20133 14.90457,-19.88186 1.93959,-6.21162 2.87963,-7.50587 2.97667,-4.09828 0.22728,7.9801 -6.10739,18.98872 -13.58644,23.61104 -3.80363,2.35077 -7.75724,4.27057 -8.78578,4.26621 -1.02858,-0.004 0.99238,-1.75806 4.49098,-3.89711 z M 125.50404,384.16426 c 1.75448,-5.34857 15.13285,-12.24222 22.52359,-11.60604 8.67405,0.74664 11.83084,5.93142 3.6114,5.93142 -3.00017,0 -10.29197,1.83795 -16.20398,4.08435 -6.87244,2.61132 -10.45408,3.18485 -9.93101,1.59027 z m 177.57889,-27.69187 c -14.33978,-29.36468 -19.78888,-35.11183 -34.90654,-36.8158 -12.35509,-1.39261 -16.75519,1.57218 -24.83689,16.73504 -5.18448,9.72705 -8.74913,13.76744 -14.1299,16.01566 -3.95791,1.65373 -7.67327,2.52968 -8.25638,1.94659 -0.5831,-0.5831 2.1781,-2.41323 6.13603,-4.06694 5.35063,-2.23564 8.93764,-6.27407 13.98638,-15.74643 3.73458,-7.00681 8.37938,-14.05859 10.32175,-15.67062 8.98871,-7.45996 35.87524,-0.52627 42.09004,10.85449 9.07355,16.61581 24.83309,51.16003 23.80768,52.18542 -0.66156,0.66156 -7.05701,-10.78528 -14.21217,-25.43741 z M 559.60955,703.2234 c 0,-0.99122 -2.86847,-5.76204 -6.37439,-10.60182 -6.74458,-9.3106 -14.13707,-11.56281 -18.94356,-5.77136 -1.95871,2.3601 -1.79191,4.42305 0.75594,9.35006 1.79804,3.47702 4.48193,6.80981 5.96422,7.40621 4.53145,1.82322 18.5978,1.53347 18.59779,-0.38309 z m 23.32401,-1.00872 c 0,-6.16246 -16.11972,-16.23383 -21.07816,-13.16933 -1.17267,0.72475 -0.19487,4.37146 2.31082,8.61831 3.60379,6.10798 5.57207,7.36197 11.55551,7.36197 4.57546,0 7.21183,-1.02758 7.21183,-2.81095 z m 135.49189,-70.99684 c 0.11619,-2.69277 -0.71484,-4.32353 -1.84684,-3.62391 -1.13202,0.69962 -2.64655,-1.39094 -3.36564,-4.64567 -5.71229,-25.85531 -12.37833,-38.13862 -17.33663,-31.94567 -5.52375,6.89919 -4.84056,11.85554 3.91589,28.40914 4.85925,9.18613 10.32118,19.08749 12.13765,22.00299 l 3.30266,5.30091 1.49077,-5.30091 c 0.81993,-2.9155 1.5859,-7.5041 1.70214,-10.19688 z m -550.40982,6.75341 c 7.41442,-2.43415 9.88502,-4.21334 9.01154,-6.48957 -0.66187,-1.72478 -1.2034,-6.39751 -1.2034,-10.38384 0,-8.41733 -2.94446,-9.20484 -9.91876,-2.65283 -6.62333,6.2223 -23.48408,7.4724 -40.83402,3.02756 -11.01752,-2.82256 -15.97189,-5.70568 -27.753103,-16.15051 -18.367169,-16.28373 -23.938767,-27.33382 -24.165446,-47.927 l -0.166306,-15.10785 -18.023089,-1.10299 c -9.912699,-0.60663 -19.741345,-1.80063 -21.841428,-2.65334 -3.304951,-1.34189 -3.636022,-0.7303 -2.462286,4.54885 2.724656,12.25467 8.090426,27.61317 14.200693,40.64672 20.992218,44.77763 76.936305,69.41861 123.155605,54.2448 z m 30.41194,-27.3067 c 2.65728,-6.99451 5.90152,-14.51311 7.2094,-16.70798 1.3079,-2.19489 3.68012,-7.68134 5.27161,-12.19209 2.70478,-7.66615 2.62971,-8.2014 -1.15009,-8.2014 -6.98748,0 -45.2879,-21.15317 -52.26496,-28.86571 -5.0608,-5.59431 -10.68325,-8.61837 -23.324,-12.54492 -19.09709,-5.93208 -27.6636,-6.45354 -37.627194,-2.29048 -15.936055,6.65851 -21.051735,20.27424 -15.191431,40.43298 1.87562,6.45189 6.341048,15.06875 9.923197,19.14857 9.319928,10.61482 35.168278,22.87797 50.570608,23.99207 17.42172,1.26017 26.70921,-2.49931 39.77954,-16.10232 11.98708,-12.47565 14.49253,-11.05447 7.98188,4.52768 -1.74929,4.18665 -3.18055,11.0523 -3.18055,15.25697 0,12.11205 6.2192,8.76804 12.00199,-6.45337 z m 520.95997,3.71554 c -1.36295,-9.82507 -4.94511,-19.61336 -7.17781,-19.61336 -0.91952,0 -0.36067,5.48643 1.2419,12.19208 1.60257,6.70565 2.94775,12.90771 2.98929,13.78236 0.0415,0.87465 0.9697,1.59028 2.06257,1.59028 1.09289,0 1.49071,-3.57812 0.88405,-7.95136 z m -15.05331,-83.7524 c -0.2861,-28.28143 -1.48609,-54.89543 -2.66668,-59.1422 -3.03699,-10.92487 -19.42822,-37.85875 -23.04718,-37.87085 -0.73187,-0.002 -1.01361,6.13365 -0.62612,13.63575 0.66869,12.94669 1.02275,13.75114 6.96387,15.82221 11.12062,3.87667 13.05405,12.42834 14.6737,64.90266 1.19257,38.63872 2.59526,54.05607 4.91939,54.07125 0.16666,10e-4 0.0692,-23.13735 -0.21698,-51.41882 z M 78.423172,527.82332 c 20.668311,-3.92071 35.918738,-11.07035 42.085058,-19.73015 5.73165,-8.04936 5.59389,-9.12388 -1.70186,-13.27393 l -6.10187,-3.47095 -12.989099,12.36001 c -7.144008,6.79801 -19.181676,15.40859 -26.750376,19.13466 -19.317974,9.51021 -19.163645,9.65104 5.458147,4.98036 z"
       id="path3401"
       inkscape:connector-curvature="0"
       sodipodi:nodetypes="csscsssssssssssssssssssscccssscsscsssssssssssssssscssscsssscsccssssssscsccsscsscssssssssssssssscsscsssscccssssssssssssssssssssssssssssssssssssssssssscccccsssssssssssssssssssssssssccsssscssssscsssssssssscssssssssssssssssscssssscscssssssscsssssssssssssssssssssscsssscssscsssscsss" />
  </g>
</svg>
