<?xml version="1.0" encoding="UTF-8" standalone="no"?>
<!-- Created with Inkscape (http://www.inkscape.org/) -->

<svg
   xmlns:dc="http://purl.org/dc/elements/1.1/"
   xmlns:cc="http://creativecommons.org/ns#"
   xmlns:rdf="http://www.w3.org/1999/02/22-rdf-syntax-ns#"
   xmlns:svg="http://www.w3.org/2000/svg"
   xmlns="http://www.w3.org/2000/svg"
   xmlns:sodipodi="http://sodipodi.sourceforge.net/DTD/sodipodi-0.dtd"
   xmlns:inkscape="http://www.inkscape.org/namespaces/inkscape"
   width="89.946838mm"
   height="72.099068mm"
   viewBox="0 0 318.70927 255.46914"
   id="svg4392"
   version="1.1"
   inkscape:version="0.91 r13725"
   sodipodi:docname="heart_cut.svg">
  <defs
     id="defs4394" />
  <sodipodi:namedview
     id="base"
     pagecolor="#ffffff"
     bordercolor="#666666"
     borderopacity="1.0"
     inkscape:pageopacity="0.0"
     inkscape:pageshadow="2"
     inkscape:zoom="1.4"
     inkscape:cx="155.90742"
     inkscape:cy="120.16449"
     inkscape:document-units="px"
     inkscape:current-layer="layer1"
     showgrid="false"
     inkscape:snap-others="false"
     inkscape:snap-nodes="false"
     inkscape:window-width="1366"
     inkscape:window-height="717"
     inkscape:window-x="0"
     inkscape:window-y="0"
     inkscape:window-maximized="1"
     fit-margin-top="1"
     fit-margin-left="1"
     fit-margin-right="1"
     fit-margin-bottom="1" />
  <metadata
     id="metadata4397">
    <rdf:RDF>
      <cc:Work
         rdf:about="">
        <dc:format>image/svg+xml</dc:format>
        <dc:type
           rdf:resource="http://purl.org/dc/dcmitype/StillImage" />
        <dc:title />
      </cc:Work>
    </rdf:RDF>
  </metadata>
  <g
     inkscape:label="Layer 1"
     inkscape:groupmode="layer"
     id="layer1"
     transform="translate(-215.72293,-403.44656)">
    <g
       id="g4199"
       transform="matrix(0.65549567,0,0,0.65549502,129.21557,182.99459)"
       style="fill:none;fill-opacity:1;stroke:#ff0000;stroke-width:1.08110827;stroke-miterlimit:4;stroke-dasharray:none;stroke-opacity:1">
      <path
         inkscape:connector-curvature="0"
         id="path5005"
         d="m 372.217,697.44659 c -1.35582,-3.24495 -2.46512,-6.19602 -2.46512,-6.55794 0,-1.43844 -11.49498,-18.58379 -15.65685,-23.35299 -5.2123,-5.97291 -5.58974,-9.98705 -1.33878,-14.23801 4.88109,-4.8811 12.77422,-4.10812 17.68857,1.73224 3.69781,4.3946 4.29248,4.61256 6.70383,2.45704 4.35983,-3.89724 11.11714,-3.99535 14.89619,-0.21627 4.2338,4.23379 2.85687,10.32024 -4.60701,20.36431 -3.86923,5.2068 -8.32214,13.12194 -9.89534,17.58919 l -2.86037,8.1223 -2.46512,-5.89989 z m 25.85311,-41.96566 c -0.57492,-1.4982 0.60933,-4.00211 3.04463,-6.43739 l 3.9855,-3.98551 1.03903,4.13988 c 1.68043,6.69539 -5.70437,12.44555 -8.06916,6.28302 z m -30.78261,-8.53766 c -2.55155,-2.82975 -4.14376,-3.15613 -11.96174,-2.45193 -7.47867,0.67367 -9.51684,0.31392 -11.93785,-2.10709 -3.52344,-3.52343 -2.12082,-9.15399 2.84708,-11.42911 1.78252,-0.81631 3.56536,-2.72481 3.96189,-4.2411 1.68258,-6.43422 12.36583,-4.46764 16.76951,3.08697 2.26698,3.88906 5.45809,20.40652 3.94248,20.40652 -0.37293,0 -2.00256,-1.46891 -3.62137,-3.26426 z m 12.30676,-3.22907 c -1.86054,-6.16952 -0.66789,-11.93533 2.93948,-14.2108 3.54383,-2.23541 7.894,0.46718 8.61282,5.3508 0.29502,2.00437 1.58737,4.4128 2.87186,5.35204 1.2845,0.93926 2.07977,3.05232 1.76729,4.69573 -0.44619,2.34637 -2.08057,3.08663 -7.61162,3.4474 -6.77097,0.44164 -7.10289,0.26232 -8.57983,-4.63517 z m 28.58098,-2.0197 c -5.0434,-2.74031 -5.59238,-4.29755 -4.77126,-13.53423 0.49465,-5.56418 1.46793,-7.79647 3.97352,-9.11362 1.82512,-0.95942 5.28376,-3.3793 7.68585,-5.37751 8.71022,-7.24566 19.58093,-2.02748 19.58093,9.39924 0,6.36141 -2.42265,8.59847 -9.31176,8.59847 -5.34011,0 -5.57182,0.21671 -4.92729,4.60824 0.56802,3.87004 0.014,4.86007 -3.45828,6.18022 -2.27405,0.86461 -4.26318,1.54416 -4.42032,1.51013 -0.15712,-0.034 -2.11525,-1.05594 -4.35139,-2.27094 z m -83.90236,-9.91694 c -1.65091,-1.82423 -2.32217,-4.15815 -1.73134,-6.01969 2.07656,-6.54264 1.2829,-17.32726 -1.50154,-20.40404 -3.92693,-4.3392 -0.92272,-3.76149 7.18818,1.38229 8.86869,5.62436 13.71267,11.77575 13.71267,17.41381 0,9.08094 -11.75863,14.15739 -17.66797,7.62763 z m -25.91486,-8.22226 c -5.59908,-4.40138 -4.94563,-8.63205 2.39506,-15.50627 3.82392,-3.58094 7.20527,-7.90135 7.51409,-9.60092 0.52487,-2.88847 0.72643,-2.83807 3.08891,0.77253 2.38976,3.65231 3.30769,8.82375 2.93745,16.54917 -0.35016,7.30658 -10.33749,12.18601 -15.9355,7.78549 z m 141.66518,-7.47005 c -0.57575,-2.62142 -4.1032,-7.95603 -7.83878,-11.85469 -3.73561,-3.89866 -6.46851,-7.41195 -6.07317,-7.80731 0.39535,-0.39535 4.64133,-0.77551 9.43548,-0.84481 7.76733,-0.11236 9.13393,0.35907 12.54765,4.32776 4.50707,5.23979 3.99597,11.66922 -1.38274,17.39459 -4.39225,4.67533 -5.43625,4.4856 -6.68844,-1.21554 z m -73.36144,1.77631 c -2.12445,-0.64858 -6.99138,-2.82623 -10.8154,-4.83928 -6.29645,-3.31457 -6.58814,-3.70404 -3.09011,-4.1261 10.96811,-1.32336 13.93002,-2.44733 19.88762,-7.54681 3.56672,-3.05298 7.86044,-8.24709 9.54163,-11.54249 5.98129,-11.72429 14.4591,-13.37304 23.30066,-4.53148 3.53572,3.53571 4.43721,5.81232 4.43721,11.20572 0,5.6413 -0.85689,7.59904 -5.14525,11.7555 -9.14437,8.86306 -26.36675,13.21196 -38.11636,9.62494 z m 97.33861,-7.90138 c 0,-5.38172 -5.86758,-13.10968 -13.78511,-18.15582 -4.74001,-3.021 -9.46521,-6.58603 -10.50041,-7.9223 -2.71465,-3.50416 -2.39853,-8.5237 0.78436,-12.4544 3.27545,-4.04501 15.09908,-5.95104 20.1494,-3.24819 2.70115,1.4456 3.82634,1.2105 6.36717,-1.33032 6.76803,-6.76803 17.11249,-5.91768 21.06823,1.73188 3.42245,6.61829 1.96851,14.00282 -4.64735,23.6039 -5.65769,8.21057 -19.43629,20.81164 -19.43629,17.77525 z m -124.06941,-7.6789 c -6.95214,-1.24858 -11.36115,-4.60569 -6.0488,-4.60569 1.85613,0 5.64538,-2.03552 8.42056,-4.52338 l 5.04583,-4.52337 0,-15.86772 0,-15.86773 5.24992,-3.55729 c 6.76894,-4.58656 11.16783,-4.49409 16.93172,0.35592 12.82854,10.79449 9.08585,34.1871 -7.13054,44.56741 -6.59945,4.2244 -13.98239,5.54594 -22.46869,4.02185 z m -55.48964,-5.46121 c -4.88606,-2.65189 -7.69576,-11.01397 -6.46147,-19.23023 0.4468,-2.97423 2.55777,-10.54186 4.69105,-16.81696 2.24922,-6.61617 3.49329,-12.94475 2.96131,-15.06431 -1.2387,-4.93541 0.0194,-4.61736 7.12352,1.80079 7.51472,6.78909 16.35549,10.9251 28.22881,13.20635 11.68502,2.2451 17.86619,7.81577 17.86619,16.1016 0,4.17958 -1.17265,6.81807 -4.51632,10.16172 -5.65666,5.65665 -12.31254,5.8997 -21.27174,0.77672 l -6.47484,-3.70239 -1.0019,4.56164 c -2.09791,9.55177 -11.75728,13.30003 -21.14461,8.20507 z m -35.20391,-6.86977 c -1.69957,-1.69956 -3.09012,-4.55504 -3.09012,-6.34554 0,-2.23123 -0.71543,-2.98087 -2.27405,-2.38279 -3.64003,1.39682 -11.01726,-1.9151 -13.15237,-5.9046 -3.90449,-7.29559 2.74228,-16.26822 12.05121,-16.26822 4.18781,0 11.11384,-5.85715 13.4246,-11.35284 l 1.96029,-4.66221 3.09507,6.07621 c 7.50382,14.73139 9.83799,29.85138 5.81068,37.63937 -3.63898,7.037 -12.41345,8.6125 -17.82531,3.20062 z m 163.66142,-3.20477 c -1.63652,-1.63651 -2.97546,-3.79975 -2.97546,-4.80721 0,-1.00745 -1.43133,-3.3553 -3.18072,-5.21746 l -3.18073,-3.38572 3.94024,-0.98893 c 5.19754,-1.30451 14.2118,2.55919 15.50944,6.64764 2.51094,7.91134 -4.54475,13.31971 -10.11277,7.75168 z m 87.50485,-8.76942 c 1.13685,-4.88625 2.47744,-11.47089 2.97908,-14.63256 2.01707,-12.71306 13.74217,-19.31976 20.81464,-11.72835 7.62195,8.1812 1.52962,19.79821 -15.66899,29.87806 -5.03651,2.95181 -9.39002,5.36692 -9.6745,5.36692 -0.28447,0 0.41294,-3.99784 1.54977,-8.88407 z m -81.63483,-10.59649 c -0.51693,-0.51693 -5.21077,-0.87976 -10.43077,-0.80627 -15.65213,0.22032 -22.15299,-4.19749 -25.26256,-17.16779 -2.45622,-10.24516 8.14819,-20.8478 16.87459,-16.87179 2.32594,1.05976 3.79303,1.14343 3.79303,0.21628 0,-0.83156 1.39055,-2.90248 3.09011,-4.60204 7.7975,-7.7975 21.63081,-0.3908 21.63081,11.58168 0,3.50261 -1.02081,7.71801 -2.26846,9.36755 -1.30565,1.72623 -2.28929,6.44195 -2.31758,11.11071 -0.0346,5.70502 -0.66031,8.11155 -2.1092,8.11155 -1.13306,0 -2.48304,-0.42295 -2.99997,-0.93988 z M 204.71009,562.3446 c -1.26927,-0.8048 -1.85218,-3.51964 -1.54506,-7.19593 0.52885,-6.33035 3.36976,-8.8152 4.88677,-4.27424 0.50843,1.52187 1.77337,3.92548 2.81098,5.34136 1.49579,2.04108 1.4659,3.08124 -0.14432,5.02144 -2.304,2.77614 -3.13499,2.92931 -6.00837,1.10737 z m 281.33587,-11.407 c -12.01229,-17.80906 -14.522,-33.12416 -7.41529,-45.25085 3.88857,-6.63534 14.20134,-13.07506 20.9388,-13.07506 8.74545,0 18.01407,7.75362 15.90433,13.30469 -0.3863,1.0164 1.98931,2.07109 5.82328,2.58535 8.3123,1.11491 10.84378,3.77468 11.81787,12.41682 1.05978,9.40228 -3.30585,13.90954 -15.96315,16.48106 -5.0145,1.01876 -10.68325,2.4685 -12.59723,3.2216 -4.44175,1.74776 -9.6398,10.22005 -9.64727,15.72409 -0.002,2.3369 -0.53276,4.24891 -1.17685,4.24891 -0.64408,0 -4.1021,-4.34548 -7.68449,-9.65661 z m -39.39762,4.6275 c -5.11673,-4.20676 -8.91394,-12.97355 -8.91394,-20.58008 0,-8.56234 8.24476,-24.08158 18.54322,-34.90422 5.0409,-5.29745 9.5279,-9.2691 9.97112,-8.82587 0.44321,0.44321 -0.0307,6.54499 -1.053,13.5595 -1.99129,13.66212 -2.41517,11.33848 6.04475,33.13525 2.2434,5.78011 2.32041,7.39845 0.5549,11.66079 -3.84758,9.28886 -17.23563,12.45906 -25.14705,5.95463 z m 89.96971,-2.69618 c -5.37447,-5.37447 -3.94318,-12.22048 4.84928,-23.19471 4.4425,-5.54485 9.00951,-17.92652 9.03952,-24.50713 0.0159,-3.50291 0.40139,-3.63579 8.57861,-2.95768 13.35183,1.10724 21.14873,8.88937 18.69625,18.66083 -1.67056,6.65603 -5.42781,9.25646 -12.08426,8.36366 -5.55622,-0.74527 -5.90404,-0.55051 -5.91216,3.31005 -0.0162,7.70686 -3.1684,15.48826 -7.88041,19.45314 -5.65135,4.75531 -11.09302,5.06565 -15.28683,0.87184 z M 216.5988,552.17045 c -2.23028,-1.25795 -4.42483,-3.70123 -4.87679,-5.42953 -0.56443,-2.15837 -2.09855,-3.14234 -4.89926,-3.14234 -4.7911,0 -11.66235,-6.25642 -11.66235,-10.61881 0,-5.30909 1.50119,-7.36118 12.8464,-17.56075 l 11.10199,-9.98088 -0.52794,8.242 c -0.47721,7.45012 -0.0803,8.68953 4.13006,12.89999 3.9527,3.9527 5.84126,4.65799 12.47269,4.65799 7.1876,0 7.89813,0.33237 8.85424,4.14186 2.92669,11.66081 -16.00002,23.24243 -27.43904,16.79047 z m 94.64539,-4.77156 c -12.25845,-5.32194 -26.79796,-18.88421 -21.97016,-20.49348 3.75492,-1.25163 8.04555,-7.39563 9.67003,-13.84709 0.9184,-3.64724 3.6785,-8.78168 6.13361,-11.40985 3.80332,-4.0715 5.20328,-4.63078 9.46182,-3.78011 9.22618,1.84302 14.04452,9.29337 11.33899,17.53292 -1.06111,3.23151 -0.68809,3.47638 5.29548,3.47638 9.00924,0 15.40206,6.74443 15.40206,16.24915 0,5.53123 -0.80095,7.32597 -4.75372,10.65202 -4.09767,3.44795 -6.17665,3.99164 -15.06431,3.9395 -5.67083,-0.0333 -12.65203,-1.077 -15.5138,-2.31944 z m -44.66736,-4.66045 c -1.88865,-1.32285 -3.43391,-3.62343 -3.43391,-5.11238 0,-1.48898 -1.0208,-4.05683 -2.26845,-5.70637 -3.53002,-4.66711 -2.90455,-5.31674 5.1191,-5.31674 8.75111,0 12.59993,3.14713 12.59993,10.3028 0,3.48544 -0.98669,5.10132 -3.93534,6.44482 -4.81319,2.19304 -3.98708,2.25561 -8.08133,-0.61213 z m 95.08291,-0.0267 c -9.40302,-5.07254 -12.14345,-20.11334 -6.12267,-33.60406 3.24202,-7.26436 3.41348,-7.39104 6.79657,-5.02143 2.04573,1.43288 6.67722,2.43093 11.28088,2.43093 9.69993,0 14.67805,3.14407 14.67805,9.27034 0,5.04677 -4.75694,9.27035 -10.44102,9.27035 -3.05396,0 -3.34078,0.43429 -1.9738,2.98855 5.35612,10.00799 -4.3304,19.99928 -14.21801,14.66532 z m -181.3442,-5.74961 c -4.10234,-2.24145 -5.19005,-4.25209 -5.21723,-9.6441 -0.0189,-3.75316 -0.71962,-4.74351 -3.50003,-4.94678 -3.70395,-0.27077 -10.42914,-6.94061 -10.42914,-10.3433 0,-1.12323 1.02147,-2.88998 2.26992,-3.92611 1.82834,-1.51738 3.06987,-1.25464 6.38194,1.35063 5.56529,4.37768 14.8895,6.68808 21.88591,5.42307 l 5.77108,-1.04347 -3.69834,4.01745 c -2.50958,2.72611 -3.93441,6.47432 -4.43279,11.66104 -0.79134,8.23568 -3.50236,10.47249 -9.03132,7.45157 z m 249.55083,-12.85059 c -3.52987,-4.25628 -11.63991,-6.90783 -18.01187,-5.88891 -10.7753,1.72305 -18.59037,-9.05251 -14.21915,-19.6056 1.653,-3.99069 9.25736,-9.89094 10.93335,-8.48322 0.32017,0.26893 2.76574,0.9039 5.4346,1.41102 l 4.85246,0.92203 1.04293,-8.34741 c 2.72135,-21.78093 23.62158,-32.78669 36.9506,-19.45766 3.96398,3.96397 4.8335,6.0683 4.8335,11.69758 0,6.08351 -0.81949,7.70533 -7.20635,14.26205 -7.34945,7.54489 -14.45257,18.55808 -18.22431,28.25627 -2.90124,7.45992 -3.87661,8.25933 -6.38576,5.23385 z m -198.46735,-7.48122 c -4.18323,-4.18322 -4.79636,-9.30931 -1.87926,-15.71165 1.56546,-3.43582 1.53036,-4.32652 -0.19314,-4.90102 -4.13629,-1.37876 -7.90024,-6.56798 -7.90024,-10.89175 0,-5.00593 3.51175,-8.79598 9.54509,-10.30148 5.89615,-1.47128 10.06802,0.28731 13.18028,5.55595 1.48679,2.51694 5.30227,6.37737 8.47884,8.57873 5.64314,3.9107 5.72361,4.10302 3.50879,8.38599 -2.6687,5.16069 -2.88328,10.43963 -0.66187,16.28238 2.11282,5.55713 0.13116,6.74132 -11.33177,6.77162 -7.46521,0.0198 -9.58498,-0.60702 -12.74672,-3.76877 z m 44.10436,2.65545 c -9.30506,-2.54565 -13.25951,-8.72257 -11.52008,-17.99454 0.57949,-3.08896 2.37656,-7.29811 3.99348,-9.35369 2.91814,-3.70983 2.914,-3.74527 -0.56076,-4.80448 -5.75513,-1.75433 -8.90827,-5.52047 -8.90827,-10.64013 0,-13.3199 16.59038,-20.53812 30.68182,-13.34919 7.02351,3.58312 16.69959,13.95161 19.68267,21.09117 2.83112,6.7758 2.7494,7.2519 -0.9087,5.29415 -6.15571,-3.29443 -18.52212,7.51304 -18.55464,16.21564 -0.0281,7.53927 -7.88338,15.18859 -13.90552,13.54107 z m 60.6435,-8.65441 c -4.22718,-1.39998 -5.02144,-2.42036 -5.02144,-6.45106 0,-2.68103 -1.69976,-7.09191 -3.86264,-10.02353 -7.00227,-9.49105 -4.10067,-14.21208 9.21262,-14.98932 9.77156,-0.57044 13.13753,1.98823 10.43072,7.92904 -1.41668,3.10927 -1.21728,3.78181 1.3179,4.44477 3.69158,0.96538 3.85869,5.27179 0.3548,9.14355 -1.44779,1.59978 -2.66453,4.7705 -2.70385,7.04603 -0.0814,4.71008 -2.28264,5.36638 -9.72811,2.90052 z m 245.27784,-1.52722 c 0,-1.12653 -1.73819,-3.68119 -3.86265,-5.67703 -4.29786,-4.03763 -4.91653,-6.18022 -1.78453,-6.18022 1.14298,0 3.39484,-1.45495 5.00415,-3.23322 4.78629,-5.28878 7.85116,-6.33357 10.5786,-3.60612 3.25206,3.25206 3.05386,6.21036 -0.66523,9.92945 -1.69956,1.69956 -3.00778,3.61157 -2.90714,4.24891 0.65802,4.16745 -0.53779,6.56649 -3.27309,6.56649 -1.69956,0 -3.09011,-0.92172 -3.09011,-2.04826 z m -400.88827,-4.6739 c -1.56977,-1.14784 -2.97251,-3.69396 -3.1172,-5.65802 -0.17764,-2.41128 -1.3917,-3.7433 -3.73819,-4.10139 -7.378,-1.12596 -9.42181,-3.37585 -9.42181,-10.37186 0,-8.3724 2.63758,-10.83223 14.3904,-13.42066 10.24238,-2.25579 14.92865,-6.74532 15.02848,-14.39756 l 0.0628,-4.81308 4.29832,5.02107 c 14.58445,17.03674 15.47412,40.41711 1.8069,47.48472 -5.61922,2.90582 -15.50711,3.03729 -19.3097,0.25678 z m 347.83096,-3.05321 c -3.26317,-0.99692 -5.48207,-2.25889 -4.93092,-2.80437 1.89354,-1.87404 -3.35939,-11.42187 -9.01676,-16.38912 l -5.66296,-4.97215 3.11524,-3.11525 c 6.65182,-6.65183 17.32191,-1.27421 19.3947,9.77473 0.95674,5.09987 1.36656,5.44337 5.50625,4.61544 8.48413,-1.69683 12.70505,7.61612 5.68153,12.53558 -3.97704,2.78562 -5.96721,2.8358 -14.08708,0.35514 z m -165.72327,-0.67745 c -5.58293,-3.72784 -6.51256,-12.31743 -2.65688,-24.5491 2.33481,-7.40684 2.84548,-8.00909 5.07799,-5.98868 3.93322,3.55951 13.37614,6.99932 19.21446,6.99932 11.8407,0 16.5,4.64596 12.47162,12.43595 -2.56683,4.96373 -7.73067,6.94563 -14.54559,5.58264 -3.76132,-0.75226 -4.57143,-0.31435 -5.38028,2.90835 -0.7998,3.18668 -1.87496,3.79019 -6.71675,3.77031 -3.17049,-0.0124 -6.52953,-0.53446 -7.46457,-1.15879 z m 112.81498,-7.09488 c -0.54655,-1.42428 -0.6397,-4.44163 -0.207,-6.70521 0.43273,-2.26357 0.0543,-5.28862 -0.84116,-6.72231 -2.13908,-3.42521 -0.692,-6.86134 4.25444,-10.10238 5.61101,-3.67647 14.31708,-0.91499 20.95688,6.64731 l 5.00732,5.70305 -9.3984,2.08754 c -6.77854,1.50565 -10.70574,3.42476 -14.08837,6.88459 -3.99926,4.09052 -4.83633,4.41563 -5.68371,2.20741 z m 79.52157,-4.47707 c -2.2224,-1.90778 -5.57977,-5.73883 -7.46083,-8.51345 -1.88108,-2.77461 -5.62498,-6.19679 -8.31977,-7.60484 l -4.89962,-2.5601 4.73349,-1.24879 c 5.50424,-1.45214 15.92889,-11.28966 16.85529,-15.90596 0.35008,-1.74453 1.0567,-5.78442 1.57027,-8.97754 1.32697,-8.25056 6.57402,-11.48799 14.682,-9.05878 12.44996,3.7301 16.38057,16.50259 7.73814,25.14502 -5.47563,5.47562 -5.44724,5.36975 -1.70242,6.34905 1.61303,0.42181 4.08333,2.52292 5.48955,4.6691 2.30697,3.52089 2.33143,4.44154 0.25034,9.42231 -4.57506,10.94965 -20.51528,15.51306 -28.93644,8.28398 z M 313.45156,477.96547 c -1.78229,-4.66686 -5.52404,-9.37496 -11.70924,-14.73329 -4.99947,-4.33112 -9.5106,-9.20014 -10.02475,-10.82006 -1.31799,-4.15267 1.42868,-8.49548 6.77329,-10.70929 8.88142,-3.67881 21.86722,6.38474 24.15416,18.71864 1.05943,5.71366 -2.54498,21.91239 -5.2474,23.58258 -0.72971,0.45098 -2.50544,-2.26636 -3.94606,-6.03858 z m 99.80919,2.83913 c -0.13596,-0.97033 -3.26918,-5.14198 -6.96263,-9.27035 -10.96149,-12.25225 -12.60025,-17.43172 -7.5059,-23.72297 1.73023,-2.13675 4.69631,-3.52287 7.88114,-3.68303 4.47671,-0.22515 5.36488,-1.00765 7.19889,-6.34243 1.15067,-3.34707 3.68783,-7.31348 5.63812,-8.81424 11.59049,-8.91891 24.8171,5.59359 16.7904,18.42277 -1.71954,2.74836 -6.53808,7.44805 -10.70788,10.44376 -7.86109,5.64762 -10.51399,10.1036 -11.50411,19.32301 -0.31943,2.97423 -0.69204,4.6138 -0.82803,3.64348 z m 177.6932,-5.57481 c -1.67255,-6.1102 -0.22019,-8.05208 5.03568,-6.73294 4.34127,1.08959 5.5045,6.51751 2.12171,9.90031 -3.17958,3.17957 -5.72884,2.05143 -7.15739,-3.16737 z m -445.75041,-0.64378 c -3.75001,-3.75 2.01828,-11.33041 8.62187,-11.33041 8.06612,0 8.73093,1.32898 3.51399,7.02456 -4.52718,4.94253 -9.67331,6.7684 -12.13586,4.30585 z m 253.49777,-1.43669 c -0.50692,-0.50692 -4.5623,-0.89348 -9.01194,-0.859 -11.44314,0.0886 -18.39244,-3.0849 -18.39244,-8.39928 0,-2.28659 1.15382,-5.00112 2.56405,-6.03229 2.38868,-1.74665 2.38868,-2.12523 0,-5.53556 -3.34044,-4.76912 -3.23375,-6.93858 0.52607,-10.69839 4.17587,-4.17588 10.15481,-3.89117 14.74826,0.70229 3.17935,3.17935 3.79243,5.28323 3.79243,13.01444 0,7.66711 0.67443,10.02356 3.99998,13.97575 3.40982,4.05234 4.62982,6.68826 1.77359,3.83204 z m -57.68105,-6.0402 c -3.1235,-4.76704 -1.22623,-10.48895 5.66802,-17.09406 2.87885,-2.75812 4.52291,-5.89608 4.52291,-8.63276 l 0,-4.29955 5.62332,3.81608 c 3.09281,2.09884 6.19708,3.81608 6.89838,3.81608 2.34766,0 4.7471,6.42659 3.80335,10.18679 -0.60305,2.40272 -2.04493,3.71873 -4.0744,3.71873 -2.10582,0 -3.67735,1.53841 -4.76825,4.66779 -2.92488,8.3903 -13.22084,10.61625 -17.67333,3.8209 z m -127.31917,-0.76341 c -2.19351,-4.0986 0.38602,-8.92056 5.4523,-10.19212 4.52005,-1.13447 4.39161,-0.54384 1.41566,-6.50927 -1.81943,-3.64715 -1.9983,-5.57071 -0.73711,-7.92725 3.448,-6.44266 14.57786,-8.54009 18.93681,-3.56865 5.96126,6.79888 9.50857,18.70597 7.92767,26.61043 -0.86422,4.32111 -1.11124,4.45848 -4.1678,2.31759 -4.13953,-2.89944 -13.25894,-2.85108 -17.14864,0.091 -4.23331,3.20192 -9.7326,2.81501 -11.67889,-0.82166 z m 39.07461,-6.9233 c -0.11248,-5.11489 -0.43322,-12.06475 -0.71266,-15.44413 -0.41897,-5.06704 0.0158,-6.24782 2.47995,-6.73451 1.64339,-0.32459 3.82784,0.55842 4.85436,1.96225 1.70313,2.32918 2.3728,2.20874 7.65674,-1.37705 6.1044,-4.14255 14.167,-5.1126 19.36626,-2.33004 2.17634,1.16474 2.98855,3.2495 2.98855,7.67092 0,6.85697 -2.80209,9.27035 -10.76345,9.27035 -7.22687,0 -14.12335,3.49044 -20.19759,10.22239 l -5.46757,6.05961 -0.20459,-9.29979 z m 254.59514,5.56199 -6.84388,-0.95627 6.07135,-2.12133 c 8.77209,-3.06497 10.95211,-5.55007 14.67035,-16.7234 2.54358,-7.64346 4.46311,-10.69804 8.17778,-13.01343 9.07474,-5.65636 19.53207,-0.66001 19.53207,9.33214 0,16.92156 -17.57476,26.8403 -41.60767,23.48229 z m -179.33551,-4.09601 c 0,-9.03137 -6.64417,-18.41527 -14.53245,-20.52493 -3.90803,-1.04516 -3.96082,-1.2089 -1.51558,-4.69998 1.99507,-2.84836 3.47707,-3.42838 6.97318,-2.72916 3.58854,0.71771 4.43968,0.34884 4.43968,-1.92409 0,-3.63006 4.76702,-7.92612 8.79505,-7.92612 1.72921,0 4.97703,1.83299 7.21737,4.07333 6.20032,6.20034 5.56129,13.34275 -2.10691,23.54815 -3.39912,4.52382 -6.18023,9.54586 -6.18023,11.16009 0,1.61424 -0.69527,2.93498 -1.54505,2.93498 -0.84978,0 -1.54506,-1.76053 -1.54506,-3.91227 z m 136.59078,-0.94189 c -3.32315,-3.73614 -16.96086,-10.55838 -21.15211,-10.58132 -2.24717,-0.0124 -2.46187,-0.56881 -1.15879,-3.00363 0.87968,-1.64371 1.59942,-6.0083 1.59942,-9.69909 0,-11.1923 5.95732,-16.28703 14.00708,-11.97893 2.03783,1.09061 2.98855,3.23911 2.98855,6.7537 0,4.99543 0.23036,5.18486 7.47473,6.14585 10.50948,1.39413 15.00083,6.65456 14.33399,16.78844 -0.52203,7.93338 -12.66669,11.67552 -18.09287,5.57498 z m 121.11897,-0.21845 c 1.8227,-1.94015 3.88625,-6.28196 4.58571,-9.64844 1.52979,-7.36298 5.65981,-8.99681 8.26865,-3.27106 3.60279,7.90727 -3.00811,16.44705 -12.73214,16.44705 l -3.43618,0 3.31396,-3.52755 z m -424.82263,-3.96807 c -4.30118,-3.8431 -5.01753,-5.60726 -5.61155,-13.81947 -0.80549,-11.13588 3.08073,-20.87151 11.00006,-27.55684 4.87964,-4.11931 22.7685,-13.34608 23.82569,-12.2889 0.30531,0.3053 -0.87032,2.89315 -2.6125,5.75077 -3.74972,6.15052 -3.94897,11.46135 -0.86156,22.96386 4.33335,16.14445 2.65197,23.44774 -6.25498,27.1693 -8.14482,3.40313 -13.93056,2.74432 -19.48516,-2.21872 z m 330.57957,-4.93652 c -3.96993,-3.96993 -4.57127,-5.54227 -3.84092,-10.04287 0.74183,-4.57135 0.42989,-5.33602 -2.17669,-5.33602 -14.38943,0 -24.02397,-17.68627 -14.70889,-27.00136 9.49148,-9.49147 27.55415,-7.54267 44.29147,4.77865 9.74747,7.17569 14.20508,12.95236 9.99479,12.95236 -2.87441,0 -7.98238,7.90683 -10.09732,15.63001 -0.84148,3.07293 -3.36124,7.41839 -5.59944,9.65661 -5.5971,5.59709 -11.8517,5.37392 -17.863,-0.63738 z m -287.25559,-6.01505 c -8.5216,-5.3526 -13.7212,-13.13598 -13.7212,-20.53951 0,-10.65984 11.75001,-19.17937 18.85337,-13.66995 1.95248,1.51436 4.44889,2.44167 5.54758,2.06071 3.67074,-1.2728 9.04319,1.04193 10.66128,4.59344 2.25571,4.95097 0.21667,9.18669 -7.28101,15.12496 -6.01356,4.76283 -6.42884,5.56923 -5.69307,11.05481 0.43651,3.25446 0.33837,5.904 -0.21811,5.88786 -0.55647,-0.0162 -4.22346,-2.0467 -8.14884,-4.51232 z m 193.26103,-6.37733 c -3.43566,-6.41962 5.02341,-13.67168 13.47337,-11.55088 3.50103,0.87871 3.68798,1.26894 1.73231,3.6159 -1.20574,1.44699 -3.00707,4.54288 -4.00295,6.87979 -2.2404,5.25725 -8.63168,5.85924 -11.20273,1.05519 z m -152.78321,-4.94061 c -6.14637,-3.136 -7.13915,-9.18135 -3.38553,-20.61563 1.79493,-5.46775 3.26352,-11.3444 3.26352,-13.05922 0,-3.07864 0.0437,-3.07659 3.47637,0.16355 4.95989,4.68173 10.68384,7.41025 19.52138,9.30556 8.6336,1.85158 11.37977,4.26303 11.37977,9.99269 0,8.3662 -9.83454,12.91149 -16.70033,7.71847 -4.06015,-3.07094 -5.31674,-2.92068 -5.31674,0.63578 0,1.65138 -1.54525,4.08485 -3.43389,5.4077 -4.09831,2.87057 -4.06581,2.8689 -8.80455,0.4511 z m 125.55135,-2.80814 c 1.38546,-7.21744 9.02613,-14.06409 14.58896,-13.07287 5.86147,1.04444 10.04225,6.41191 7.98639,10.2533 -1.21106,2.26288 -3.27721,2.94664 -8.90414,2.94664 -4.33995,0 -8.82696,1.05052 -11.00601,2.57678 l -3.67885,2.57679 1.01365,-5.28064 z m -76.79533,-3.0749 c -2.65156,-2.08573 -4.40957,-5.3216 -5.0429,-9.28222 -0.53476,-3.34415 -2.98132,-9.24821 -5.43681,-13.12012 l -4.46455,-7.03986 6.59524,0.97372 c 5.3319,0.78721 8.0167,0.21425 14.01601,-2.99113 4.08143,-2.18067 9.07172,-3.96486 11.08952,-3.96486 4.43364,0 10.07326,6.6436 10.07326,11.86653 0,4.06054 -6.26508,11.30933 -9.77459,11.30933 -1.55586,0 -2.14231,1.80975 -2.02585,6.2516 0.24718,9.42629 -6.99564,12.31631 -15.02933,5.99701 z m 54.21544,-5.14221 c -6.5492,-6.76182 -9.57692,-8.73198 -14.67116,-9.54659 l -6.41894,-1.02642 2.25992,-4.37019 c 1.24296,-2.40361 2.25991,-6.83819 2.25991,-9.85463 0,-5.65829 4.26842,-11.66466 8.28946,-11.66466 1.16007,0 3.97882,1.47064 6.2639,3.26808 3.39152,2.66777 3.97486,4.08681 3.17571,7.72529 -0.88533,4.03092 -0.59047,4.45721 3.08317,4.45721 8.85133,0 17.8142,8.09164 17.8142,16.08259 0,4.48002 -5.47313,11.05309 -10.37834,12.4641 -2.75087,0.7913 -5.05098,-0.69278 -11.67783,-7.53478 z m 206.66399,0.48491 c 1.40426,-6.71793 4.44717,-11.5085 9.35098,-14.72161 5.57935,-3.65574 15.88275,-2.01133 20.41548,3.25828 4.08049,4.74386 4.37209,8.08931 1.11091,12.74529 l -2.36786,3.38061 -4.97117,-3.03105 c -6.61723,-4.03471 -15.03847,-3.9109 -20.39151,0.29981 l -4.2492,3.34241 1.10237,-5.27374 z m -8.94918,-2.21593 c -7.43743,-9.32121 -7.8736,-12.63193 -3.44982,-26.18387 2.16025,-6.61768 3.9277,-14.7245 3.9277,-18.01516 0,-7.45504 2.50159,-7.7619 9.95158,-1.22073 5.96964,5.24142 9.14677,13.69943 7.1113,18.93134 -0.71573,1.83969 -3.44105,5.37158 -6.05626,7.84864 -5.69753,5.39654 -8.5334,13.11865 -7.1428,19.44998 0.55927,2.54641 0.78781,4.6298 0.50785,4.62977 -0.27998,-2e-5 -2.46228,-2.44801 -4.84955,-5.43997 z m -123.51722,0.82929 c -5.25134,-4.13069 -6.70969,-10.35248 -3.3077,-14.11164 5.80001,-6.40895 14.51363,-1.54237 14.51363,8.10589 0,2.94981 0.83433,6.19762 1.85407,7.21736 3.31864,3.31865 -8.72065,2.20173 -13.06,-1.21161 z m -19.63905,-0.72928 c -2.25705,-2.71959 -0.85718,-5.47539 2.78135,-5.47539 3.15185,0 9.52294,4.19334 9.52294,6.26784 0,2.33789 -10.25446,1.67745 -12.30429,-0.79245 z m 40.11532,-4.39563 c -2.12445,-1.0685 -4.84091,-3.98299 -6.03655,-6.47667 -1.95573,-4.07887 -1.85996,-5.10712 0.95414,-10.24465 l 3.12806,-5.71071 -4.23106,-3.12817 c -7.70187,-5.69424 -6.6379,-18.20509 1.99592,-23.46941 5.73037,-3.49398 8.66452,-3.74773 14.19548,-1.22766 3.08461,1.40545 4.69024,4.17682 7.19224,12.41415 1.95016,6.42044 4.57719,11.62764 6.65795,13.19717 l 3.43685,2.59242 -4.76243,3.16034 c -3.8438,2.55073 -9.0924,10.31565 -12.04082,17.81351 -0.92422,2.35031 -6.7676,2.95176 -10.48978,1.07968 z m 79.57044,-6.79251 c -8.57245,-7.47421 -15.8587,-10.92371 -28.84319,-13.65508 -13.49339,-2.83842 -20.83442,-7.87357 -22.21594,-15.23771 -1.79713,-9.5795 6.70175,-19.47146 16.72929,-19.47146 2.02264,0 7.09792,1.73528 11.2784,3.85618 8.48045,4.3024 8.90962,4.44164 7.71057,2.50153 -1.52847,-2.4731 2.40148,-10.84609 5.56147,-11.84903 4.9229,-1.56247 13.15577,0.64646 18.18654,4.87957 8.25854,6.94913 8.97996,17.72815 2.30331,34.41476 -1.33356,3.33288 -2.89839,9.18501 -3.47743,13.00473 l -1.05279,6.94496 -6.18023,-5.38845 z m -132.37044,-3.10804 c -2.20974,-2.66258 -0.007,-11.00824 3.38217,-12.82286 1.57464,-0.84272 4.64687,-1.53221 6.82718,-1.53221 3.16686,0 3.96422,-0.75438 3.96422,-3.75049 0,-4.05214 6.41836,-10.15502 10.67998,-10.15502 4.35814,0 9.40576,4.605 9.40576,8.58097 0,2.10293 -2.30107,6.33512 -5.2027,9.569 -2.86148,3.18912 -5.63427,7.18897 -6.16175,8.88853 -0.83206,2.68092 -2.30878,3.09012 -11.15179,3.09012 -6.08513,0 -10.8175,-0.75281 -11.74307,-1.86804 z m -159.64538,-0.62768 c -2.54934,-0.80167 -7.6335,-1.04044 -11.29813,-0.53059 -7.974,1.1094 -11.1052,-0.93637 -11.1052,-7.25554 0,-3.23806 0.96303,-4.85203 3.44239,-5.7692 3.34283,-1.2366 3.30087,-1.34661 -1.45127,-3.80403 -9.51827,-4.92209 -12.64678,-14.22603 -6.28251,-18.68375 4.82636,-3.38051 14.41862,-2.98968 21.28078,0.86706 8.68386,4.88061 12.3667,12.59607 12.3667,25.90793 0,6.04522 -0.52146,10.93154 -1.15879,10.85851 -0.63735,-0.0731 -3.24462,-0.78872 -5.79397,-1.59039 z m 344.93939,-5.10416 c -3.92876,-2.91663 -5.34121,-11.39322 -2.10539,-12.63492 2.88412,-1.10675 7.53819,2.08745 6.19891,4.25444 -0.48868,0.79072 -0.0193,2.48502 1.04309,3.76512 1.55664,1.87563 1.50747,2.74397 -0.25324,4.47306 -1.80071,1.76835 -2.65936,1.79337 -4.88337,0.1423 z m -402.04476,-6.46461 c -3.22158,-3.22158 -2.99194,-5.76045 0.83419,-9.22306 5.09742,-4.6131 14.78804,-3.91624 19.35379,1.39175 6.52138,7.58156 5.15575,9.48856 -7.07016,9.87299 -7.95534,0.25014 -11.35515,-0.27902 -13.11782,-2.04168 z m 84.14387,-1.6526 c -13.24181,-5.71042 -22.97899,-18.54483 -20.76427,-27.36899 2.22482,-8.86439 14.59297,-13.07755 22.09917,-7.52798 3.68652,2.72557 4.60355,2.85261 7.15,0.9906 3.9024,-2.8535 10.80864,-2.70746 13.80807,0.29199 2.8052,2.80519 3.18664,11.21207 0.75124,16.55722 -0.9222,2.02398 -3.66416,4.85398 -6.09323,6.28887 -2.42908,1.43489 -5.2906,5.02619 -6.35897,7.98064 -2.15483,5.95915 -2.82727,6.13613 -10.59201,2.78765 z m 26.65224,-5.48187 c -4.01301,-1.9354 -4.43436,-3.59627 -1.22477,-4.82791 1.23838,-0.47521 4.02821,-3.67833 6.19961,-7.11806 2.83668,-4.49357 4.99878,-6.25404 7.68091,-6.25404 8.76297,0 11.75702,11.1891 4.51779,16.88349 -4.39492,3.45705 -11.59133,4.00872 -17.17354,1.31652 z m 35.63492,-1.12747 c -5.86846,-3.57827 -8.21015,-7.50585 -8.21015,-13.77049 0,-4.35116 3.31138,-9.48228 6.11942,-9.48228 0.69495,0 2.89359,1.31995 4.88589,2.93322 3.36886,2.72794 3.4989,3.39573 1.85811,9.54295 -1.09798,4.1136 -1.24878,7.96552 -0.39932,10.19978 1.64209,4.31899 1.83945,4.29223 -4.25395,0.57682 z m 9.07433,-5.10479 c 0.35805,-3.71241 1.32142,-5.13469 3.709,-5.47581 1.77392,-0.25345 3.95179,0.44182 4.8397,1.54506 1.21437,1.50884 0.29531,2.86569 -3.70899,5.4758 l -5.32337,3.46992 0.48366,-5.01497 z m 134.48345,-16.11508 c -2.72524,-4.84733 -2.33836,-10.42523 0.92814,-13.38137 3.33647,-3.01946 6.65648,-3.27243 9.22594,-0.70297 2.89735,2.89734 2.20469,4.8881 -2.66449,7.65814 -2.50512,1.42515 -4.74127,4.16413 -5.04563,6.18023 l -0.54661,3.62078 -1.89737,-3.37481 z"
         style="fill:none;fill-opacity:1;stroke:#ff0000;stroke-width:1.08110827;stroke-miterlimit:4;stroke-dasharray:none;stroke-opacity:1" />
      <path
         sodipodi:nodetypes="sssssssssssssssssssssssssss"
         inkscape:connector-curvature="0"
         id="path4197"
         d="m 373.94614,720.06519 c -0.29983,-0.16908 -1.8573,-1.88857 -3.46105,-3.82111 -12.38294,-14.92162 -27.29221,-30.49376 -42.44929,-44.33663 -10.43415,-9.52943 -17.65576,-15.6672 -32.33813,-27.48469 -13.34773,-10.74322 -18.10907,-14.42231 -42.43056,-32.78608 -29.14842,-22.00832 -40.34441,-30.8938 -52.65241,-41.78659 -39.22544,-34.71519 -57.73411,-65.65478 -62.09436,-103.79864 -1.9078,-16.68979 -0.69714,-31.24782 3.73812,-44.94975 9.70734,-29.98904 34.36223,-55.18155 67.14793,-68.6121 27.13618,-11.11627 58.33128,-13.50686 87.28023,-6.68862 23.72806,5.58859 45.08996,17.15937 61.62749,33.38081 5.39812,5.29493 12.10955,13.5882 15.61795,19.299 0.57202,0.93108 1.12014,1.69289 1.21805,1.69289 0.0979,0 0.87918,-1.11006 1.73613,-2.46679 7.58338,-12.00613 19.36224,-23.87445 32.47095,-32.71759 28.99217,-19.55813 66.22059,-27.11261 102.61068,-20.82202 22.56972,3.90152 43.62482,13.26211 60.68958,26.98113 23.36319,18.78256 37.28111,43.79446 39.65688,71.26728 0.37585,4.34625 0.16663,16.8896 -0.35711,21.41082 -2.06879,17.85876 -6.65105,32.27895 -15.21622,47.88474 -7.41708,13.51403 -17.71653,26.78498 -31.75731,40.91968 -9.73285,9.79793 -19.09298,18.0597 -34.86891,30.77721 -10.91166,8.79626 -14.77227,11.80237 -33.64879,26.20078 -27.77256,21.18409 -41.19193,31.82572 -55.15324,43.73684 -24.6597,21.0385 -45.17433,41.99341 -61.84745,63.17489 -2.67182,3.39427 -3.19913,3.85194 -4.438,3.85194 -0.2948,0 -0.78133,-0.13833 -1.08116,-0.3074 z"
         style="fill:none;fill-opacity:1;stroke:#ff0000;stroke-width:1.08110827;stroke-miterlimit:4;stroke-dasharray:none;stroke-opacity:1" />
    </g>
  </g>
</svg>
