<?xml version="1.0" encoding="UTF-8" standalone="no"?>
<!-- Created with Inkscape (http://www.inkscape.org/) -->

<svg
   xmlns:dc="http://purl.org/dc/elements/1.1/"
   xmlns:cc="http://creativecommons.org/ns#"
   xmlns:rdf="http://www.w3.org/1999/02/22-rdf-syntax-ns#"
   xmlns:svg="http://www.w3.org/2000/svg"
   xmlns="http://www.w3.org/2000/svg"
   xmlns:sodipodi="http://sodipodi.sourceforge.net/DTD/sodipodi-0.dtd"
   xmlns:inkscape="http://www.inkscape.org/namespaces/inkscape"
   width="104mm"
   height="104.05172mm"
   viewBox="0 0 368.50394 368.68719"
   id="svg2"
   version="1.1"
   inkscape:version="0.91 r13725"
   sodipodi:docname="vectoryinyang.svg">
  <defs
     id="defs4" />
  <sodipodi:namedview
     id="base"
     pagecolor="#ffffff"
     bordercolor="#666666"
     borderopacity="1.0"
     inkscape:pageopacity="0.0"
     inkscape:pageshadow="2"
     inkscape:zoom="0.24748737"
     inkscape:cx="-464.3593"
     inkscape:cy="22.652604"
     inkscape:document-units="mm"
     inkscape:current-layer="layer1"
     showgrid="false"
     inkscape:window-width="1366"
     inkscape:window-height="717"
     inkscape:window-x="0"
     inkscape:window-y="0"
     inkscape:window-maximized="1"
     fit-margin-top="2"
     fit-margin-left="2"
     fit-margin-bottom="2"
     fit-margin-right="2" />
  <metadata
     id="metadata7">
    <rdf:RDF>
      <cc:Work
         rdf:about="">
        <dc:format>image/svg+xml</dc:format>
        <dc:type
           rdf:resource="http://purl.org/dc/dcmitype/StillImage" />
        <dc:title></dc:title>
      </cc:Work>
    </rdf:RDF>
  </metadata>
  <g
     inkscape:label="Layer 1"
     inkscape:groupmode="layer"
     id="layer1"
     transform="translate(-187.79529,-341.83753)">
    <path
       style="fill:#000000"
       d="m 363.98083,703.25033 c -21.19866,-0.98453 -41.96731,-5.7033 -61.33563,-13.93589 -3.91846,-1.66557 -12.10302,-5.65082 -15.95436,-7.76858 -14.58065,-8.01753 -28.00895,-18.12377 -40.01144,-30.11286 -19.71976,-19.69775 -34.49962,-43.75875 -43.18662,-70.30598 -4.61101,-14.0911 -7.19351,-27.64365 -8.39427,-44.05175 -0.28881,-3.94635 -0.28881,-17.85794 0,-21.80429 1.39221,-19.02422 4.69809,-34.55197 10.88831,-51.14257 12.60028,-33.77048 35.37271,-63.00196 65.28148,-83.79759 12.99978,-9.03877 28.39409,-16.7956 43.5908,-21.96438 26.56915,-9.03682 54.86377,-11.63006 82.86046,-7.59427 24.95579,3.59743 49.07368,12.66669 70.56209,26.53406 16.53134,10.66837 32.22383,25.11737 44.14098,40.64318 12.1291,15.80195 21.11435,32.57851 27.58451,51.50367 4.89105,14.30631 7.83002,29.31583 8.98879,45.90654 0.11987,1.71602 0.21668,6.54796 0.21668,10.8135 0,7.82129 -0.14321,10.9882 -0.79354,17.5498 -1.79693,18.13027 -6.12385,35.04342 -13.31065,52.02892 -1.6551,3.91168 -6.05276,12.89311 -8.0723,16.48617 -12.563,22.35148 -29.17687,41.2723 -49.51345,56.38872 -13.05004,9.70025 -28.28672,17.98348 -43.43131,23.6109 -22.50062,8.36082 -46.39539,12.11411 -70.11053,11.0127 z m 20.65203,-4.848 c 14.9085,-1.18201 27.93823,-3.76034 41.39269,-8.19085 18.88175,-6.21766 36.19761,-15.45583 52.10074,-27.79617 10.22082,-7.93105 20.44302,-18.01763 28.7545,-28.37302 16.32393,-20.33821 28.01312,-44.65436 33.66072,-70.02189 2.67321,-12.00737 3.89758,-22.46404 4.1098,-35.09958 0.33441,-19.91077 -2.61977,-39.07106 -8.92131,-57.86217 -5.0867,-15.16849 -12.99248,-30.80228 -22.1951,-43.89117 -25.87896,-36.80761 -64.89044,-62.1414 -108.60455,-70.52708 -4.62705,-0.8876 -4.85994,-0.91276 -3.45678,-0.37344 9.72559,3.73813 15.94006,7.10666 23.19345,12.57193 11.16673,8.41392 20.06768,19.26007 26.19143,31.91526 4.26443,8.81281 6.86187,17.857 8.17119,28.45194 0.45811,3.70705 0.4586,15.0531 0,18.87933 -2.45262,20.49872 -10.93242,38.1879 -25.11434,52.38929 -11.05738,11.07257 -24.66915,18.90292 -39.71066,22.84407 -7.10239,1.86095 -12.88121,2.59717 -22.42474,2.85691 -8.75678,0.23831 -14.11179,0.90403 -20.91793,2.60046 -19.48581,4.8568 -36.59169,16.20109 -48.73371,32.31929 -7.73529,10.26838 -13.17411,22.2814 -15.77068,34.83367 -2.00557,9.69519 -2.30354,21.02581 -0.81188,30.8724 2.78179,18.36286 11.29434,35.23547 24.45539,48.4727 9.0626,9.11504 19.56616,15.91914 31.4219,20.35478 1.98245,0.7417 2.95987,0.99291 5.22948,1.34406 4.82588,0.74664 12.26123,1.46494 18.12524,1.75101 3.17423,0.15485 16.58417,-0.0625 19.85431,-0.32173 z m -15.51118,-61.89758 c -9.45573,-1.38498 -16.98552,-8.02131 -19.3272,-17.03396 -2.68717,-10.34236 2.09053,-21.18521 11.5132,-26.12886 1.98137,-1.03953 3.41229,-1.58206 5.59812,-2.12253 2.28561,-0.56514 7.61859,-0.61886 9.83852,-0.0991 3.35827,0.78627 6.35695,2.13127 8.89256,3.9886 10.39779,7.61642 12.49349,22.39183 4.62529,32.60969 -2.54291,3.30229 -6.71578,6.31579 -10.57587,7.63747 -2.59432,0.88831 -3.89319,1.10416 -7.01921,1.1665 -1.65748,0.033 -3.25291,0.025 -3.54541,-0.0178 z m 6.75739,-175.12984 c 2.3353,-0.40303 4.25208,-1.03717 6.42906,-2.12698 6.34194,-3.17477 10.74524,-8.86461 12.27407,-15.86019 0.32807,-1.50122 0.40758,-2.41009 0.41092,-4.69767 0.005,-3.14485 -0.34928,-5.25726 -1.3232,-7.89871 -2.84322,-7.71123 -9.6526,-13.39068 -17.71023,-14.77148 -2.1488,-0.36823 -5.67727,-0.36823 -7.82607,0 -9.26123,1.58705 -16.58448,8.62101 -18.58398,17.84985 -2.74921,12.68918 5.66,25.16879 18.52508,27.49199 1.90671,0.34431 5.84714,0.35098 7.80435,0.0132 z"
       id="path4201"
       inkscape:connector-curvature="0" />
  </g>
</svg>
