<?xml version="1.0" encoding="UTF-8" standalone="no"?>
<!-- Created with Inkscape (http://www.inkscape.org/) -->

<svg
   xmlns:dc="http://purl.org/dc/elements/1.1/"
   xmlns:cc="http://creativecommons.org/ns#"
   xmlns:rdf="http://www.w3.org/1999/02/22-rdf-syntax-ns#"
   xmlns:svg="http://www.w3.org/2000/svg"
   xmlns="http://www.w3.org/2000/svg"
   xmlns:sodipodi="http://sodipodi.sourceforge.net/DTD/sodipodi-0.dtd"
   xmlns:inkscape="http://www.inkscape.org/namespaces/inkscape"
   width="52mm"
   height="52.025555mm"
   viewBox="0 0 184.25197 184.34252"
   id="svg2"
   version="1.1"
   inkscape:version="0.91 r13725"
   sodipodi:docname="yinyangmelt.svg"
   inkscape:export-filename="/home/ale/Scrivania/personal projs/yinyangmelt.png"
   inkscape:export-xdpi="1000"
   inkscape:export-ydpi="1000">
  <defs
     id="defs4" />
  <sodipodi:namedview
     id="base"
     pagecolor="#ffffff"
     bordercolor="#666666"
     borderopacity="1.0"
     inkscape:pageopacity="0.0"
     inkscape:pageshadow="2"
     inkscape:zoom="2.8284271"
     inkscape:cx="77.952279"
     inkscape:cy="99.945527"
     inkscape:document-units="px"
     inkscape:current-layer="layer1"
     showgrid="false"
     inkscape:snap-intersection-paths="false"
     inkscape:object-nodes="false"
     inkscape:snap-smooth-nodes="false"
     inkscape:snap-midpoints="false"
     inkscape:snap-object-midpoints="false"
     inkscape:object-paths="false"
     inkscape:snap-others="false"
     inkscape:snap-nodes="false"
     inkscape:window-width="1366"
     inkscape:window-height="717"
     inkscape:window-x="0"
     inkscape:window-y="0"
     inkscape:window-maximized="1"
     fit-margin-top="1"
     fit-margin-left="1"
     fit-margin-right="1"
     fit-margin-bottom="1" />
  <metadata
     id="metadata7">
    <rdf:RDF>
      <cc:Work
         rdf:about="">
        <dc:format>image/svg+xml</dc:format>
        <dc:type
           rdf:resource="http://purl.org/dc/dcmitype/StillImage" />
        <dc:title></dc:title>
      </cc:Work>
    </rdf:RDF>
  </metadata>
  <g
     inkscape:label="Layer 1"
     inkscape:groupmode="layer"
     id="layer1"
     transform="translate(-225.01669,-351.61946)">
    <path
       sodipodi:nodetypes="ssssssssssssssssscssssscsssssssscssssssssssscsssccscsccssssssscccsssscsccsscsscssssszsssscssccssssscc"
       inkscape:connector-curvature="0"
       id="path4201"
       d="m 316.84282,355.16322 c -9.61991,0.0307 -19.16074,1.61429 -28.29385,4.72068 -7.59833,2.58438 -15.29596,6.46302 -21.79583,10.98239 -14.95434,10.39778 -26.34041,25.01312 -32.64053,41.8983 -3.0951,8.29528 -4.74821,16.05913 -5.44431,25.57121 -0.14441,1.97317 -0.14441,8.92914 0,10.90231 0.60038,8.20403 1.89175,14.97979 4.19725,22.02532 4.34348,13.27357 11.73383,25.30437 21.59368,35.15321 6.00123,5.99453 12.71549,11.04784 20.0058,15.05659 1.92566,1.05888 6.01731,3.051 7.97653,3.88378 9.68413,4.11628 20.06858,6.47549 30.66787,6.96775 11.85754,0.5507 23.80528,-1.32544 35.05556,-5.50584 7.57227,-2.8137 15.19075,-6.95552 21.71575,-11.80563 10.16826,-7.55818 18.4743,-17.01854 24.75578,-28.19424 1.00977,-1.79653 3.20857,-6.28731 4.03612,-8.24314 3.59339,-8.49272 5.75777,-16.94946 6.65623,-26.01457 0.32517,-3.28079 0.39648,-4.86375 0.39648,-8.77439 0,-2.13276 -0.0485,-4.5492 -0.1084,-5.4072 -0.57938,-8.29533 -2.0486,-15.79992 -4.49412,-22.95306 -3.23507,-9.46255 -7.7284,-17.85092 -13.79293,-25.75187 -5.95855,-7.76288 -13.8046,-14.98705 -22.07024,-20.32122 -10.74417,-6.93366 -22.80328,-11.46883 -35.28114,-13.26754 -4.37447,-0.63058 -8.76301,-0.93679 -13.1357,-0.92284 z m 14.64156,3.49413 c 0.0662,-0.0231 0.65365,0.0859 2.0996,0.36327 21.85698,4.19283 41.36312,16.85982 54.30256,35.26356 4.6013,6.54443 8.55428,14.36103 11.09762,21.94525 3.15076,9.39552 4.62715,18.97619 4.45995,28.93155 -0.10611,6.31774 -0.71808,11.54608 -2.05468,17.54974 -2.82379,12.68373 -8.66809,24.84156 -16.83003,35.01063 -4.15573,5.17768 -9.26651,10.22097 -14.3769,14.18648 -7.95154,6.17015 -16.60986,10.7886 -26.05071,13.89742 -6.7272,2.21525 -13.24199,3.50469 -20.69621,4.09569 -1.63507,0.12962 -8.3406,0.23855 -9.92771,0.16113 -2.93199,-0.14303 -6.64954,-0.50265 -9.06247,-0.87597 -1.1348,-0.17558 -1.62303,-0.30103 -2.61425,-0.67188 -5.92785,-2.21781 -11.1796,-5.61921 -15.71089,-10.17672 -6.5805,-6.61859 -10.83758,-15.05485 -12.22848,-24.23625 -0.74581,-4.92328 -0.59652,-10.5889 0.40625,-15.43648 1.29829,-6.27611 4.01809,-12.28276 7.88572,-17.41693 6.07099,-8.05908 14.62326,-13.73074 24.36613,-16.15913 3.40306,-0.84821 6.08058,-1.18162 10.45896,-1.30078 4.77175,-0.12987 7.66167,-0.49823 11.21285,-1.42871 7.52073,-1.97056 14.32673,-5.88557 19.85541,-11.42183 7.09093,-7.10068 11.33029,-15.94493 12.5566,-26.19426 0.2293,-1.91311 0.22905,-7.5859 0,-9.43942 -0.65466,-5.29745 -1.9537,-9.82013 -4.08593,-14.22652 -3.06185,-6.32757 -7.51231,-11.75003 -13.09566,-15.95698 -3.62668,-2.73262 -6.73386,-4.41705 -11.59664,-6.28611 -0.2631,-0.10112 -0.41079,-0.16287 -0.37109,-0.17675 z m -14.34175,29.91494 c 0.70965,0 1.41885,0.0456 1.95604,0.13769 4.02881,0.6904 7.43385,3.53012 8.85544,7.38572 0.48696,1.32072 0.66363,2.37679 0.66113,3.94921 -10e-4,1.14378 -0.041,1.59899 -0.20508,2.3496 -0.27694,1.91477 -1.60979,4.52467 -2.06444,5.6865 -1.01623,2.59693 -0.50594,4.83796 0.31519,6.48786 0.99688,2.00308 1.12466,3.02192 1.17991,3.8295 0.12448,1.81977 -0.88334,3.81248 -1.90625,3.81248 -1.0229,0 -2.09374,-1.49246 -2.31249,-3.34374 -0.21875,-1.85127 0.82128,-2.93373 1.15625,-5.28123 0.18341,-1.2854 -0.009,-2.90196 -0.69151,-3.26847 -0.7976,-0.4285 -2.69256,0.0312 -3.0214,0.81926 -0.21969,0.59091 -0.16608,1.24507 -0.0312,1.93359 0.13941,0.63798 0.32563,0.92272 0.37403,1.41796 0.0483,0.49524 -0.11753,1.33398 -0.5625,1.33398 -0.44498,0 -0.88379,-0.85571 -0.85254,-1.52929 0.0312,-0.67358 0.33783,-0.84055 0.44043,-1.32715 0.0937,-0.44458 -0.0384,-1.06038 -0.20801,-1.32909 -0.26181,-0.41497 -0.66107,-0.40708 -1.16699,-0.24902 -0.63934,0.19972 -0.86644,0.53771 -1.10156,0.97851 -0.48024,0.9004 -0.44884,3.98722 -0.18164,5.47654 0.30714,1.71113 1.40353,4.64886 1.40918,6.1533 0.005,1.50443 -0.71899,3.08398 -2.34276,3.08398 -1.62379,0 -2.45898,-1.57453 -2.45898,-3.07421 0,-1.49969 1.23887,-4.44031 1.61327,-6.16307 0.32751,-1.50688 0.44554,-4.23659 0.12989,-5.26951 -0.14247,-0.46619 -0.58699,-1.08941 -1.15723,-1.33301 -0.57023,-0.2436 -2.00325,-0.51189 -2.34276,-0.3457 -0.35888,0.17568 -0.20702,1.40095 0.0508,1.90429 0.2578,0.50335 0.82623,2.20923 0.76269,3.26464 -0.0635,1.05542 -0.7615,1.91504 -1.31347,1.71191 -0.82596,-0.30394 -1.15624,-1.43896 -1.15624,-2.25976 0,-0.8208 0.0583,-1.16482 0.21483,-2.02831 0.15658,-0.86349 0.65326,-2.59129 -1.08593,-4.09276 -1.73919,-1.50148 -5.33904,-6.52576 -4.20506,-11.75973 0.99974,-4.6144 4.66136,-8.13125 9.29196,-8.92478 0.5372,-0.0921 1.24737,-0.13769 1.95703,-0.13769 z m -0.0986,87.50949 c -0.94821,0.01 -1.90027,0.0863 -2.47167,0.22753 -1.09291,0.27025 -1.80912,0.54176 -2.7998,1.06152 -4.71132,2.47182 -7.0994,7.89325 -5.75584,13.06442 1.17085,4.50631 4.93521,7.82506 9.66306,8.51754 0.14625,0.0214 0.94372,0.0253 1.77245,0.009 1.56301,-0.0312 2.2126,-0.13983 3.50976,-0.58398 1.93004,-0.66084 4.01662,-2.16721 5.28807,-3.81835 3.93408,-5.1089 2.88638,-12.49643 -2.3125,-16.30463 -1.2678,-0.92866 -2.76714,-1.601 -4.44627,-1.99413 -0.55498,-0.12994 -1.49904,-0.18827 -2.44726,-0.17871 z"
       style="fill:#000000;fill-opacity:1;stroke:none;stroke-width:0.5;stroke-miterlimit:4;stroke-dasharray:none;stroke-opacity:1" />
  </g>
</svg>
