<?xml version="1.0" encoding="UTF-8" standalone="no"?>
<!-- Created with Inkscape (http://www.inkscape.org/) -->

<svg
   xmlns:dc="http://purl.org/dc/elements/1.1/"
   xmlns:cc="http://creativecommons.org/ns#"
   xmlns:rdf="http://www.w3.org/1999/02/22-rdf-syntax-ns#"
   xmlns:svg="http://www.w3.org/2000/svg"
   xmlns="http://www.w3.org/2000/svg"
   xmlns:sodipodi="http://sodipodi.sourceforge.net/DTD/sodipodi-0.dtd"
   xmlns:inkscape="http://www.inkscape.org/namespaces/inkscape"
   id="svg4136"
   version="1.1"
   inkscape:version="0.91 r13725"
   width="135"
   height="141"
   viewBox="0 0 135 141"
   sodipodi:docname="vect INK.svg">
  <metadata
     id="metadata4142">
    <rdf:RDF>
      <cc:Work
         rdf:about="">
        <dc:format>image/svg+xml</dc:format>
        <dc:type
           rdf:resource="http://purl.org/dc/dcmitype/StillImage" />
        <dc:title></dc:title>
      </cc:Work>
    </rdf:RDF>
  </metadata>
  <defs
     id="defs4140" />
  <sodipodi:namedview
     pagecolor="#ffffff"
     bordercolor="#666666"
     borderopacity="1"
     objecttolerance="10"
     gridtolerance="10"
     guidetolerance="10"
     inkscape:pageopacity="0"
     inkscape:pageshadow="2"
     inkscape:window-width="1366"
     inkscape:window-height="705"
     id="namedview4138"
     showgrid="false"
     inkscape:zoom="3.8156028"
     inkscape:cx="65.5021"
     inkscape:cy="70.5"
     inkscape:window-x="-8"
     inkscape:window-y="-8"
     inkscape:window-maximized="1"
     inkscape:current-layer="svg4136" />
  <path
     style="fill:#000000"
     d="m 59.198963,105.57964 c -1.69635,-2.02125 -3.26309,-3.88825 -3.48164,-4.1489 -0.33633,-0.40109 -0.20999,-1.00028 0.82229,-3.900001 0.67082,-1.88436 1.0919,-3.2911 0.93573,-3.1261 -0.15617,0.165 -1.11652,1.48125 -2.13411,2.925 -1.0176,1.44375 -1.97927,2.625 -2.13705,2.625 -0.40452,0 -6.08216,-2.38079 -6.37651,-2.67384 -0.13353,-0.13294 0.36878,-2.51465 1.11624,-5.2927 0.74745,-2.778033 1.32029,-5.089692 1.27298,-5.137011 -0.0473,-0.04732 -1.27375,2.004129 -2.7254,4.558761 -1.45165,2.55463 -2.73393,4.64479 -2.84951,4.64479 -0.11558,0 -1.61521,-1.92375 -3.33252,-4.275 -1.7173,-2.351242 -4.62808,-6.324931 -6.46841,-8.830411 l -3.34604,-4.555419 2.34833,-6.533964 c 1.29159,-3.593682 2.30875,-6.573555 2.26036,-6.621939 -0.0484,-0.04839 -1.54614,2.371695 -3.32835,5.377956 l -3.24038,5.465928 -1.59999,-1.78857 -1.59998,-1.788573 -0.007,-5.429856 -0.007,-5.429856 0.90892,-1.320144 c 6.431,-9.340656 7.73954,-11.346783 7.01301,-10.751661 -0.31456,0.257667 -2.03384,1.742667 -3.82063,3.3 -1.78679,1.557336 -3.44054,2.939475 -3.675,3.071424 -0.35909,0.202107 -0.42626,-0.394074 -0.42626,-3.783924 l 0,-4.023834 3.3,-5.932149 c 1.815,-3.262683 3.3,-5.992788 3.3,-6.066906 0,-0.07411 -0.8775,0.563493 -1.95,1.416906 l -1.95,1.551663 0,-5.685471 0,-5.685468 3.20206,-2.515362 c 1.76113,-1.38345 3.42534,-2.675457 3.69825,-2.871129 0.27291,-0.195669 3.72574,-0.938169 7.67295,-1.65 l 7.17674,-1.294233 -5.48072,-0.15 -5.48072,-0.15 3.39943,-3.388975 3.39943,-3.388975 4.43296,0.05335 4.43295,0.05335 2.39239,2.060626 c 1.31581,1.133342 2.44567,2.060624 2.51079,2.060624 0.0651,0 -0.28095,-0.890084 -0.76905,-1.977965 -0.4881,-1.087881 -0.88746,-2.011803 -0.88746,-2.053159 0,-0.165307 9.01614,-0.194318 9.28222,-0.02987 0.1629,0.100675 -0.0889,1.011398 -0.58571,2.118781 -0.47928,1.068219 -0.81813,1.942213 -0.75301,1.942213 0.0651,0 1.20794,-0.938448 2.5396,-2.085441 l 2.4212,-2.08544 4.44732,0.0051 4.44732,0.0051 3.42064,3.430367 3.42064,3.430314 -5.69511,0.02625 -5.69511,0.02625 7.2,1.305495 c 3.96,0.71802 7.45917,1.464165 7.77593,1.6581 0.31676,0.193932 2.03801,1.50537 3.825,2.914305 l 3.24907,2.5617 0,5.679786 0,5.679786 -1.95,-1.551672 c -1.0725,-0.853413 -1.95,-1.491021 -1.95,-1.416906 0,0.07412 1.48865,2.810778 3.3081,6.081474 l 3.30811,5.946714 -0.0831,4.0002 -0.0831,4.0002 -3.10463,-2.630841 c -6.05407,-5.130165 -5.69763,-4.982799 -3.19538,-1.321101 0.825,1.207272 1.7025,2.502186 1.95,2.877591 0.2475,0.375402 1.36125,2.022585 2.475,3.660405 l 2.025,2.977857 -0.007,5.387205 -0.007,5.387202 -1.60021,1.788834 -1.60022,1.788831 -3.23476,-5.471568 c -1.77913,-3.009363 -3.27967,-5.426676 -3.33454,-5.371806 -0.0549,0.05487 0.90915,2.898108 2.14227,6.318309 1.23311,3.420198 2.24202,6.418851 2.24202,6.663669 0,0.244821 -2.53692,3.918813 -5.63761,8.164431 -3.10069,4.245607 -5.94489,8.158042 -6.32043,8.694292 -0.37555,0.53625 -0.79043,0.975 -0.92196,0.975 -0.13153,0 -1.43424,-2.0856 -2.89491,-4.63466 -1.46067,-2.549054 -2.68992,-4.600499 -2.73166,-4.558754 -0.0417,0.04174 0.53566,2.348841 1.28311,5.126874 0.74746,2.77805 1.24977,5.15545 1.11624,5.28313 -0.28597,0.27291 -6.04672,2.68341 -6.41353,2.68341 -0.13773,0 -1.083,-1.18125 -2.10059,-2.625 -1.01759,-1.44375 -1.97794,-2.76 -2.13411,-2.925 -0.15617,-0.165 0.26491,1.24174 0.93573,3.1261 1.03457,2.906151 1.15907,3.498021 0.82034,3.900001 -0.21963,0.26065 -1.77924,2.12765 -3.46578,4.1489 -1.68655,2.02125 -3.18034,3.675 -3.31953,3.675 -0.1392,0 -1.64101,-1.65375 -3.33735,-3.675 z m 11.3918,-30.49073 c 1.47592,-1.70367 1.52968,-1.829439 1.52968,-3.578082 l 0,-1.812345 1.48722,-1.146918 c 2.18038,-1.681467 2.02628,-1.891707 -1.41222,-1.9266 l -2.925,-0.02967 2.55,-0.407607 c 1.4025,-0.224181 2.71875,-0.413325 2.925,-0.420318 0.20625,-0.007 0.375,-0.350211 0.375,-0.762711 0,-0.737481 -0.0413,-0.750396 -2.475,-0.773685 -2.79842,-0.02679 -2.76442,-0.09282 0.3,-0.582774 2.00205,-0.320097 2.175,-0.405237 2.175,-1.070646 0,-0.694188 -0.0864,-0.724278 -2.175,-0.757695 -1.19625,-0.01914 -1.905,-0.09359 -1.575,-0.165432 0.33,-0.07185 1.30852,-0.268209 2.17449,-0.436362 l 1.57448,-0.30573 -2.41955,-4.628838 c -1.33074,-2.545872 -2.35805,-4.62885 -2.2829,-4.62885 0.0752,0 1.78212,1.9575 3.79326,4.35 2.01114,2.3925 3.7168,4.35 3.79036,4.35 0.16564,0 -1.93346,-3.94236 -2.30816,-4.335 -0.14958,-0.15675 -0.27198,-0.409434 -0.27198,-0.561519 0,-0.152088 0.89015,0.684912 1.97809,1.86 1.08795,1.175085 2.09256,2.136519 2.23247,2.136519 0.13991,0 0.86977,-0.799746 1.62191,-1.777212 l 1.36753,-1.777215 0,-6.610173 0,-6.610176 -2.11147,-3.343401 -2.11148,-3.343401 1.88648,0.204912 1.88647,0.204912 -6.24376,-3.474123 c -3.43408,-1.910766 -6.40362,-3.474123 -6.59898,-3.474123 -0.62412,0 -5.15034,1.57881 -5.33499,1.860921 -0.0978,0.149349 -0.42117,1.951737 -0.7187,4.005312 -0.29752,2.053572 -0.63663,3.733767 -0.75357,3.733767 -0.11693,0 -0.45604,-1.680195 -0.75357,-3.733767 -0.29752,-2.053575 -0.62093,-3.855963 -0.71869,-4.005312 -0.18465,-0.282111 -4.71087,-1.860921 -5.33499,-1.860921 -0.19536,0 -3.1649,1.563357 -6.59898,3.474123 l -6.24377,3.474123 1.88648,-0.204912 1.88648,-0.204912 -2.11148,3.343401 -2.11148,3.343401 0,6.607404 0,6.607404 0.825,1.104984 c 0.45375,0.60774 1.13613,1.442484 1.5164,1.854984 l 0.6914,0.75 1.7761,-1.875 c 0.97685,-1.03125 1.8587,-1.875 1.95966,-1.875 0.10096,0 -0.37241,1.030749 -1.05194,2.290551 -1.33161,2.468721 -1.45578,3.087234 -0.30729,1.530759 0.74246,-1.006209 6.46023,-7.941942 6.98369,-8.47131 0.16315,-0.165 -0.87271,1.954818 -2.30192,4.710705 l -2.59857,5.010705 1.12874,0.193731 c 2.73022,0.4686 2.99988,0.679794 0.90373,0.707802 -1.93226,0.02583 -2.025,0.06016 -2.025,0.749952 0,0.665409 0.17296,0.750549 2.175,1.070646 3.06443,0.489957 3.09843,0.555996 0.3,0.582774 -2.40496,0.02301 -2.475,0.04403 -2.475,0.742698 0,0.677031 0.15327,0.739608 2.625,1.071705 3.62162,0.486597 3.65841,0.558405 0.3,0.585597 -3.43901,0.02784 -3.59373,0.238263 -1.41222,1.920603 l 1.48722,1.146918 0,1.812345 c 0,1.748643 0.0538,1.874412 1.52969,3.578082 l 1.52968,1.765737 6.54063,0 6.54064,0 z m -16.17032,-4.984263 -1.05,-0.404352 0.96047,-0.02283 c 0.52826,-0.01254 2.03513,-0.495324 3.34861,-1.072824 1.31347,-0.5775 2.805,-1.05 3.31452,-1.05 0.90858,0 0.9264,-0.02814 0.9264,-1.463268 0,-0.882672 -0.16532,-1.600473 -0.41667,-1.809069 -0.22916,-0.190194 -0.57008,-0.95508 -0.75759,-1.699746 -0.19545,-0.776187 -0.47091,-1.273605 -0.64554,-1.16568 -0.16753,0.103542 -0.22251,0.446895 -0.12218,0.763011 0.27711,0.873111 -0.0911,0.706923 -1.88407,-0.850248 -0.90241,-0.78375 -1.92947,-1.664718 -2.28234,-1.957707 l -0.64161,-0.532707 0.825,0.19023 c 0.69929,0.161241 0.825,0.09385 0.825,-0.442293 0,-0.843705 1.15299,-0.840789 3.74303,0.0095 l 1.95562,0.641985 2.10038,-0.662889 c 2.50211,-0.789681 3.41314,-0.737448 3.54676,0.203346 0.0818,0.576174 0.18392,0.627267 0.7007,0.350694 0.3327,-0.178053 0.65068,-0.277953 0.70664,-0.221997 0.11292,0.112926 -3.94771,3.640551 -4.36613,3.793017 -0.14511,0.05288 -0.21112,-0.320424 -0.14669,-0.82956 0.16734,-1.322217 -0.28991,-0.875253 -0.73655,0.719991 -0.2082,0.743613 -0.56421,1.506123 -0.79115,1.69446 -0.24694,0.204895 -0.41261,0.929893 -0.41261,1.80565 0,1.435119 0.0178,1.463268 0.9264,1.463268 0.50952,0 2.00106,0.4725 3.31453,1.05 1.31348,0.5775 2.82035,1.060659 3.34861,1.073685 0.9537,0.02352 0.95149,0.02685 -0.31399,0.474816 -1.20821,0.427686 -1.39542,0.410853 -3.60147,-0.323829 -1.8383,-0.612213 -2.53025,-0.716676 -3.29479,-0.497412 -0.59241,0.169902 -1.35713,0.170049 -1.97164,3e-4 -0.79657,-0.219942 -1.4591,-0.122352 -3.20831,0.472593 -2.499,0.849966 -2.47536,0.848148 -3.89934,0.299775 z m 2.70117,-13.510713 c 6e-4,-0.159108 0.27189,-1.166787 0.60276,-2.239287 l 0.60158,-1.95 -0.16394,1.8 c -0.0902,0.99 -0.36141,1.997679 -0.60276,2.239287 -0.24134,0.241605 -0.43828,0.309105 -0.43764,0.15 z m 10.22205,-0.261318 c -0.19926,-0.24009 -0.42022,-1.222104 -0.49102,-2.182248 l -0.12872,-1.745721 0.58193,2.091327 c 0.61603,2.213832 0.62277,2.541483 0.0378,1.836642 z m -8.99953,-4.552968 c 0.0144,-0.349485 0.0855,-0.42057 0.18125,-0.181251 0.0867,0.216561 0.076,0.475311 -0.0237,0.575001 -0.0997,0.09969 -0.17059,-0.0775 -0.15757,-0.39375 z m 8.1,0 c 0.0144,-0.349485 0.0855,-0.42057 0.18125,-0.181251 0.0867,0.216561 0.076,0.475311 -0.0237,0.575001 -0.0997,0.09969 -0.17059,-0.0775 -0.15757,-0.39375 z m -10.32616,-4.175001 0.14628,-1.8 -0.75751,0.825 c -0.66038,0.719211 -0.982,0.825 -2.50818,0.825 -1.70139,0 -1.79183,-0.04179 -3.21296,-1.484616 -1.01563,-1.03113 -1.7447,-1.512222 -2.38684,-1.575 -0.89912,-0.0879 -0.87245,-0.121314 0.97008,-1.215384 1.757,-1.043289 2.06192,-1.124058 4.19811,-1.112013 l 2.30349,0.01299 1.64659,1.474806 1.64658,1.474806 -1.09596,2.187207 -1.09595,2.187204 z m 11.79426,-0.466977 -1.02412,-2.116977 1.64116,-1.470033 1.64117,-1.470036 2.36076,-0.01299 c 2.21174,-0.01218 2.47686,0.05803 4.2,1.112013 1.80452,1.103763 1.82175,1.126707 0.91281,1.215384 -0.6445,0.06288 -1.37143,0.542181 -2.38872,1.575 -1.3998,1.421172 -1.53258,1.484616 -3.10715,1.484616 -1.38074,0 -1.78639,-0.132477 -2.52621,-0.825 l -0.88134,-0.825 0.16825,1.725 c 0.0925,0.94875 0.13659,1.725 0.0979,1.725 -0.0387,0 -0.53122,-0.952638 -1.09449,-2.116977 z m -5.88155,-1.108707 c -0.25277,-1.867344 -0.0158,-3.674316 0.4819,-3.674316 0.097,0 0.31884,0.377577 0.49303,0.839058 0.32955,0.873072 -0.0745,4.860942 -0.49253,4.860942 -0.11451,0 -0.33158,-0.911559 -0.4824,-2.025684 z m -6.69199,-6.824316 c -0.0151,-1.808985 0.25297,-2.47455 1.05896,-2.628627 0.92488,-0.176802 0.89899,0.141525 -0.17721,2.178627 l -0.87169,1.65 -0.0101,-1.2 z m 13.40675,-0.576762 c -0.45375,-0.927591 -0.825,-1.75104 -0.825,-1.829883 0,-0.07885 0.32923,-0.143355 0.73162,-0.143355 0.63421,0 0.75787,0.175056 0.92878,1.314774 0.33801,2.253996 0.0544,2.477514 -0.8354,0.658464 z"
     id="path4146"
     inkscape:connector-curvature="0"
     sodipodi:nodetypes="ccsssssscsssscscscccccssscscssscccssscccccccssssccsscccccccssscccssscccsssscccccscssscsscscsssscssccsscsscscssssscscsssscsssscccccccsscssscsscccccccsscsssscscssssssssscsscccscccssscscssccssccscscccscssssssscscccscccccscsccccsccccsccccssssssccccccccccssssssccsccssssscssccccsssc" />
</svg>
