<?xml version="1.0" encoding="utf-8"?>
<!-- Generator: Adobe Illustrator 16.0.0, SVG Export Plug-In . SVG Version: 6.00 Build 0)  -->
<!DOCTYPE svg PUBLIC "-//W3C//DTD SVG 1.1//EN" "http://www.w3.org/Graphics/SVG/1.1/DTD/svg11.dtd">
<svg version="1.1" id="Layer_1" xmlns="http://www.w3.org/2000/svg" xmlns:xlink="http://www.w3.org/1999/xlink" x="0px" y="0px"
	 width="510.24px" height="566.93px" viewBox="0 0 510.24 566.93" enable-background="new 0 0 510.24 566.93" xml:space="preserve">
<path fill-rule="evenodd" clip-rule="evenodd" d="M251.874,311.049c-0.989,1.396-1.977,2.795-3.04,4.297
	c-1.806-0.752-3.592-1.496-5.469-2.279c0.697-2.639,1.374-5.203,2.05-7.77c-0.078-0.033-0.155-0.068-0.233-0.102
	c-1.346,2.316-2.692,4.633-4.128,7.105c-0.853-1.148-1.611-2.158-2.358-3.178c-2.504-3.418-4.986-6.852-7.519-10.248
	c-0.486-0.65-0.574-1.184-0.285-1.953c1.053-2.799,2.023-5.631,3.023-8.449c0.102-0.287,0.194-0.58,0.134-0.938
	c-1.667,2.809-3.333,5.617-5.062,8.531c-1.429-1.514-2.987-2.742-2.648-5.158c0.232-1.648-0.052-3.361,0.086-5.029
	c0.074-0.896,0.396-1.859,0.881-2.616c1.594-2.481,3.317-4.879,4.983-7.313c0.147-0.215,0.247-0.462,0.178-0.858
	c-1.932,1.679-3.863,3.358-5.795,5.038c-0.096-0.039-0.192-0.076-0.288-0.114c0.306-2.717-0.71-5.508,1.003-8.159
	c1.534-2.375,2.793-4.927,4.027-7.568c-0.884,0.677-1.768,1.354-2.874,2.202c0-1.626-0.006-3.036,0.001-4.445
	c0.007-1.519-0.428-3.257,0.169-4.494c0.595-1.234,2.354-1.85,3.385-2.942c2.135-2.265,5.025-2.181,7.713-2.739
	c1.898-0.394,3.814-0.702,5.706-1.261c-2.694,0-5.389,0-8.194,0c1.747-1.817,3.376-3.536,5.046-5.213
	c0.18-0.181,0.6-0.165,0.91-0.167c1.919-0.013,3.84-0.041,5.758,0.021c0.468,0.015,0.997,0.251,1.374,0.545
	c1.004,0.782,1.941,1.65,3.132,2.359c-0.383-0.906-0.767-1.813-1.199-2.835c2.538,0,4.989,0,7.586,0
	c-0.393,0.959-0.771,1.883-1.152,2.809c0.061,0.053,0.119,0.106,0.18,0.159c0.939-0.807,1.842-1.667,2.836-2.399
	c0.473-0.348,1.115-0.603,1.695-0.637c1.475-0.088,2.967,0.072,4.436-0.057c1.416-0.125,2.404,0.378,3.326,1.406
	c1.168,1.304,2.469,2.49,3.947,3.961c-2.998,0-5.703,0-8.41,0c-0.004,0.089-0.01,0.179-0.014,0.268
	c3.207,0.581,6.422,1.112,9.611,1.773c0.93,0.193,1.834,0.673,2.656,1.175c0.846,0.516,1.508,1.352,2.375,1.815
	c2.031,1.087,2.609,2.696,2.381,4.913c-0.195,1.891-0.041,3.818-0.041,5.998c-1.068-0.826-1.961-1.515-2.852-2.204
	c-0.057,0.042-0.113,0.084-0.17,0.126c1.012,1.829,1.891,3.749,3.066,5.465c1.777,2.599,2.484,5.373,2.1,8.47
	c-0.068,0.545-0.01,1.106-0.01,1.95c-2.135-1.83-4.104-3.518-6.074-5.207c-0.061,0.042-0.121,0.083-0.182,0.124
	c0.154,0.274,0.291,0.56,0.467,0.819c1.68,2.473,3.404,4.916,5.025,7.426c0.424,0.659,0.713,1.514,0.75,2.293
	c0.1,2.156,0.072,4.32,0.006,6.477c-0.016,0.539-0.266,1.139-0.582,1.586c-0.549,0.777-1.234,1.459-1.959,2.293
	c-1.738-2.928-3.422-5.762-5.104-8.596c-0.059,0.027-0.119,0.053-0.178,0.08c1.096,3.066,2.16,6.143,3.307,9.189
	c0.316,0.844,0.236,1.434-0.309,2.166c-3.059,4.1-6.057,8.244-9.078,12.371c-0.205,0.281-0.441,0.541-0.762,0.934
	c-1.41-2.43-2.756-4.754-4.104-7.076c-0.078,0.031-0.158,0.063-0.238,0.096c0.676,2.557,1.35,5.115,2.051,7.771
	c-1.814,0.766-3.568,1.504-5.461,2.301c-1.037-1.465-2.061-2.914-3.086-4.363c-0.068,0.033-0.139,0.066-0.207,0.1
	c0.496,1.412,1.023,2.813,1.465,4.24c0.105,0.344,0.063,0.887-0.148,1.148c-1.707,2.111-3.471,4.178-5.343,6.408
	c-1.041-1.242-2.031-2.416-3.013-3.596c-0.893-1.074-2.293-2.059-2.521-3.264c-0.226-1.189,0.739-2.604,1.177-3.92
	c0.109-0.33,0.199-0.666,0.298-0.998C252.016,311.092,251.945,311.07,251.874,311.049z M246.241,286.701
	c-0.3,0.762-0.194,1.123,0.619,1.203c1.117,0.113,2.222,0.34,3.332,0.518c-0.003,0.084-0.007,0.17-0.011,0.254
	c-1.364,0-2.728,0-4.092,0c-0.032,0.1-0.064,0.199-0.096,0.299c0.54,0.441,1.125,0.838,1.606,1.336
	c0.355,0.367,0.869,0.914,0.805,1.295c-0.328,1.957,0.639,3.279,1.969,4.434c0.379,0.328,0.94,0.617,1.423,0.627
	c2.878,0.057,5.76,0.029,8.639,0.021c0.313,0,0.764,0.061,0.914-0.113c1.078-1.238,2.865-2.082,2.49-4.182
	c-0.193-1.082,0.244-1.807,1.168-2.359c0.488-0.293,0.879-0.75,1.314-1.133c-0.068-0.105-0.135-0.211-0.203-0.316
	c-1.344,0-2.688,0-4.031,0c-0.004-0.053-0.006-0.105-0.008-0.158c1.359-0.219,2.719-0.439,4.033-0.65
	c0.258-0.836-0.002-1.133-0.773-1.1c-0.902,0.039-1.809,0.008-2.715,0.008c0.908-0.355,1.822-0.467,2.703-0.697
	c0.322-0.086,0.57-0.455,0.852-0.695c-0.336-0.174-0.66-0.449-1.014-0.496c-0.621-0.082-1.262-0.023-1.895-0.023
	c-0.004-0.061-0.008-0.123-0.014-0.184c0.941-0.213,1.881-0.424,2.928-0.661c-1.254-2.415-2.436-4.69-3.617-6.965
	c0.07-0.044,0.143-0.089,0.215-0.134c1.744,2.067,3.488,4.135,5.234,6.202c0.072-0.045,0.146-0.089,0.221-0.134
	c-0.551-1.034-1.102-2.068-1.641-3.083c1.156,0.992,2.289,1.963,3.459,2.966c0.451-0.59,1.025-1.215,1.445-1.931
	c0.318-0.544,0.602-1.199,0.619-1.813c0.082-2.837,0.104-5.677,0.053-8.514c-0.014-0.71-0.256-1.479-0.602-2.107
	c-0.793-1.438-1.713-2.804-2.697-4.388c1.008,0.12,1.744,0.207,2.479,0.294c-0.26-0.361-0.578-0.569-0.91-0.753
	c-2.477-1.381-4.982-2.713-7.422-4.156c-0.945-0.558-1.738-0.526-2.793-0.294c-2.303,0.505-3.525,1.608-3.445,4.089
	c0.034,1.04-0.343,2.093-0.533,3.141c-0.395-0.974-0.731-1.924-0.683-2.854c0.151-2.904-1.472-4.114-4.037-4.474
	c-0.575-0.081-1.276-0.075-1.765,0.183c-2.72,1.43-5.394,2.949-8.079,4.443c-0.274,0.153-0.525,0.348-0.787,0.523
	c0.031,0.052,0.062,0.103,0.092,0.154c0.739-0.085,1.478-0.171,2.435-0.281c-0.912,1.458-1.672,2.761-2.524,4.001
	c-0.591,0.859-0.862,1.729-0.83,2.786c0.068,2.238,0.196,4.497-0.029,6.714c-0.237,2.332,0.891,3.826,2.511,5.339
	c0.907-0.967,1.797-1.916,2.687-2.865c0.078,0.058,0.155,0.116,0.233,0.174c-0.512,1.011-1.024,2.022-1.537,3.034
	c0.044,0.02,0.089,0.04,0.133,0.06c1.805-2.161,3.61-4.321,5.415-6.482c0.08,0.05,0.16,0.1,0.24,0.15
	c-1.168,2.275-2.335,4.551-3.566,6.949c1.033,0.254,1.894,0.465,2.755,0.676c-0.632,0.166-1.232,0.205-1.826,0.158
	c-0.894-0.072-1.183,0.254-0.847,1.141c1.146,0.209,2.289,0.418,3.433,0.627c-0.005,0.066-0.011,0.131-0.016,0.197
	C248.511,286.701,247.364,286.701,246.241,286.701z"/>
<path fill-rule="evenodd" clip-rule="evenodd" d="M255.491,288.967c0.673-1.668-0.853-2.936-1.261-4.52
	c-0.071,0.311-0.141,0.621-0.239,1.049c-1.185-1.01-2.296-1.958-3.461-2.952c0.385-0.036,0.916,0.002,0.944-0.1
	c0.436-1.561,1.495-0.642,2.309-0.596c0.263,0.015,0.515,0.203,0.776,0.301c0.99,0.375,1.912,0.53,2.982,0.018
	c0.859-0.411,1.914-0.418,2.943-0.616c0.127,0.453,0.209,0.741,0.303,1.077c0.291-0.056,0.586-0.112,1.096-0.211
	c-1.279,1.101-2.4,2.066-3.662,3.15c-0.031-0.5-0.051-0.791-0.068-1.063c-0.549-0.125-1.501,3.424-1.33,4.469
	c2.094,0.752,4.121,1.482,6.123,2.203c-0.684,0.398-1.463,0.66-2.443,0.268c-1.346-0.537-2.721-0.678-4.22-0.736
	c-1.848-0.072-3.388,0.441-5.054,0.869c-0.611,0.156-1.349-0.184-2.133-0.314C251.289,290.475,253.3,289.752,255.491,288.967z"/>
<path fill-rule="evenodd" clip-rule="evenodd" d="M243.804,270.48c1.527-1.664,3.745-1.907,5.893-1.451
	c1.055,0.224,1.904,1.441,2.821,2.238c0.071,0.062-0.026,0.379-0.109,0.545c-0.424,0.853-0.868,1.695-1.472,2.862
	c0.097-1.055,0.161-1.756,0.218-2.378c-0.698,0.299-1.325,0.688-2.005,0.834c-1.45,0.312-2.577-0.213-3.508-1.417
	C245.216,271.162,244.434,270.886,243.804,270.48z"/>
<path fill-rule="evenodd" clip-rule="evenodd" d="M268.5,270.484c-0.619,0.392-1.438,0.647-1.826,1.203
	c-1.326,1.893-3.551,2.05-5.541,0.414c0.07,0.806,0.131,1.5,0.223,2.541c-0.617-1.186-1.096-2.097-1.563-3.014
	c-0.049-0.097-0.08-0.295-0.029-0.337c0.959-0.797,1.83-2.021,2.922-2.268C264.799,268.547,266.979,268.837,268.5,270.484z"/>
<path fill-rule="evenodd" clip-rule="evenodd" d="M256.146,273.482c-0.184-1.397-1.102-2.804-0.018-4.286
	C257.283,270.677,256.324,272.087,256.146,273.482z"/>
<path fill-rule="evenodd" clip-rule="evenodd" d="M250.6,264.528c0.447,0,0.789,0,1.305,0c-0.447,0.962-0.854,1.837-1.26,2.711
	c-0.095-0.011-0.19-0.021-0.285-0.032C250.438,266.331,250.517,265.454,250.6,264.528z"/>
<path fill-rule="evenodd" clip-rule="evenodd" d="M260.344,264.525c0.547,0,0.891,0,1.334,0c0.094,0.919,0.184,1.804,0.273,2.688
	c-0.078,0.025-0.158,0.051-0.236,0.076C261.291,266.434,260.867,265.579,260.344,264.525z"/>
<path fill-rule="evenodd" clip-rule="evenodd" d="M252.907,277.468c-0.204,1.092-0.408,2.184-0.613,3.275
	c-0.186-0.04-0.371-0.08-0.557-0.12c0.295-1.071,0.589-2.143,0.884-3.214C252.717,277.429,252.812,277.448,252.907,277.468z"/>
<path fill-rule="evenodd" clip-rule="evenodd" d="M259.949,280.544c-0.186-1.021-0.369-2.042-0.555-3.063
	c0.086-0.02,0.174-0.04,0.262-0.06c0.252,0.993,0.504,1.986,0.758,2.979C260.258,280.447,260.104,280.496,259.949,280.544z"/>
</svg>
